<svg width="48" height="48" viewBox="0 0 48 48" fill="none" xmlns="http://www.w3.org/2000/svg">
<g clip-path="url(#clip0_603_43)">
<path d="M33 0H15C6.75 0 0 6.75 0 15V33C0 41.25 6.75 48 15 48H33C41.25 48 48 41.25 48 33V15C48 6.75 41.25 0 33 0Z" fill="#FF5000"/>
<path d="M16.1344 18.9656V21.0219H15.6937C14.8859 19.5531 13.3437 18.6719 11.5812 18.6719C8.71719 18.6719 6 21.3891 6 24.9141C6 28.4391 8.64375 31.0828 11.5812 31.0828C13.3437 31.0828 14.8859 30.2016 15.6937 28.7328H16.1344V30.7891H18.7047V18.9656H16.1344ZM12.3156 28.6594C10.2594 28.6594 8.57031 27.0438 8.57031 24.8406C8.57031 22.7109 10.1859 21.0219 12.3156 21.0219C14.3719 21.0219 16.1344 22.6375 16.1344 24.8406C16.1344 27.0438 14.4453 28.6594 12.3156 28.6594Z" fill="white"/>
<path d="M29.4243 23.2984H24.9446V21.3891H32.5086V19.0391H22.3743V30.8625H29.4243C31.8477 30.8625 33.4633 29.2469 33.4633 27.0438C33.4633 24.9141 31.7743 23.2984 29.4243 23.2984ZM29.1305 28.5125H24.9446V25.575H29.1305C30.3055 25.575 30.893 26.1625 30.893 27.0438C30.893 27.925 30.3055 28.5125 29.1305 28.5125Z" fill="white"/>
<path d="M39.7812 23.8125C42.2047 23.8125 44.1875 21.8297 44.1875 19.4062C44.1875 16.9828 42.2047 15 39.7812 15C37.3578 15 35.375 16.9828 35.375 19.4062C35.375 21.8297 37.3578 23.8125 39.7812 23.8125Z" fill="#00F500"/>
</g>
<defs>
<clipPath id="clip0_603_43">
<rect width="48" height="48" fill="white"/>
</clipPath>
</defs>
</svg>
