<svg xmlns="http://www.w3.org/2000/svg"><symbol fill="none" id="sprite-Iv8zKinbbS77sndNnlLiOYcI8fyZgXPaOd1jHOzG" viewBox="0 0 17 15"><title>Iv8zKinbbS77sndNnlLiOYcI8fyZgXPaOd1jHOzG</title><path d="M13.732 13.87a.941.941 0 0 1-1.336.469l-3.62-2.814-2.323 2.144a.4.4 0 0 1-.38.052l.446-3.985.013.012.01-.079s6.513-5.93 6.778-6.182c.27-.252.18-.307.18-.307.016-.307-.481 0-.481 0L4.388 8.732.795 7.508S.243 7.311.19 6.875c-.055-.432.621-.667.621-.667L15.102.531s1.174-.523 1.174.344l-2.544 12.994z" fill="#29597A"/></symbol><symbol fill="none" id="sprite-U5YpJ52sGOc0a8MNYcI6XYsjaTGPkSvLTSlLMGWO" viewBox="0 0 17 15"><title>U5YpJ52sGOc0a8MNYcI6XYsjaTGPkSvLTSlLMGWO</title><path d="M13.732 13.87a.941.941 0 0 1-1.336.469l-3.62-2.814-2.323 2.144a.4.4 0 0 1-.38.052l.446-3.985.013.012.01-.079s6.513-5.93 6.778-6.182c.27-.252.18-.307.18-.307.016-.307-.481 0-.481 0L4.388 8.732.795 7.508S.243 7.311.19 6.875c-.055-.432.621-.667.621-.667L15.102.531s1.174-.523 1.174.344l-2.544 12.994z" fill="#29597A"/></symbol></svg>