<svg xmlns="http://www.w3.org/2000/svg"><symbol fill="none" id="sprite-fxD3wUOr3iMb25GV6duYjEiA9YQVqnRIMAEtoFzZ" viewBox="0 0 277 187"><title>fxD3wUOr3iMb25GV6duYjEiA9YQVqnRIMAEtoFzZ</title><path data-id="1" d="m46 64 3.5 3 2-1.5 2-1.5 3-2 3.5-2.5 3.5-2.5 2-2 3-2.5L70 51l1-1.5 1.5-1.5 1.5-2.5 2-2.5 2-3 1.5-3 1-2.5.667-1 .333-.5.5-2.5.5-1.5.5-2 1-3.5.5-2.5.5-4v-2l-1.5-1-2.5-1.5-2.5-.5-3-1H71l-1.5-1H58l-1.5-1H55l-2.5.5L51 9l-2-.5L47 7l-3.5-2.5-4.5-2-2.5-1-3.5 1-2.5 1-3 1.5L26 7l-1.5 2-2 2-1.5 1.5-1-.5h-2l-2-1-2-1-1-1-2-.5-2-1H5l-2 1L2 10l-1 2.5L3 16l2 2.5L8 21l2 2h5l1.5 1.5 1 3V33l1 3.5-1 3.5-1 2.5L14 45l-2 2-1 1v2l-.5 2.5V56l1 2h2l1.5 1 2.5 2H20l2.5 1 2-1 2-.5 2 .5 3.5 1.5 4.5 1.5 3.5 1h4l2-1Z" fill="#8E0909" stroke="#8E0909"/><path data-id="2" d="m254.5 20.5.5-2 4 1.5 3 4.5 1 3 1 4.5 2 4.5 1.5 4.5 1.5 3.5 1.5 4 1 2.5.5 5 1 5 .5 4-1.5 3.5-1 3V81l.5 4.5 1.5 6 2 5 1 6v12l-3 12.5-3.5-2-.5-3.5-2-5v-5l-1.5-3-1-5V97l.5-5 .5-3 1-2 1-2.5 2-5v-8l.5-2.5 1-2.5.5-1.5v-2l-.5-3-.5-3.5-.5-3-2.5-6.5-2-5.5-1-2.5-1-2.5-1-2.5-1.5-2-2-2.5-2-4-2.5-5Z" fill="#8E0909" stroke="#8E0909"/><path data-id="3" d="m206.5 20.5-1.5-1-1.5-1L202 17l7-.5h7.5l11-1H247l6 2.5-.5 2.5 2.5 5 2.5 5 3 4L263 41l3 7.5 2 5.5 1.5 11.5-1.5 6V79l-2 5.5-3 5.5-1.5 2-2 5.5-1 2v4.5l2 4v3l2.5 4 1.5 3-4 3.5-2 .5-2 1-1.5 1.5-1.5 1.5-2 .5-3 1-1.5-2-1.5-2-2.5-4.5-1.5-4-2-3.5-3-4.5-2.5-4-1.5-2.5-3.5-4v-10l-.5-3.5v-2.5L228 77l-.5-3.5-.5-5.5v-1.5l-1-4-1-4.5-.5-2.5-1-3-.5-2.5-.5-1.5L220 41l-1-2-2.5-5-1.5-3-1.5-2.5-2-3-2.5-2-1-1.5-1.5-1.5Z" fill="#8E0909" stroke="#8E0909"/><path data-id="4" d="M89 121v-3h8l2-.5 2.869-.478L104.5 117l2-.5h3l2.5-1-.5 4.5v2l-1 2.5v9.5l-1.5 2.5-2 3-.5 3.5-.5 4.5.5 3.5v10.5l.5 4v3l-1 1h-1.5l-2 1.5v1l.5 2v2l-.5 1-1 2h-1l-3 1.5h-7L87 179h-2l.5-2H83v-1l1-1 1.5-2 1.5-2 1-1.5v-1l1.5-2.5 1-2 1-3v-3l1-3.5v-2L94 150v-2.5l-.5-2.5-1-3-1-1.5-1-3-1-2.5v-3l-.5-3v-8Z" fill="#8E0909" stroke="#8E0909"/><path data-id="5" d="M191.5 82.5v-3l1-.5h4.5l2 .5h5l2 .5h11l4 .5h5.5v3l.5 2.5v11l-3 .5h-4.5l-3.5 1h-1.5l-3 .5h-1l-1-.5H205l-1.5.5-1.5 1-1 1-1.5 1-1 1-1.5 1-2 .5-2.5 2-1.5 1-2.5 1.5-1 .5.5-2 .5-1.5.5-1 .5-1.5.5-2v-4l.5-2V92l.5-1.5.5-3.5v-4.5Z" fill="#8E0909" stroke="#8E0909"/><path data-id="6" d="m178 20.5-1.5-2h7.5l2.5-.5h9l4-.5 1 1L202 20l3.5 2 2 2.5 2 1.5 2.5 3.5 3.5 7 2 3.5 1.5 6.5 1.5 3 1 3.5 1 2.5 1 6 .5 2.5 1 4v3l.5 4.5.5 3h-2.5L220 78h-13l-3.5-.5H200l-2-.5h-6.5l-.5-1V58.5l-.5-1.5-.5-2v-1.5l-.5-3-.5-3-.5-2-.5-2-.5-2-.5-2-1-3-1-2.5-1-2-1-2-.5-1.5-1-1.5-1-2-.5-1.5-1-1.5-1-1.5Z" fill="#8E0909" stroke="#8E0909"/><path data-id="7" d="M145 19h-3.5l2 3 1.5 2 1.5 3 1.5 3.5 2 5 1.5 5 1 4v4l1 2.5v6l.5 3v7l-.5 4v2l.5 3 2 .5h22.5l6.5 1h4.5v-18l-1-3.5-.5-5.5-1-4.5-1-5-1-3.5-2-3.5-1.5-4-2.5-4-1.5-3.5L175 19l-4.5.5H159l-3.5-.5H145Z" fill="#8E0909" stroke="#8E0909"/><path data-id="8" d="m113 18.5-.5-1.5h2.779l3.221.5 2.5.5h3.5l3 .5h5.5l4 .5h3l.5 1 1 1.5 1 1.5 1.5 2 1.5 3 2 5 1 2.5 1 3.5 1 4.5.5 2v3l1 3V57l.5 3.5v7l-.5 3v4l-.5 2-2.5.5h-5l-1-.5h-5l-1.5.5-2.5.5-3 .5h-8c-1 0-2.2.5-3 .5V71l.5-1v-9.5l-.5-2v-19l-.5-1.5v-1.5L119 35l-.5-2-.5-1.5-.5-2.5-.5-1.5-.5-1.5-.5-1-.5-1.5v-1l-1-1.5-.5-1-1-1.5Z" fill="#8E0909" stroke="#8E0909"/><path data-id="9" d="M54 66.5 50 69l1.5 2.5.5 2.5 1 3 1 1 1 2 1 2.5 1 2.5h1l2-1h3l3.5-1 3-.5H73l2.5-1h8l7-1L94 80l4.5-.5h9.5l3.5-1h7V72l.5-2.5V62l-.5-3.5v-18l-1-5L116 29l-1-3-1.5-3.5L111 17l-2-.5h-6l-5-1H87.5v1l-1 4-1 5L85 27l-.5 1.5-1 5-1.5 4-3.5 6L75 48l-3.5 5-5.5 5-4.5 3-3.5 3-4 2.5Z" fill="#8E0909" stroke="#8E0909"/><path data-id="10" d="M119.5 83.5V80h12l4-1 3-.5h3l2 .5h4l12.5-.5h17.5l8 .5 4 .5v5L189 89l-.5 2.5v4l-.5 4v2l-1.5 5-1 4-1 .5-2.5 1.5-1.5 1-2 1.5-.5 1.5-1.5 1H173l-2-1-2-1.5-1-1-1.5-.5-2-1-2.5-1-1.5-.5h-7l-2.5-.5h-2.5l-2-.5-2.5-.5h-9.5l-3-.5h-4l-2.5.5h-1.5l-2 .5-1.5.5h-1l-1.5.5-1.5.5h-1.5l1-2.5v-2.5l.5-2 .5-2V101l.5-1.5.5-1.5.5-1.5V91l.5-2 .5-2v-1.5l.5-2Z" fill="#8E0909" stroke="#8E0909"/><path data-id="11" d="M84 85v-1.5l.5-.5 2-.5h2l2-.5h2l2-.5H96l2-.5h11l2-.5 1.5-.5h5.5v3.5l-.5 2V87l-.5 2.5-.5 2v5l-1 3-.5 3.5-.5 2-.5 2.5v1.5l-1 2.5-.5 2-1 .5-1.5.5-2 .5h-2.5l-2 .5H101l-2 .5-4 .5-.5-.5-.5-.5v-1l-.5-1v-1l-.5-1-.5-1-.5-1.5-.5-1-.5-1-.5-1-.5-1-.5-1v-1l-.5-1-.5-1-.5-1v-1l-.5-1-.5-1v-1.5l-.5-1.5-.5-1v-1.5l-.5-1.5-.5-.5-.5-1v-2L84 85Z" fill="#8E0909" stroke="#8E0909"/><path data-id="12" d="m59.5 86 1-.5H63l3-1 3.5-.5h4l1.5-.5 1-.5h6.5v2.5l.5 2V89l1 2 .5 2.5 1 2.5v1.5l.5 1 .5 2.5 1 1.5.5 1.5.5 1.5.5 1.5 1 1.5 1 2.5.5 2 .5 1 .5 1v1l.5.5h-5.5l-2-.5h-2l-1.5-.5-1.5-.5-2.5-1-1.5-1-1-.5-1.5-1-1-.5-1.5-2-1-1-2-1-2-1.5L65 104l-1-1-1-1.5-.5-1-1-1.5-.5-1-.5-1-1-2-1-3-.5-1-.5-1v-3.5h1l1-.5Z" fill="#8E0909"/><path data-id="13" d="M57.5 86.5V90l.5 1 .5 1 1 3 1 2 .5 1 .5 1 1 1.5.5 1 1 1.5 1 1 1.5 1.5 2 1.5 2 1 1 1 1.5 2 1 .5 1.5 1 1 .5 1.5 1 2.5 1 1.5.5 1.5.5h2l2 .5H93l-.5-.5v-1l-.5-1-.5-1-.5-2-1-2.5-1-1.5-.5-1.5-.5-1.5-.5-1.5-1-1.5-.5-2.5-.5-1V96l-1-2.5L84 91l-1-2v-1.5l-.5-2V83H76l-1 .5-1.5.5h-4l-3.5.5-3 1h-2.5l-1 .5-1 .5h-1Zm0 0V86" stroke="#8E0909"/><path data-id="14" d="m215 103.5-2.5-2.5 2-.5h2l3.5-1h3.5l4.5-.5 1.5 1.5 1.5 1.5 3 4.5 2 3.5 2 3 3.5 8 2 3.5 2 3.5 2.5 2 2-1 4.5-1 3.5-3.5 3.5-1 4-4 1 4-1 4.5-1.5 4.5V157l1.5 5v12H264l-1.5 3v2.5l-1 2.5-1.5 2.5-2 1h-11.875L247 182l3-2.5.5-1 1.5-3.5 1-3-1-5v-16.5l-2-8-3-5.5-1.5-4.5-2-3.5h-1.667L240 134.5l-2 5.5-2 5-2 4-1.5 4.5-1.5 4.5-1 3-1 6v2l-1 2h-3v6l-1.5 1-2 2.5H209l4.5-6.5v-1l1.5-2 1.5-3 1.5-3v-2l1-3.5 1.5-4 1-4 1-3.5 1-3 1.5-4v-5.5l-1.5-3V126l-1-2-1-1.5-2-4V115l-1.5-3.5v-3l-1-2.5-2-2.5Z" fill="#8E0909"/><path data-id="15" d="m242 128.5-2 6-2 5.5-2 5-2 4-1.5 4.5-1.5 4.5-1 3-1 6v2l-1 2h-3v6l-1.5 1-2 2.5H209l4.5-6.5v-1l1.5-2 1.5-3 1.5-3v-2l1-3.5 1.5-4 1-4 1-3.5 1-3 1.5-4v-5.5l-1.5-3V126l-1-2-1-1.5-2-4V115l-1.5-3.5v-3l-1-2.5-2-2.5-2.5-2.5 2-.5h2l3.5-1h3.5l4.5-.5 1.5 1.5 1.5 1.5 3 4.5 2 3.5 2 3 3.5 8 2 3.5 2 3.5 2.5 2 2-1 4.5-1 3.5-3.5 3.5-1 4-4 1 4-1 4.5-1.5 4.5V157l1.5 5v12H264l-1.5 3v2.5l-1 2.5-1.5 2.5-2 1h-12m-4.5-56.5h2l2 3.5 1.5 4.5 3 5.5 2 8V167l1 5-1 3-1.5 3.5-.5 1-3 2.5-1 4" stroke="#8E0909"/></symbol><symbol fill="none" id="sprite-j12UuqcpZ8aywd5w0LHXxjyRKSgeHVwsgBrOdNQa" viewBox="0 0 277 187"><title>j12UuqcpZ8aywd5w0LHXxjyRKSgeHVwsgBrOdNQa</title><path data-id="1" d="m46 64 3.5 3 2-1.5 2-1.5 3-2 3.5-2.5 3.5-2.5 2-2 3-2.5L70 51l1-1.5 1.5-1.5 1.5-2.5 2-2.5 2-3 1.5-3 1-2.5.667-1 .333-.5.5-2.5.5-1.5.5-2 1-3.5.5-2.5.5-4v-2l-1.5-1-2.5-1.5-2.5-.5-3-1H71l-1.5-1H58l-1.5-1H55l-2.5.5L51 9l-2-.5L47 7l-3.5-2.5-4.5-2-2.5-1-3.5 1-2.5 1-3 1.5L26 7l-1.5 2-2 2-1.5 1.5-1-.5h-2l-2-1-2-1-1-1-2-.5-2-1H5l-2 1L2 10l-1 2.5L3 16l2 2.5L8 21l2 2h5l1.5 1.5 1 3V33l1 3.5-1 3.5-1 2.5L14 45l-2 2-1 1v2l-.5 2.5V56l1 2h2l1.5 1 2.5 2H20l2.5 1 2-1 2-.5 2 .5 3.5 1.5 4.5 1.5 3.5 1h4l2-1Z" fill="#8E0909" stroke="#8E0909"/><path data-id="2" d="m254.5 20.5.5-2 4 1.5 3 4.5 1 3 1 4.5 2 4.5 1.5 4.5 1.5 3.5 1.5 4 1 2.5.5 5 1 5 .5 4-1.5 3.5-1 3V81l.5 4.5 1.5 6 2 5 1 6v12l-3 12.5-3.5-2-.5-3.5-2-5v-5l-1.5-3-1-5V97l.5-5 .5-3 1-2 1-2.5 2-5v-8l.5-2.5 1-2.5.5-1.5v-2l-.5-3-.5-3.5-.5-3-2.5-6.5-2-5.5-1-2.5-1-2.5-1-2.5-1.5-2-2-2.5-2-4-2.5-5Z" fill="#8E0909" stroke="#8E0909"/><path data-id="3" d="m206.5 20.5-1.5-1-1.5-1L202 17l7-.5h7.5l11-1H247l6 2.5-.5 2.5 2.5 5 2.5 5 3 4L263 41l3 7.5 2 5.5 1.5 11.5-1.5 6V79l-2 5.5-3 5.5-1.5 2-2 5.5-1 2v4.5l2 4v3l2.5 4 1.5 3-4 3.5-2 .5-2 1-1.5 1.5-1.5 1.5-2 .5-3 1-1.5-2-1.5-2-2.5-4.5-1.5-4-2-3.5-3-4.5-2.5-4-1.5-2.5-3.5-4v-10l-.5-3.5v-2.5L228 77l-.5-3.5-.5-5.5v-1.5l-1-4-1-4.5-.5-2.5-1-3-.5-2.5-.5-1.5L220 41l-1-2-2.5-5-1.5-3-1.5-2.5-2-3-2.5-2-1-1.5-1.5-1.5Z" fill="#8E0909" stroke="#8E0909"/><path data-id="4" d="M89 121v-3h8l2-.5 2.869-.478L104.5 117l2-.5h3l2.5-1-.5 4.5v2l-1 2.5v9.5l-1.5 2.5-2 3-.5 3.5-.5 4.5.5 3.5v10.5l.5 4v3l-1 1h-1.5l-2 1.5v1l.5 2v2l-.5 1-1 2h-1l-3 1.5h-7L87 179h-2l.5-2H83v-1l1-1 1.5-2 1.5-2 1-1.5v-1l1.5-2.5 1-2 1-3v-3l1-3.5v-2L94 150v-2.5l-.5-2.5-1-3-1-1.5-1-3-1-2.5v-3l-.5-3v-8Z" fill="#8E0909" stroke="#8E0909"/><path data-id="5" d="M191.5 82.5v-3l1-.5h4.5l2 .5h5l2 .5h11l4 .5h5.5v3l.5 2.5v11l-3 .5h-4.5l-3.5 1h-1.5l-3 .5h-1l-1-.5H205l-1.5.5-1.5 1-1 1-1.5 1-1 1-1.5 1-2 .5-2.5 2-1.5 1-2.5 1.5-1 .5.5-2 .5-1.5.5-1 .5-1.5.5-2v-4l.5-2V92l.5-1.5.5-3.5v-4.5Z" fill="#8E0909" stroke="#8E0909"/><path data-id="6" d="m178 20.5-1.5-2h7.5l2.5-.5h9l4-.5 1 1L202 20l3.5 2 2 2.5 2 1.5 2.5 3.5 3.5 7 2 3.5 1.5 6.5 1.5 3 1 3.5 1 2.5 1 6 .5 2.5 1 4v3l.5 4.5.5 3h-2.5L220 78h-13l-3.5-.5H200l-2-.5h-6.5l-.5-1V58.5l-.5-1.5-.5-2v-1.5l-.5-3-.5-3-.5-2-.5-2-.5-2-.5-2-1-3-1-2.5-1-2-1-2-.5-1.5-1-1.5-1-2-.5-1.5-1-1.5-1-1.5Z" fill="#8E0909" stroke="#8E0909"/><path data-id="7" d="M145 19h-3.5l2 3 1.5 2 1.5 3 1.5 3.5 2 5 1.5 5 1 4v4l1 2.5v6l.5 3v7l-.5 4v2l.5 3 2 .5h22.5l6.5 1h4.5v-18l-1-3.5-.5-5.5-1-4.5-1-5-1-3.5-2-3.5-1.5-4-2.5-4-1.5-3.5L175 19l-4.5.5H159l-3.5-.5H145Z" fill="#8E0909" stroke="#8E0909"/><path data-id="8" d="m113 18.5-.5-1.5h2.779l3.221.5 2.5.5h3.5l3 .5h5.5l4 .5h3l.5 1 1 1.5 1 1.5 1.5 2 1.5 3 2 5 1 2.5 1 3.5 1 4.5.5 2v3l1 3V57l.5 3.5v7l-.5 3v4l-.5 2-2.5.5h-5l-1-.5h-5l-1.5.5-2.5.5-3 .5h-8c-1 0-2.2.5-3 .5V71l.5-1v-9.5l-.5-2v-19l-.5-1.5v-1.5L119 35l-.5-2-.5-1.5-.5-2.5-.5-1.5-.5-1.5-.5-1-.5-1.5v-1l-1-1.5-.5-1-1-1.5Z" fill="#8E0909" stroke="#8E0909"/><path data-id="9" d="M54 66.5 50 69l1.5 2.5.5 2.5 1 3 1 1 1 2 1 2.5 1 2.5h1l2-1h3l3.5-1 3-.5H73l2.5-1h8l7-1L94 80l4.5-.5h9.5l3.5-1h7V72l.5-2.5V62l-.5-3.5v-18l-1-5L116 29l-1-3-1.5-3.5L111 17l-2-.5h-6l-5-1H87.5v1l-1 4-1 5L85 27l-.5 1.5-1 5-1.5 4-3.5 6L75 48l-3.5 5-5.5 5-4.5 3-3.5 3-4 2.5Z" fill="#8E0909" stroke="#8E0909"/><path data-id="10" d="M119.5 83.5V80h12l4-1 3-.5h3l2 .5h4l12.5-.5h17.5l8 .5 4 .5v5L189 89l-.5 2.5v4l-.5 4v2l-1.5 5-1 4-1 .5-2.5 1.5-1.5 1-2 1.5-.5 1.5-1.5 1H173l-2-1-2-1.5-1-1-1.5-.5-2-1-2.5-1-1.5-.5h-7l-2.5-.5h-2.5l-2-.5-2.5-.5h-9.5l-3-.5h-4l-2.5.5h-1.5l-2 .5-1.5.5h-1l-1.5.5-1.5.5h-1.5l1-2.5v-2.5l.5-2 .5-2V101l.5-1.5.5-1.5.5-1.5V91l.5-2 .5-2v-1.5l.5-2Z" fill="#8E0909" stroke="#8E0909"/><path data-id="11" d="M84 85v-1.5l.5-.5 2-.5h2l2-.5h2l2-.5H96l2-.5h11l2-.5 1.5-.5h5.5v3.5l-.5 2V87l-.5 2.5-.5 2v5l-1 3-.5 3.5-.5 2-.5 2.5v1.5l-1 2.5-.5 2-1 .5-1.5.5-2 .5h-2.5l-2 .5H101l-2 .5-4 .5-.5-.5-.5-.5v-1l-.5-1v-1l-.5-1-.5-1-.5-1.5-.5-1-.5-1-.5-1-.5-1-.5-1v-1l-.5-1-.5-1-.5-1v-1l-.5-1-.5-1v-1.5l-.5-1.5-.5-1v-1.5l-.5-1.5-.5-.5-.5-1v-2L84 85Z" fill="#8E0909" stroke="#8E0909"/><path data-id="12" d="m59.5 86 1-.5H63l3-1 3.5-.5h4l1.5-.5 1-.5h6.5v2.5l.5 2V89l1 2 .5 2.5 1 2.5v1.5l.5 1 .5 2.5 1 1.5.5 1.5.5 1.5.5 1.5 1 1.5 1 2.5.5 2 .5 1 .5 1v1l.5.5h-5.5l-2-.5h-2l-1.5-.5-1.5-.5-2.5-1-1.5-1-1-.5-1.5-1-1-.5-1.5-2-1-1-2-1-2-1.5L65 104l-1-1-1-1.5-.5-1-1-1.5-.5-1-.5-1-1-2-1-3-.5-1-.5-1v-3.5h1l1-.5Z" fill="#8E0909"/><path data-id="13" d="M57.5 86.5V90l.5 1 .5 1 1 3 1 2 .5 1 .5 1 1 1.5.5 1 1 1.5 1 1 1.5 1.5 2 1.5 2 1 1 1 1.5 2 1 .5 1.5 1 1 .5 1.5 1 2.5 1 1.5.5 1.5.5h2l2 .5H93l-.5-.5v-1l-.5-1-.5-1-.5-2-1-2.5-1-1.5-.5-1.5-.5-1.5-.5-1.5-1-1.5-.5-2.5-.5-1V96l-1-2.5L84 91l-1-2v-1.5l-.5-2V83H76l-1 .5-1.5.5h-4l-3.5.5-3 1h-2.5l-1 .5-1 .5h-1Zm0 0V86" stroke="#8E0909"/><path data-id="14" d="m215 103.5-2.5-2.5 2-.5h2l3.5-1h3.5l4.5-.5 1.5 1.5 1.5 1.5 3 4.5 2 3.5 2 3 3.5 8 2 3.5 2 3.5 2.5 2 2-1 4.5-1 3.5-3.5 3.5-1 4-4 1 4-1 4.5-1.5 4.5V157l1.5 5v12H264l-1.5 3v2.5l-1 2.5-1.5 2.5-2 1h-11.875L247 182l3-2.5.5-1 1.5-3.5 1-3-1-5v-16.5l-2-8-3-5.5-1.5-4.5-2-3.5h-1.667L240 134.5l-2 5.5-2 5-2 4-1.5 4.5-1.5 4.5-1 3-1 6v2l-1 2h-3v6l-1.5 1-2 2.5H209l4.5-6.5v-1l1.5-2 1.5-3 1.5-3v-2l1-3.5 1.5-4 1-4 1-3.5 1-3 1.5-4v-5.5l-1.5-3V126l-1-2-1-1.5-2-4V115l-1.5-3.5v-3l-1-2.5-2-2.5Z" fill="#8E0909"/><path data-id="15" d="m242 128.5-2 6-2 5.5-2 5-2 4-1.5 4.5-1.5 4.5-1 3-1 6v2l-1 2h-3v6l-1.5 1-2 2.5H209l4.5-6.5v-1l1.5-2 1.5-3 1.5-3v-2l1-3.5 1.5-4 1-4 1-3.5 1-3 1.5-4v-5.5l-1.5-3V126l-1-2-1-1.5-2-4V115l-1.5-3.5v-3l-1-2.5-2-2.5-2.5-2.5 2-.5h2l3.5-1h3.5l4.5-.5 1.5 1.5 1.5 1.5 3 4.5 2 3.5 2 3 3.5 8 2 3.5 2 3.5 2.5 2 2-1 4.5-1 3.5-3.5 3.5-1 4-4 1 4-1 4.5-1.5 4.5V157l1.5 5v12H264l-1.5 3v2.5l-1 2.5-1.5 2.5-2 1h-12m-4.5-56.5h2l2 3.5 1.5 4.5 3 5.5 2 8V167l1 5-1 3-1.5 3.5-.5 1-3 2.5-1 4" stroke="#8E0909"/></symbol><symbol fill="none" id="sprite-KPzCy5T8IVVTZF2lzIa0e0uAXmw1O2CTALmWBqTO" viewBox="0 0 277 187"><title>KPzCy5T8IVVTZF2lzIa0e0uAXmw1O2CTALmWBqTO</title><path data-id="1" d="m46 64 3.5 3 2-1.5 2-1.5 3-2 3.5-2.5 3.5-2.5 2-2 3-2.5L70 51l1-1.5 1.5-1.5 1.5-2.5 2-2.5 2-3 1.5-3 1-2.5.667-1 .333-.5.5-2.5.5-1.5.5-2 1-3.5.5-2.5.5-4v-2l-1.5-1-2.5-1.5-2.5-.5-3-1H71l-1.5-1H58l-1.5-1H55l-2.5.5L51 9l-2-.5L47 7l-3.5-2.5-4.5-2-2.5-1-3.5 1-2.5 1-3 1.5L26 7l-1.5 2-2 2-1.5 1.5-1-.5h-2l-2-1-2-1-1-1-2-.5-2-1H5l-2 1L2 10l-1 2.5L3 16l2 2.5L8 21l2 2h5l1.5 1.5 1 3V33l1 3.5-1 3.5-1 2.5L14 45l-2 2-1 1v2l-.5 2.5V56l1 2h2l1.5 1 2.5 2H20l2.5 1 2-1 2-.5 2 .5 3.5 1.5 4.5 1.5 3.5 1h4l2-1Z" fill="#8E0909" stroke="#8E0909"/><path data-id="2" d="m254.5 20.5.5-2 4 1.5 3 4.5 1 3 1 4.5 2 4.5 1.5 4.5 1.5 3.5 1.5 4 1 2.5.5 5 1 5 .5 4-1.5 3.5-1 3V81l.5 4.5 1.5 6 2 5 1 6v12l-3 12.5-3.5-2-.5-3.5-2-5v-5l-1.5-3-1-5V97l.5-5 .5-3 1-2 1-2.5 2-5v-8l.5-2.5 1-2.5.5-1.5v-2l-.5-3-.5-3.5-.5-3-2.5-6.5-2-5.5-1-2.5-1-2.5-1-2.5-1.5-2-2-2.5-2-4-2.5-5Z" fill="#8E0909" stroke="#8E0909"/><path data-id="3" d="m206.5 20.5-1.5-1-1.5-1L202 17l7-.5h7.5l11-1H247l6 2.5-.5 2.5 2.5 5 2.5 5 3 4L263 41l3 7.5 2 5.5 1.5 11.5-1.5 6V79l-2 5.5-3 5.5-1.5 2-2 5.5-1 2v4.5l2 4v3l2.5 4 1.5 3-4 3.5-2 .5-2 1-1.5 1.5-1.5 1.5-2 .5-3 1-1.5-2-1.5-2-2.5-4.5-1.5-4-2-3.5-3-4.5-2.5-4-1.5-2.5-3.5-4v-10l-.5-3.5v-2.5L228 77l-.5-3.5-.5-5.5v-1.5l-1-4-1-4.5-.5-2.5-1-3-.5-2.5-.5-1.5L220 41l-1-2-2.5-5-1.5-3-1.5-2.5-2-3-2.5-2-1-1.5-1.5-1.5Z" fill="#8E0909" stroke="#8E0909"/><path data-id="4" d="M89 121v-3h8l2-.5 2.869-.478L104.5 117l2-.5h3l2.5-1-.5 4.5v2l-1 2.5v9.5l-1.5 2.5-2 3-.5 3.5-.5 4.5.5 3.5v10.5l.5 4v3l-1 1h-1.5l-2 1.5v1l.5 2v2l-.5 1-1 2h-1l-3 1.5h-7L87 179h-2l.5-2H83v-1l1-1 1.5-2 1.5-2 1-1.5v-1l1.5-2.5 1-2 1-3v-3l1-3.5v-2L94 150v-2.5l-.5-2.5-1-3-1-1.5-1-3-1-2.5v-3l-.5-3v-8Z" fill="#8E0909" stroke="#8E0909"/><path data-id="5" d="M191.5 82.5v-3l1-.5h4.5l2 .5h5l2 .5h11l4 .5h5.5v3l.5 2.5v11l-3 .5h-4.5l-3.5 1h-1.5l-3 .5h-1l-1-.5H205l-1.5.5-1.5 1-1 1-1.5 1-1 1-1.5 1-2 .5-2.5 2-1.5 1-2.5 1.5-1 .5.5-2 .5-1.5.5-1 .5-1.5.5-2v-4l.5-2V92l.5-1.5.5-3.5v-4.5Z" fill="#8E0909" stroke="#8E0909"/><path data-id="6" d="m178 20.5-1.5-2h7.5l2.5-.5h9l4-.5 1 1L202 20l3.5 2 2 2.5 2 1.5 2.5 3.5 3.5 7 2 3.5 1.5 6.5 1.5 3 1 3.5 1 2.5 1 6 .5 2.5 1 4v3l.5 4.5.5 3h-2.5L220 78h-13l-3.5-.5H200l-2-.5h-6.5l-.5-1V58.5l-.5-1.5-.5-2v-1.5l-.5-3-.5-3-.5-2-.5-2-.5-2-.5-2-1-3-1-2.5-1-2-1-2-.5-1.5-1-1.5-1-2-.5-1.5-1-1.5-1-1.5Z" fill="#8E0909" stroke="#8E0909"/><path data-id="7" d="M145 19h-3.5l2 3 1.5 2 1.5 3 1.5 3.5 2 5 1.5 5 1 4v4l1 2.5v6l.5 3v7l-.5 4v2l.5 3 2 .5h22.5l6.5 1h4.5v-18l-1-3.5-.5-5.5-1-4.5-1-5-1-3.5-2-3.5-1.5-4-2.5-4-1.5-3.5L175 19l-4.5.5H159l-3.5-.5H145Z" fill="#8E0909" stroke="#8E0909"/><path data-id="8" d="m113 18.5-.5-1.5h2.779l3.221.5 2.5.5h3.5l3 .5h5.5l4 .5h3l.5 1 1 1.5 1 1.5 1.5 2 1.5 3 2 5 1 2.5 1 3.5 1 4.5.5 2v3l1 3V57l.5 3.5v7l-.5 3v4l-.5 2-2.5.5h-5l-1-.5h-5l-1.5.5-2.5.5-3 .5h-8c-1 0-2.2.5-3 .5V71l.5-1v-9.5l-.5-2v-19l-.5-1.5v-1.5L119 35l-.5-2-.5-1.5-.5-2.5-.5-1.5-.5-1.5-.5-1-.5-1.5v-1l-1-1.5-.5-1-1-1.5Z" fill="#8E0909" stroke="#8E0909"/><path data-id="9" d="M54 66.5 50 69l1.5 2.5.5 2.5 1 3 1 1 1 2 1 2.5 1 2.5h1l2-1h3l3.5-1 3-.5H73l2.5-1h8l7-1L94 80l4.5-.5h9.5l3.5-1h7V72l.5-2.5V62l-.5-3.5v-18l-1-5L116 29l-1-3-1.5-3.5L111 17l-2-.5h-6l-5-1H87.5v1l-1 4-1 5L85 27l-.5 1.5-1 5-1.5 4-3.5 6L75 48l-3.5 5-5.5 5-4.5 3-3.5 3-4 2.5Z" fill="#8E0909" stroke="#8E0909"/><path data-id="10" d="M119.5 83.5V80h12l4-1 3-.5h3l2 .5h4l12.5-.5h17.5l8 .5 4 .5v5L189 89l-.5 2.5v4l-.5 4v2l-1.5 5-1 4-1 .5-2.5 1.5-1.5 1-2 1.5-.5 1.5-1.5 1H173l-2-1-2-1.5-1-1-1.5-.5-2-1-2.5-1-1.5-.5h-7l-2.5-.5h-2.5l-2-.5-2.5-.5h-9.5l-3-.5h-4l-2.5.5h-1.5l-2 .5-1.5.5h-1l-1.5.5-1.5.5h-1.5l1-2.5v-2.5l.5-2 .5-2V101l.5-1.5.5-1.5.5-1.5V91l.5-2 .5-2v-1.5l.5-2Z" fill="#8E0909" stroke="#8E0909"/><path data-id="11" d="M84 85v-1.5l.5-.5 2-.5h2l2-.5h2l2-.5H96l2-.5h11l2-.5 1.5-.5h5.5v3.5l-.5 2V87l-.5 2.5-.5 2v5l-1 3-.5 3.5-.5 2-.5 2.5v1.5l-1 2.5-.5 2-1 .5-1.5.5-2 .5h-2.5l-2 .5H101l-2 .5-4 .5-.5-.5-.5-.5v-1l-.5-1v-1l-.5-1-.5-1-.5-1.5-.5-1-.5-1-.5-1-.5-1-.5-1v-1l-.5-1-.5-1-.5-1v-1l-.5-1-.5-1v-1.5l-.5-1.5-.5-1v-1.5l-.5-1.5-.5-.5-.5-1v-2L84 85Z" fill="#8E0909" stroke="#8E0909"/><path data-id="12" d="m59.5 86 1-.5H63l3-1 3.5-.5h4l1.5-.5 1-.5h6.5v2.5l.5 2V89l1 2 .5 2.5 1 2.5v1.5l.5 1 .5 2.5 1 1.5.5 1.5.5 1.5.5 1.5 1 1.5 1 2.5.5 2 .5 1 .5 1v1l.5.5h-5.5l-2-.5h-2l-1.5-.5-1.5-.5-2.5-1-1.5-1-1-.5-1.5-1-1-.5-1.5-2-1-1-2-1-2-1.5L65 104l-1-1-1-1.5-.5-1-1-1.5-.5-1-.5-1-1-2-1-3-.5-1-.5-1v-3.5h1l1-.5Z" fill="#8E0909"/><path data-id="13" d="M57.5 86.5V90l.5 1 .5 1 1 3 1 2 .5 1 .5 1 1 1.5.5 1 1 1.5 1 1 1.5 1.5 2 1.5 2 1 1 1 1.5 2 1 .5 1.5 1 1 .5 1.5 1 2.5 1 1.5.5 1.5.5h2l2 .5H93l-.5-.5v-1l-.5-1-.5-1-.5-2-1-2.5-1-1.5-.5-1.5-.5-1.5-.5-1.5-1-1.5-.5-2.5-.5-1V96l-1-2.5L84 91l-1-2v-1.5l-.5-2V83H76l-1 .5-1.5.5h-4l-3.5.5-3 1h-2.5l-1 .5-1 .5h-1Zm0 0V86" stroke="#8E0909"/><path data-id="14" d="m215 103.5-2.5-2.5 2-.5h2l3.5-1h3.5l4.5-.5 1.5 1.5 1.5 1.5 3 4.5 2 3.5 2 3 3.5 8 2 3.5 2 3.5 2.5 2 2-1 4.5-1 3.5-3.5 3.5-1 4-4 1 4-1 4.5-1.5 4.5V157l1.5 5v12H264l-1.5 3v2.5l-1 2.5-1.5 2.5-2 1h-11.875L247 182l3-2.5.5-1 1.5-3.5 1-3-1-5v-16.5l-2-8-3-5.5-1.5-4.5-2-3.5h-1.667L240 134.5l-2 5.5-2 5-2 4-1.5 4.5-1.5 4.5-1 3-1 6v2l-1 2h-3v6l-1.5 1-2 2.5H209l4.5-6.5v-1l1.5-2 1.5-3 1.5-3v-2l1-3.5 1.5-4 1-4 1-3.5 1-3 1.5-4v-5.5l-1.5-3V126l-1-2-1-1.5-2-4V115l-1.5-3.5v-3l-1-2.5-2-2.5Z" fill="#8E0909"/><path data-id="15" d="m242 128.5-2 6-2 5.5-2 5-2 4-1.5 4.5-1.5 4.5-1 3-1 6v2l-1 2h-3v6l-1.5 1-2 2.5H209l4.5-6.5v-1l1.5-2 1.5-3 1.5-3v-2l1-3.5 1.5-4 1-4 1-3.5 1-3 1.5-4v-5.5l-1.5-3V126l-1-2-1-1.5-2-4V115l-1.5-3.5v-3l-1-2.5-2-2.5-2.5-2.5 2-.5h2l3.5-1h3.5l4.5-.5 1.5 1.5 1.5 1.5 3 4.5 2 3.5 2 3 3.5 8 2 3.5 2 3.5 2.5 2 2-1 4.5-1 3.5-3.5 3.5-1 4-4 1 4-1 4.5-1.5 4.5V157l1.5 5v12H264l-1.5 3v2.5l-1 2.5-1.5 2.5-2 1h-12m-4.5-56.5h2l2 3.5 1.5 4.5 3 5.5 2 8V167l1 5-1 3-1.5 3.5-.5 1-3 2.5-1 4" stroke="#8E0909"/></symbol><symbol fill="none" id="sprite-zekRpnOavUWaMw4eRjK79EF9KMSnn5WWbmuIYO9T" viewBox="0 0 277 187"><title>zekRpnOavUWaMw4eRjK79EF9KMSnn5WWbmuIYO9T</title><path data-id="1" d="m46 64 3.5 3 2-1.5 2-1.5 3-2 3.5-2.5 3.5-2.5 2-2 3-2.5L70 51l1-1.5 1.5-1.5 1.5-2.5 2-2.5 2-3 1.5-3 1-2.5.667-1 .333-.5.5-2.5.5-1.5.5-2 1-3.5.5-2.5.5-4v-2l-1.5-1-2.5-1.5-2.5-.5-3-1H71l-1.5-1H58l-1.5-1H55l-2.5.5L51 9l-2-.5L47 7l-3.5-2.5-4.5-2-2.5-1-3.5 1-2.5 1-3 1.5L26 7l-1.5 2-2 2-1.5 1.5-1-.5h-2l-2-1-2-1-1-1-2-.5-2-1H5l-2 1L2 10l-1 2.5L3 16l2 2.5L8 21l2 2h5l1.5 1.5 1 3V33l1 3.5-1 3.5-1 2.5L14 45l-2 2-1 1v2l-.5 2.5V56l1 2h2l1.5 1 2.5 2H20l2.5 1 2-1 2-.5 2 .5 3.5 1.5 4.5 1.5 3.5 1h4l2-1Z" fill="#8E0909" stroke="#8E0909"/><path data-id="2" d="m254.5 20.5.5-2 4 1.5 3 4.5 1 3 1 4.5 2 4.5 1.5 4.5 1.5 3.5 1.5 4 1 2.5.5 5 1 5 .5 4-1.5 3.5-1 3V81l.5 4.5 1.5 6 2 5 1 6v12l-3 12.5-3.5-2-.5-3.5-2-5v-5l-1.5-3-1-5V97l.5-5 .5-3 1-2 1-2.5 2-5v-8l.5-2.5 1-2.5.5-1.5v-2l-.5-3-.5-3.5-.5-3-2.5-6.5-2-5.5-1-2.5-1-2.5-1-2.5-1.5-2-2-2.5-2-4-2.5-5Z" fill="#8E0909" stroke="#8E0909"/><path data-id="3" d="m206.5 20.5-1.5-1-1.5-1L202 17l7-.5h7.5l11-1H247l6 2.5-.5 2.5 2.5 5 2.5 5 3 4L263 41l3 7.5 2 5.5 1.5 11.5-1.5 6V79l-2 5.5-3 5.5-1.5 2-2 5.5-1 2v4.5l2 4v3l2.5 4 1.5 3-4 3.5-2 .5-2 1-1.5 1.5-1.5 1.5-2 .5-3 1-1.5-2-1.5-2-2.5-4.5-1.5-4-2-3.5-3-4.5-2.5-4-1.5-2.5-3.5-4v-10l-.5-3.5v-2.5L228 77l-.5-3.5-.5-5.5v-1.5l-1-4-1-4.5-.5-2.5-1-3-.5-2.5-.5-1.5L220 41l-1-2-2.5-5-1.5-3-1.5-2.5-2-3-2.5-2-1-1.5-1.5-1.5Z" fill="#8E0909" stroke="#8E0909"/><path data-id="4" d="M89 121v-3h8l2-.5 2.869-.478L104.5 117l2-.5h3l2.5-1-.5 4.5v2l-1 2.5v9.5l-1.5 2.5-2 3-.5 3.5-.5 4.5.5 3.5v10.5l.5 4v3l-1 1h-1.5l-2 1.5v1l.5 2v2l-.5 1-1 2h-1l-3 1.5h-7L87 179h-2l.5-2H83v-1l1-1 1.5-2 1.5-2 1-1.5v-1l1.5-2.5 1-2 1-3v-3l1-3.5v-2L94 150v-2.5l-.5-2.5-1-3-1-1.5-1-3-1-2.5v-3l-.5-3v-8Z" fill="#8E0909" stroke="#8E0909"/><path data-id="5" d="M191.5 82.5v-3l1-.5h4.5l2 .5h5l2 .5h11l4 .5h5.5v3l.5 2.5v11l-3 .5h-4.5l-3.5 1h-1.5l-3 .5h-1l-1-.5H205l-1.5.5-1.5 1-1 1-1.5 1-1 1-1.5 1-2 .5-2.5 2-1.5 1-2.5 1.5-1 .5.5-2 .5-1.5.5-1 .5-1.5.5-2v-4l.5-2V92l.5-1.5.5-3.5v-4.5Z" fill="#8E0909" stroke="#8E0909"/><path data-id="6" d="m178 20.5-1.5-2h7.5l2.5-.5h9l4-.5 1 1L202 20l3.5 2 2 2.5 2 1.5 2.5 3.5 3.5 7 2 3.5 1.5 6.5 1.5 3 1 3.5 1 2.5 1 6 .5 2.5 1 4v3l.5 4.5.5 3h-2.5L220 78h-13l-3.5-.5H200l-2-.5h-6.5l-.5-1V58.5l-.5-1.5-.5-2v-1.5l-.5-3-.5-3-.5-2-.5-2-.5-2-.5-2-1-3-1-2.5-1-2-1-2-.5-1.5-1-1.5-1-2-.5-1.5-1-1.5-1-1.5Z" fill="#8E0909" stroke="#8E0909"/><path data-id="7" d="M145 19h-3.5l2 3 1.5 2 1.5 3 1.5 3.5 2 5 1.5 5 1 4v4l1 2.5v6l.5 3v7l-.5 4v2l.5 3 2 .5h22.5l6.5 1h4.5v-18l-1-3.5-.5-5.5-1-4.5-1-5-1-3.5-2-3.5-1.5-4-2.5-4-1.5-3.5L175 19l-4.5.5H159l-3.5-.5H145Z" fill="#8E0909" stroke="#8E0909"/><path data-id="8" d="m113 18.5-.5-1.5h2.779l3.221.5 2.5.5h3.5l3 .5h5.5l4 .5h3l.5 1 1 1.5 1 1.5 1.5 2 1.5 3 2 5 1 2.5 1 3.5 1 4.5.5 2v3l1 3V57l.5 3.5v7l-.5 3v4l-.5 2-2.5.5h-5l-1-.5h-5l-1.5.5-2.5.5-3 .5h-8c-1 0-2.2.5-3 .5V71l.5-1v-9.5l-.5-2v-19l-.5-1.5v-1.5L119 35l-.5-2-.5-1.5-.5-2.5-.5-1.5-.5-1.5-.5-1-.5-1.5v-1l-1-1.5-.5-1-1-1.5Z" fill="#8E0909" stroke="#8E0909"/><path data-id="9" d="M54 66.5 50 69l1.5 2.5.5 2.5 1 3 1 1 1 2 1 2.5 1 2.5h1l2-1h3l3.5-1 3-.5H73l2.5-1h8l7-1L94 80l4.5-.5h9.5l3.5-1h7V72l.5-2.5V62l-.5-3.5v-18l-1-5L116 29l-1-3-1.5-3.5L111 17l-2-.5h-6l-5-1H87.5v1l-1 4-1 5L85 27l-.5 1.5-1 5-1.5 4-3.5 6L75 48l-3.5 5-5.5 5-4.5 3-3.5 3-4 2.5Z" fill="#8E0909" stroke="#8E0909"/><path data-id="10" d="M119.5 83.5V80h12l4-1 3-.5h3l2 .5h4l12.5-.5h17.5l8 .5 4 .5v5L189 89l-.5 2.5v4l-.5 4v2l-1.5 5-1 4-1 .5-2.5 1.5-1.5 1-2 1.5-.5 1.5-1.5 1H173l-2-1-2-1.5-1-1-1.5-.5-2-1-2.5-1-1.5-.5h-7l-2.5-.5h-2.5l-2-.5-2.5-.5h-9.5l-3-.5h-4l-2.5.5h-1.5l-2 .5-1.5.5h-1l-1.5.5-1.5.5h-1.5l1-2.5v-2.5l.5-2 .5-2V101l.5-1.5.5-1.5.5-1.5V91l.5-2 .5-2v-1.5l.5-2Z" fill="#8E0909" stroke="#8E0909"/><path data-id="11" d="M84 85v-1.5l.5-.5 2-.5h2l2-.5h2l2-.5H96l2-.5h11l2-.5 1.5-.5h5.5v3.5l-.5 2V87l-.5 2.5-.5 2v5l-1 3-.5 3.5-.5 2-.5 2.5v1.5l-1 2.5-.5 2-1 .5-1.5.5-2 .5h-2.5l-2 .5H101l-2 .5-4 .5-.5-.5-.5-.5v-1l-.5-1v-1l-.5-1-.5-1-.5-1.5-.5-1-.5-1-.5-1-.5-1-.5-1v-1l-.5-1-.5-1-.5-1v-1l-.5-1-.5-1v-1.5l-.5-1.5-.5-1v-1.5l-.5-1.5-.5-.5-.5-1v-2L84 85Z" fill="#8E0909" stroke="#8E0909"/><path data-id="12" d="m59.5 86 1-.5H63l3-1 3.5-.5h4l1.5-.5 1-.5h6.5v2.5l.5 2V89l1 2 .5 2.5 1 2.5v1.5l.5 1 .5 2.5 1 1.5.5 1.5.5 1.5.5 1.5 1 1.5 1 2.5.5 2 .5 1 .5 1v1l.5.5h-5.5l-2-.5h-2l-1.5-.5-1.5-.5-2.5-1-1.5-1-1-.5-1.5-1-1-.5-1.5-2-1-1-2-1-2-1.5L65 104l-1-1-1-1.5-.5-1-1-1.5-.5-1-.5-1-1-2-1-3-.5-1-.5-1v-3.5h1l1-.5Z" fill="#8E0909"/><path data-id="13" d="M57.5 86.5V90l.5 1 .5 1 1 3 1 2 .5 1 .5 1 1 1.5.5 1 1 1.5 1 1 1.5 1.5 2 1.5 2 1 1 1 1.5 2 1 .5 1.5 1 1 .5 1.5 1 2.5 1 1.5.5 1.5.5h2l2 .5H93l-.5-.5v-1l-.5-1-.5-1-.5-2-1-2.5-1-1.5-.5-1.5-.5-1.5-.5-1.5-1-1.5-.5-2.5-.5-1V96l-1-2.5L84 91l-1-2v-1.5l-.5-2V83H76l-1 .5-1.5.5h-4l-3.5.5-3 1h-2.5l-1 .5-1 .5h-1Zm0 0V86" stroke="#8E0909"/><path data-id="14" d="m215 103.5-2.5-2.5 2-.5h2l3.5-1h3.5l4.5-.5 1.5 1.5 1.5 1.5 3 4.5 2 3.5 2 3 3.5 8 2 3.5 2 3.5 2.5 2 2-1 4.5-1 3.5-3.5 3.5-1 4-4 1 4-1 4.5-1.5 4.5V157l1.5 5v12H264l-1.5 3v2.5l-1 2.5-1.5 2.5-2 1h-11.875L247 182l3-2.5.5-1 1.5-3.5 1-3-1-5v-16.5l-2-8-3-5.5-1.5-4.5-2-3.5h-1.667L240 134.5l-2 5.5-2 5-2 4-1.5 4.5-1.5 4.5-1 3-1 6v2l-1 2h-3v6l-1.5 1-2 2.5H209l4.5-6.5v-1l1.5-2 1.5-3 1.5-3v-2l1-3.5 1.5-4 1-4 1-3.5 1-3 1.5-4v-5.5l-1.5-3V126l-1-2-1-1.5-2-4V115l-1.5-3.5v-3l-1-2.5-2-2.5Z" fill="#8E0909"/><path data-id="15" d="m242 128.5-2 6-2 5.5-2 5-2 4-1.5 4.5-1.5 4.5-1 3-1 6v2l-1 2h-3v6l-1.5 1-2 2.5H209l4.5-6.5v-1l1.5-2 1.5-3 1.5-3v-2l1-3.5 1.5-4 1-4 1-3.5 1-3 1.5-4v-5.5l-1.5-3V126l-1-2-1-1.5-2-4V115l-1.5-3.5v-3l-1-2.5-2-2.5-2.5-2.5 2-.5h2l3.5-1h3.5l4.5-.5 1.5 1.5 1.5 1.5 3 4.5 2 3.5 2 3 3.5 8 2 3.5 2 3.5 2.5 2 2-1 4.5-1 3.5-3.5 3.5-1 4-4 1 4-1 4.5-1.5 4.5V157l1.5 5v12H264l-1.5 3v2.5l-1 2.5-1.5 2.5-2 1h-12m-4.5-56.5h2l2 3.5 1.5 4.5 3 5.5 2 8V167l1 5-1 3-1.5 3.5-.5 1-3 2.5-1 4" stroke="#8E0909"/></symbol></svg>