<svg width="48" height="48" viewBox="0 0 48 48" fill="none" xmlns="http://www.w3.org/2000/svg">
<g clip-path="url(#clip0_102_2)">
<path d="M24 48C37.2548 48 48 37.2548 48 24C48 10.7452 37.2548 0 24 0C10.7452 0 0 10.7452 0 24C0 37.2548 10.7452 48 24 48Z" fill="#EE2A23"/>
<path d="M24 8C26.11 8 26.77 9.46 27.33 10.91L33.2 26.4C33.2262 26.4757 33.222 26.5585 33.1885 26.6312C33.1549 26.7039 33.0946 26.7608 33.02 26.79L29.82 28C29.7443 28.0262 29.6615 28.022 29.5888 27.9885C29.5161 27.9549 29.4592 27.8946 29.43 27.82L28.06 24.17H20L18.57 27.8C18.5566 27.8377 18.5359 27.8724 18.5089 27.902C18.4819 27.9316 18.4493 27.9554 18.4129 27.9722C18.3766 27.989 18.3373 27.9983 18.2973 27.9996C18.2573 28.001 18.2174 27.9943 18.18 27.98L15 26.79C14.9254 26.7608 14.8651 26.7039 14.8315 26.6312C14.798 26.5585 14.7938 26.4757 14.82 26.4C15.02 25.85 20.42 11.65 20.69 10.91C21.21 9.48 21.89 8 24 8ZM14.31 34C14.2698 33.9987 14.2297 34.0054 14.1921 34.0199C14.1546 34.0344 14.1203 34.0563 14.0914 34.0843C14.0624 34.1122 14.0395 34.1458 14.0238 34.1828C14.0081 34.2199 14 34.2597 14 34.3V37.7C14.0026 37.7805 14.0364 37.8568 14.0943 37.9128C14.1521 37.9688 14.2295 38 14.31 38H33.69C33.7705 38 33.8479 37.9688 33.9057 37.9128C33.9636 37.8568 33.9974 37.7805 34 37.7V34.3C34 34.2597 33.9919 34.2199 33.9762 34.1828C33.9605 34.1458 33.9376 34.1122 33.9086 34.0843C33.8797 34.0563 33.8454 34.0344 33.8079 34.0199C33.7703 34.0054 33.7302 33.9987 33.69 34H14.31ZM24 12.74L21.24 20.74H26.81L24.04 12.74H24Z" fill="white"/>
</g>
<defs>
<clipPath id="clip0_102_2">
<rect width="48" height="48" fill="white"/>
</clipPath>
</defs>
</svg>
