<svg width="52" height="52" viewBox="0 0 52 52" fill="none" xmlns="http://www.w3.org/2000/svg">
<circle cx="26" cy="26" r="26" fill="#ED6F2D"/>
<path fill-rule="evenodd" clip-rule="evenodd" d="M35 18H17C16.4696 18 15.9609 18.2107 15.5858 18.5858C15.2107 18.9609 15 19.4696 15 20V32C15 32.5304 15.2107 33.0391 15.5858 33.4142C15.9609 33.7893 16.4696 34 17 34H35C35.5304 34 36.0391 33.7893 36.4142 33.4142C36.7893 33.0391 37 32.5304 37 32V20C37 19.4696 36.7893 18.9609 36.4142 18.5858C36.0391 18.2107 35.5304 18 35 18ZM17 20V22H35V20H17ZM17 24V32H35V24H17ZM24 27H20V29H24V27Z" fill="white"/>
</svg>
