<svg width="24" height="24" viewBox="0 0 24 24" fill="none" xmlns="http://www.w3.org/2000/svg">
<path d="M16.0792 4.93596C14.1792 7.13596 12.3792 9.43598 10.6792 11.736C9.87922 10.336 9.07922 8.83599 8.37922 7.33599C6.67922 4.03599 1.57922 6.93597 3.37922 10.336C4.77922 13.136 6.37922 15.936 7.97922 18.636C9.17922 20.636 11.7792 20.436 12.9792 18.636C15.2792 15.336 17.6792 12.236 20.2792 9.13598C22.5792 6.23598 18.4792 2.13596 16.0792 4.93596Z" fill="#32B2A8"/>
<path d="M11.209 22.0392C11.009 22.0392 10.909 21.9392 10.809 21.8392C8.40903 18.9392 6.20902 15.8392 4.10902 12.6392C3.90902 12.4392 4.00902 12.1392 4.20902 11.9392C4.40902 11.7392 4.70903 11.8392 4.90903 12.0392C6.80903 15.0392 8.90902 17.8392 11.109 20.6392C14.209 16.7392 16.709 13.0392 19.709 8.23921C19.809 8.03921 20.209 7.93923 20.409 8.03923C20.609 8.13923 20.709 8.53921 20.609 8.73921C17.409 13.7392 14.809 17.5392 11.509 21.7392C11.509 21.9392 11.309 22.0392 11.209 22.0392Z" fill="black"/>
</svg>
