<svg width="88" height="88" viewBox="0 0 88 88" fill="none" xmlns="http://www.w3.org/2000/svg">
<path d="M88 0H0V88H88V0Z" fill="white"/>
<path d="M24.2 6.09998V82.7L62.0998 82.3L63.7999 6.49998L24.2 6.09998Z" fill="#A0DFDA"/>
<path d="M55.9999 85.7C57.3999 77.7 58.5999 59.4 56.4999 45.8C54.9999 35.5 56.3999 29.1 57.3999 19.1C59.0999 23.4 60.4999 27.7 61.6999 32.2" stroke="#030000" stroke-miterlimit="10" stroke-linecap="round" stroke-linejoin="round"/>
<path d="M45.1 56.6C43.9 66 43.4 75.3 42.3 84.7" stroke="#030000" stroke-miterlimit="10" stroke-linecap="round" stroke-linejoin="round"/>
<path d="M46.3 57C47.3 56.9 49 55.8 49.6 55" stroke="#030000" stroke-miterlimit="10" stroke-linecap="round" stroke-linejoin="round"/>
<path d="M56.5 45.8C49.4 47.9 41.3 47.3 34 46.4" stroke="#030000" stroke-miterlimit="10" stroke-linecap="round" stroke-linejoin="round"/>
<path d="M46.3 57C46.4 60 47.9 81.4 48 84.6" stroke="#030000" stroke-miterlimit="10" stroke-linecap="round" stroke-linejoin="round"/>
<path d="M42.6 1C42.6 3.7 41 5.8 38.7 6.9C36.4 8 33.9 8.3 31.5 9.2C29.7 9.8 28.4 11.1 27.3 12.6C24 17.3 22.7 23 21.5 28.5" stroke="#030000" stroke-miterlimit="10" stroke-linecap="round" stroke-linejoin="round"/>
<path d="M41.6 22.3C38.2 23 34.6 22.4 31.7 20.5C31.1 20.1 30.4 19.5 30.3 18.8C30.2 18 31 17.1 31.8 18C32.6 18.9 34.9 32 34.4 39.2C34.2 42.2 33.8 45.3 33.5 48.3C32.1 61.2 32.6 74.2 34.8 87" stroke="#030000" stroke-miterlimit="10" stroke-linecap="round" stroke-linejoin="round"/>
<path d="M56.1 21C54.7 22.9 51.4 23 48.3 22.6" stroke="#030000" stroke-miterlimit="10" stroke-linecap="round" stroke-linejoin="round"/>
<path d="M29.6999 21.9C28.1999 25.9 26.5999 29.8 24.8999 33.6" stroke="#030000" stroke-miterlimit="10" stroke-linecap="round" stroke-linejoin="round"/>
<path d="M47.6001 1.39999C48.3001 2.99999 49.1001 4.59999 50.5001 5.69999C52.6001 7.39999 55.5001 7.39999 57.7001 8.79999C59.9001 10.2 61.0001 12.8 62.0001 15.2C63.5001 18.9 64.9001 22.7 66.2001 26.5" stroke="#030000" stroke-miterlimit="10" stroke-linecap="round" stroke-linejoin="round"/>
<path d="M22.8 23.3C24.2 24.5 25.9 25.5 27.6 26.2" stroke="#030000" stroke-miterlimit="10" stroke-linecap="round" stroke-linejoin="round"/>
<path d="M65.2 23.9C63.9 24.8 62.5 25.5 61 26.1" stroke="#030000" stroke-miterlimit="10" stroke-linecap="round" stroke-linejoin="round"/>
<path d="M39.8999 7.50001C40.3999 8.10001 41.1999 8.60001 41.8999 9.00001C43.3999 9.70001 45.0999 10 46.6999 9.60001C48.2999 9.20001 49.7999 8.20001 50.4999 6.70001" stroke="#030000" stroke-miterlimit="10" stroke-linecap="round" stroke-linejoin="round"/>
<path d="M33.8999 76.4C36.5999 76.9 39.3999 77.1 42.0999 77.1" stroke="#030000" stroke-miterlimit="10" stroke-linecap="round" stroke-linejoin="round"/>
<path d="M47.6001 77.1C50.2001 77 52.8001 76.8 55.4001 76.3" stroke="#030000" stroke-miterlimit="10" stroke-linecap="round" stroke-linejoin="round"/>
</svg>
