<svg width="88" height="88" viewBox="0 0 88 88" fill="none" xmlns="http://www.w3.org/2000/svg">
<path d="M88 0H0V88H88V0Z" fill="white"/>
<path d="M25.6 5.59999C4.29998 17.2 3.59998 27.6 2.89998 44.1C2.19998 60.6 13.4 84.8 48.1 82.7C82.8 80.6 86.9 51.7 87 35.2C87.2 15.3 52.7 -9.30001 25.6 5.59999Z" fill="#FDDB70"/>
<path d="M38.0998 4.5C36.9998 6.4 31.5 9.3 28.2 10.8C23.9 12.7 20.4 15.2 18.2 19.4C16 23.6 14 28.4 13.2 36.2" stroke="#030000" stroke-miterlimit="10" stroke-linecap="round" stroke-linejoin="round"/>
<path d="M51.5 3.79999C52.7 5.99999 62.3 10.5 64.6 11.5C69.1 13.5 71.9 16.4 73.4 19.8C75 23.4 75.8 27.3 75.5 31.2" stroke="#030000" stroke-miterlimit="10" stroke-linecap="round" stroke-linejoin="round"/>
<path d="M27.8999 27.6C31.7999 30.5 37.3999 31 41.7999 28.8" stroke="#030000" stroke-miterlimit="10" stroke-linecap="round" stroke-linejoin="round"/>
<path d="M26.1999 30.8C23.9999 37.3 23.9999 44.5 26.0999 51.1C26.3999 52.1 26.7999 53.1 26.8999 54.2C26.8999 55.5 26.3999 56.8 25.8999 58C22.4999 67.3 22.3999 77.7 25.8999 87" stroke="#030000" stroke-miterlimit="10" stroke-linecap="round" stroke-linejoin="round"/>
<path d="M48.7 27.4C50.6 29 53.2 29.8 55.7 29.6C58.2 29.4 60.6 28.2 62.2 26.2C62.7 25.7 63.1 25 62.9 24.3C62.7 23.6 61.8 23.1 61.4 23.6C61.1 23.9 61.1 24.5 61.2 24.9C61.7 27.2 63.1998 28.6 64.0998 32.5C66.1998 41.1 64.7 46.3 63.7 55C63.4 57.6 64.2998 60.1 64.5998 62.6C65.3998 69.8 64.7 77.2 62.4 84.1" stroke="#030000" stroke-miterlimit="10" stroke-linecap="round" stroke-linejoin="round"/>
<path d="M28.2 52.4C38.3 57.6 53.5 57.4 63.7 52.4" stroke="#030000" stroke-miterlimit="10" stroke-linecap="round" stroke-linejoin="round"/>
<path d="M49.9 66C49.9 66 47.6 67.6 44 67.1C43.2 67 42.4 66.7 41.9 66.1C41.4 65.5 41.4 64.5 42 64C42.8 63.3 44.1 64 44.5 65C44.9 66 44.5999 67.1 44.2999 68.1C42.7999 73.3 41.2 78.4 39.7 83.6" stroke="#030000" stroke-miterlimit="10" stroke-linecap="round" stroke-linejoin="round"/>
<path d="M45.5 70C46.4 75.5 48.1 80.8 50.7 85.8" stroke="#030000" stroke-miterlimit="10" stroke-linecap="round" stroke-linejoin="round"/>
<path d="M36.1001 8.39996C38.7001 10.7 42.0001 12.3 45.4001 12.2C48.8001 12.2 52.3001 10.4 54.0001 7.39996" stroke="#030000" stroke-miterlimit="10" stroke-linecap="round" stroke-linejoin="round"/>
<path d="M64.8999 29.9C68.6999 28.8 72.5999 27.7 76.3999 26.7" stroke="#030000" stroke-miterlimit="10" stroke-linecap="round" stroke-linejoin="round"/>
<path d="M26.0998 30.6C22.9998 29.1 20.0998 27.3 17.2998 25.4" stroke="#030000" stroke-miterlimit="10" stroke-linecap="round" stroke-linejoin="round"/>
</svg>
