<svg width="24" height="24" viewBox="0 0 24 24" fill="none" xmlns="http://www.w3.org/2000/svg">
<path d="M7.14063 19.6403C7.14026 18.9836 7.34277 18.3416 7.72254 17.7953C8.10231 17.2492 8.64228 16.8234 9.27416 16.5718C9.90604 16.3203 10.6014 16.2542 11.2724 16.3822C11.9433 16.5101 12.5597 16.8261 13.0435 17.2904C13.5274 17.7545 13.8569 18.3461 13.9905 18.9902C14.1241 19.6342 14.0557 20.3018 13.794 20.9086C13.5323 21.5153 13.0891 22.0339 12.5203 22.3988C11.9516 22.7637 11.2829 22.9584 10.5989 22.9584C10.1448 22.9587 9.69516 22.873 9.2756 22.7064C8.85604 22.5398 8.47479 22.2953 8.15364 21.9872C7.83249 21.6791 7.57773 21.3132 7.40392 20.9105C7.2301 20.5078 7.14063 20.0762 7.14063 19.6403Z" fill="#86A6F4"/>
<path d="M5.32031 14.639C5.32142 14.0142 5.51542 13.4037 5.87781 12.8847C6.2402 12.3658 6.75471 11.9615 7.35631 11.7231C7.95792 11.4848 8.61964 11.423 9.25783 11.5455C9.89602 11.668 10.482 11.9695 10.9419 12.4117C11.4017 12.8538 11.7146 13.417 11.8412 14.0298C11.9678 14.6427 11.9023 15.2778 11.6529 15.855C11.4036 16.432 10.9817 16.9253 10.4405 17.2723C9.89924 17.6194 9.26302 17.8046 8.61218 17.8046C7.73912 17.8046 6.90182 17.4716 6.28448 16.8789C5.66713 16.2863 5.32031 15.4825 5.32031 14.6443" fill="#86A6F4"/>
<path d="M10.6201 15.2509C10.6201 14.5985 10.8216 13.9607 11.1991 13.4183C11.5766 12.8759 12.1133 12.4531 12.7411 12.2035C13.3689 11.9538 14.0597 11.8886 14.7262 12.0159C15.3927 12.1431 16.0049 12.4573 16.4854 12.9185C16.9659 13.3798 17.2931 13.9675 17.4257 14.6074C17.5583 15.2471 17.4902 15.9104 17.2302 16.5131C16.9701 17.1158 16.5297 17.6309 15.9647 17.9933C15.3997 18.3558 14.7354 18.5492 14.0559 18.5492C13.1447 18.5492 12.2707 18.2017 11.6264 17.5831C10.9821 16.9646 10.6201 16.1256 10.6201 15.2509Z" fill="#86A6F4"/>
<path d="M14.209 10.874C14.209 10.2283 14.4084 9.59723 14.782 9.06043C15.1557 8.52361 15.6867 8.10523 16.308 7.85816C16.9294 7.61109 17.6131 7.54645 18.2726 7.67241C18.9322 7.79836 19.5381 8.10925 20.0136 8.56577C20.4892 9.02228 20.813 9.60393 20.9442 10.2371C21.0754 10.8704 21.0081 11.5267 20.7507 12.1232C20.4934 12.7196 20.0576 13.2295 19.4984 13.5881C18.9392 13.9468 18.2818 14.1382 17.6093 14.1382C16.7075 14.1382 15.8426 13.7943 15.2049 13.1821C14.5672 12.5699 14.209 11.7397 14.209 10.874Z" fill="#86A6F4"/>
<path d="M8.50391 9.90843C8.50391 9.26283 8.70334 8.63172 9.07697 8.09491C9.4506 7.5581 9.98165 7.13971 10.603 6.89264C11.2243 6.64557 11.908 6.58094 12.5676 6.70689C13.2272 6.83284 13.833 7.14374 14.3086 7.60025C14.7841 8.05677 15.108 8.63841 15.2392 9.27162C15.3704 9.90478 15.303 10.5611 15.0457 11.1577C14.7883 11.7541 14.3525 12.2639 13.7933 12.6226C13.2341 12.9813 12.5767 13.1727 11.9042 13.1727C11.4576 13.173 11.0153 13.0887 10.6027 12.9248C10.19 12.7608 9.81508 12.5203 9.49929 12.2171C9.18349 11.914 8.93303 11.5541 8.76224 11.1579C8.59145 10.7618 8.50366 10.3372 8.50391 9.90843Z" fill="#86A6F4"/>
<path d="M3.19141 9.37012C3.19141 8.72443 3.39089 8.09325 3.7646 7.5564C4.13831 7.01955 4.66948 6.60116 5.29091 6.35414C5.91234 6.10713 6.59612 6.04259 7.25576 6.16869C7.9154 6.29479 8.52127 6.60586 8.99673 7.06256C9.4722 7.51925 9.7959 8.10106 9.92689 8.73439C10.0578 9.36772 9.99028 10.0241 9.73263 10.6206C9.47499 11.2169 9.03888 11.7267 8.47945 12.0852C7.92003 12.4436 7.26243 12.6348 6.58984 12.6344C6.14339 12.6344 5.70133 12.55 5.28889 12.3859C4.87645 12.2218 4.50173 11.9814 4.18613 11.6782C3.87053 11.3751 3.62024 11.0152 3.44956 10.6192C3.27889 10.2232 3.19117 9.79874 3.19141 9.37012Z" fill="#86A6F4"/>
<path d="M14.3097 18.6587C14.0089 18.659 13.7095 18.6198 13.4199 18.542C11.1113 17.9355 11.0645 15.7713 11.0645 15.7498C11.064 15.7143 11.0708 15.6793 11.0844 15.6465C11.0981 15.6136 11.1183 15.5837 11.144 15.5583C11.1697 15.533 11.2003 15.5127 11.2342 15.4988C11.268 15.4848 11.3044 15.4774 11.3412 15.4769C11.4151 15.4774 11.4858 15.5057 11.5383 15.5556C11.5907 15.6057 11.6206 15.6734 11.6216 15.7444C11.646 16.2745 11.8483 16.7829 12.1983 17.1936C12.5484 17.6044 13.0273 17.8955 13.5638 18.0234C14.2723 18.2008 15.0244 18.1158 15.6707 17.7853C16.3169 17.4548 16.81 16.9031 17.052 16.2396C17.0628 16.2056 17.0806 16.1739 17.1043 16.1464C17.1279 16.1189 17.157 16.0962 17.1898 16.0795C17.2226 16.0629 17.2586 16.0525 17.2955 16.0493C17.3325 16.0459 17.3698 16.0497 17.4053 16.0602C17.441 16.07 17.4743 16.0866 17.5031 16.1091C17.532 16.1315 17.5559 16.1593 17.5733 16.1908C17.5908 16.2223 17.6014 16.2568 17.6047 16.2924C17.6079 16.3279 17.6037 16.3637 17.5922 16.3976C17.3525 17.0512 16.9091 17.6183 16.3222 18.0219C15.7354 18.4254 15.0334 18.6459 14.3115 18.6533" fill="black"/>
<path d="M6.12257 12.586C5.56561 12.5894 5.01625 12.4618 4.52243 12.2145C3.92986 11.9112 3.16905 11.2742 2.91482 9.96231C2.54096 8.04396 4.14483 6.62986 4.21213 6.57064C4.26805 6.52757 4.33904 6.5067 4.4105 6.51231C4.48197 6.51794 4.54847 6.54963 4.59634 6.60087C4.64421 6.65212 4.66983 6.71902 4.6679 6.78783C4.66597 6.85664 4.63666 6.92213 4.58599 6.97083C4.56169 6.99056 3.15035 8.25034 3.4644 9.86362C3.63451 10.7484 4.07941 11.38 4.78414 11.739C5.42553 12.0589 6.16891 12.1352 6.86625 11.9526C7.56359 11.77 8.16371 11.342 8.54708 10.7537C8.5807 10.6908 8.63876 10.643 8.70872 10.621C8.77868 10.5988 8.85492 10.604 8.92095 10.6353C8.95375 10.6509 8.983 10.6726 9.00705 10.6991C9.03111 10.7257 9.04947 10.7565 9.0611 10.7898C9.07273 10.8231 9.07741 10.8584 9.07485 10.8934C9.07229 10.9286 9.06255 10.9627 9.04619 10.9942C9.02937 11.0283 8.59568 11.8466 7.37502 12.3544C6.97672 12.5118 6.5495 12.5905 6.11883 12.586" fill="black"/>
<path d="M8.53573 17.9319C8.26227 17.9321 7.98981 17.9001 7.72444 17.8368C5.54855 17.3217 5.1859 15.9345 5.10739 14.9386C5.03723 14.2296 5.19094 13.5168 5.54855 12.8928C5.56831 12.8629 5.59402 12.837 5.6242 12.8166C5.65439 12.7962 5.68847 12.7817 5.72449 12.7739C5.76051 12.7662 5.79776 12.7654 5.83413 12.7714C5.87049 12.7775 5.90526 12.7903 5.93643 12.8094C5.96761 12.8284 5.99459 12.853 6.01583 12.882C6.03707 12.911 6.05215 12.9437 6.06023 12.9783C6.0683 13.0129 6.0692 13.0486 6.06287 13.0835C6.05655 13.1185 6.04312 13.1518 6.02336 13.1817C5.73196 13.707 5.6078 14.303 5.66632 14.8955C5.7467 15.852 6.06822 16.8893 7.86277 17.3145C8.30932 17.4184 8.77554 17.416 9.22089 17.3074C9.66624 17.199 10.0772 16.9876 10.4181 16.6919C10.4709 16.6414 10.5424 16.6132 10.6169 16.6134C10.6914 16.6135 10.7628 16.6421 10.8154 16.6927C10.8679 16.7434 10.8973 16.8121 10.8972 16.8836C10.897 16.9551 10.8672 17.0237 10.8144 17.0742C10.1915 17.6184 9.38174 17.9237 8.53946 17.9319" fill="black"/>
<path d="M12.1135 13.1907C11.469 13.1904 10.8348 13.0356 10.2684 12.7402C9.78302 12.4747 9.36947 12.1033 9.06119 11.6559C8.75291 11.2086 8.55853 10.6979 8.49375 10.1651C8.42898 9.63244 8.49562 9.09253 8.68831 8.58906C8.88099 8.0856 9.1943 7.63269 9.60295 7.26692C9.66071 7.22195 9.73472 7.20084 9.80869 7.20824C9.88266 7.21565 9.95053 7.25096 9.99738 7.3064C10.0442 7.36185 10.0662 7.4329 10.0585 7.50391C10.0508 7.57492 10.014 7.64008 9.95626 7.68505C9.6195 7.99519 9.36258 8.37635 9.20586 8.79833C9.04914 9.2203 8.99692 9.67151 9.05333 10.1162C9.10974 10.561 9.27323 10.9869 9.53086 11.3604C9.78849 11.734 10.1332 12.0448 10.5376 12.2683C11.3919 12.7187 12.4069 12.7349 12.9677 12.5195C14.1622 12.0565 14.3716 11.4321 14.3809 11.4052C14.4034 11.3382 14.4519 11.2822 14.5163 11.2487C14.5807 11.2153 14.6561 11.207 14.7268 11.2257C14.7962 11.2465 14.8545 11.2924 14.8894 11.3536C14.9243 11.4149 14.933 11.4868 14.9137 11.5541C14.9025 11.59 14.6445 12.4514 13.1696 13.022C12.8318 13.145 12.4729 13.2058 12.1116 13.2015" fill="black"/>
<path d="M10.6109 23.2043C10.0915 23.2027 9.57791 23.1008 9.10048 22.9046C6.3208 21.7865 6.98255 18.7233 6.99003 18.6927C7.00836 18.6257 7.0529 18.5681 7.1144 18.5319C7.1759 18.4956 7.2496 18.4834 7.32017 18.498C7.39074 18.5126 7.45275 18.5527 7.49327 18.61C7.5338 18.6674 7.54972 18.7375 7.53773 18.8058C7.44733 19.2931 7.44733 19.7918 7.53773 20.2791C7.61283 20.7524 7.81652 21.1983 8.12829 21.572C8.44005 21.9456 8.84888 22.2338 9.31359 22.4075C9.83987 22.6275 10.4179 22.7081 10.9877 22.6409C11.5574 22.5737 12.098 22.3611 12.5531 22.0253C13.3905 21.4205 13.8616 20.4963 13.7737 19.6708C13.7696 19.6355 13.7727 19.5997 13.7829 19.5655C13.7932 19.5313 13.8103 19.4993 13.8334 19.4715C13.8565 19.4438 13.8851 19.4205 13.9175 19.4032C13.9499 19.3861 13.9855 19.3751 14.0224 19.3711C14.0592 19.3671 14.0965 19.3701 14.1321 19.3799C14.1677 19.3898 14.201 19.4062 14.23 19.4284C14.2589 19.4506 14.2831 19.478 14.301 19.5091C14.319 19.5402 14.3304 19.5744 14.3345 19.6098C14.456 20.6381 13.9027 21.7274 12.8933 22.4559C12.2378 22.9377 11.4363 23.2004 10.6109 23.2043Z" fill="black"/>
<path d="M17.5011 14.3787C16.9668 14.3777 16.4396 14.2624 15.9575 14.0414C15.4754 13.8204 15.0506 13.4992 14.7139 13.101C14.6747 13.0429 14.6604 12.9724 14.674 12.9043C14.6875 12.8364 14.7279 12.776 14.7866 12.7358C14.8453 12.6955 14.918 12.6786 14.9894 12.6884C15.0608 12.6983 15.1255 12.7342 15.17 12.7888C15.2242 12.8587 16.4337 14.4164 18.7834 13.6107C19.1366 13.5041 19.4621 13.3267 19.7386 13.0904C20.0151 12.854 20.2362 12.564 20.3873 12.2396C20.7985 11.3423 20.6527 10.1956 20.3275 9.47065C20.3107 9.43794 20.301 9.40229 20.2991 9.36589C20.2971 9.32949 20.3028 9.29308 20.3159 9.25886C20.329 9.22465 20.3493 9.19335 20.3754 9.16686C20.4014 9.14038 20.4329 9.11926 20.4677 9.10478C20.5026 9.0903 20.5401 9.08277 20.5781 9.08264C20.6161 9.08252 20.6537 9.0898 20.6886 9.10403C20.7236 9.11828 20.7552 9.13919 20.7814 9.1655C20.8077 9.19181 20.8282 9.22297 20.8415 9.2571C21.1892 10.0288 21.4117 11.3298 20.9014 12.455C20.7212 12.8478 20.456 13.1994 20.1234 13.4862C19.7908 13.773 19.3983 13.9886 18.9722 14.1186C18.501 14.2858 18.0034 14.3738 17.5011 14.3787Z" fill="black"/>
<path d="M17.8667 7.95064C17.7977 7.95018 17.7312 7.92546 17.6799 7.88114C17.6286 7.83684 17.5959 7.77601 17.5882 7.71017C17.4629 6.63343 16.6311 5.3916 15.517 4.61996C15.0152 4.25853 14.4386 4.00442 13.8259 3.87473C13.2133 3.74503 12.5789 3.74275 11.9653 3.86804C8.88089 4.49792 7.76116 6.49346 7.74995 6.5132C7.73409 6.54628 7.71139 6.57593 7.68325 6.60035C7.6551 6.62476 7.6221 6.64344 7.58621 6.65526C7.55033 6.66708 7.51232 6.67178 7.47449 6.66909C7.43666 6.66639 7.39979 6.65636 7.36611 6.63959C7.33244 6.62281 7.30266 6.59966 7.27858 6.57151C7.2545 6.54337 7.23662 6.51084 7.22602 6.47587C7.21541 6.4409 7.21231 6.40423 7.2169 6.36809C7.22149 6.33193 7.23367 6.29706 7.2527 6.26555C7.30131 6.17403 8.4902 4.02596 11.8475 3.34044C12.5378 3.19879 13.2516 3.20078 13.941 3.34627C14.6304 3.49176 15.2793 3.77737 15.8441 4.18388C17.0797 5.03988 18.005 6.43245 18.1452 7.65095C18.1531 7.72176 18.1317 7.79273 18.0855 7.84849C18.0393 7.90423 17.9721 7.94028 17.8985 7.94884H17.8667" fill="black"/>
<path d="M12.9357 7.16463C12.8617 7.16464 12.7906 7.13652 12.7381 7.08643C12.6856 7.03634 12.6558 6.96833 12.6553 6.89725C12.6553 6.79675 12.6553 4.45128 13.3918 3.44813L13.4386 3.38532C14.091 2.49881 14.8312 1.49387 14.3938 0.54814C14.3779 0.515725 14.3689 0.480591 14.3673 0.444795C14.3658 0.409 14.3717 0.373264 14.3847 0.339683C14.3977 0.306102 14.4175 0.275351 14.4431 0.249232C14.4686 0.223115 14.4993 0.202155 14.5334 0.187582C14.5675 0.173009 14.6043 0.165115 14.6416 0.164366C14.6789 0.163616 14.716 0.170024 14.7507 0.183214C14.7854 0.196405 14.817 0.216112 14.8437 0.241181C14.8703 0.266249 14.8915 0.296177 14.906 0.329206C15.4668 1.55488 14.5994 2.74287 13.8965 3.69757L13.8498 3.75858C13.3227 4.4764 13.2124 6.27095 13.2161 6.89546C13.2161 6.96684 13.1866 7.03531 13.134 7.0858C13.0814 7.13628 13.0101 7.16463 12.9357 7.16463Z" fill="black"/>
</svg>
