<svg width="24" height="24" viewBox="0 0 24 24" fill="none" xmlns="http://www.w3.org/2000/svg">
<g clip-path="url(#clip0_48_1721)">
<path d="M20.2977 5.79229C19.583 4.34515 17.1944 3.32859 15.6865 6.34434C14.1786 9.36009 14.2769 15.0664 8.0971 17.0228C1.84406 18.9987 1.27415 19.4221 1.1205 21.0122C0.941842 22.9774 8.03637 25.3 13.2693 23.1222C18.5022 20.9443 20.2369 18.0983 21.1052 15.7382C22.924 10.7947 20.2905 5.79229 20.2905 5.79229" fill="#FECB70"/>
<path d="M17.1558 5.29918C17.1558 5.29918 16.9771 4.44698 16.1535 3.34466C15.3299 2.24234 14.9708 3.01772 14.4134 3.57692C13.429 4.55954 12.4874 3.34108 13.1485 2.43886C13.8095 1.53663 16.3179 1.0489 17.5363 0.541506C18.7548 0.0341167 19.3819 1.02746 18.46 1.5152C17.5381 2.00293 17.3076 2.66218 18.2617 3.99855C19.2157 5.33491 17.1558 5.29918 17.1558 5.29918Z" fill="#FECB70"/>
<path d="M15.899 6.18167C15.4023 5.52421 14.5358 5.47598 13.7944 5.7261C13.3033 5.90193 12.8517 6.17267 12.4652 6.52291C12.2185 6.74779 12.0033 7.00501 11.8256 7.28757C11.3294 8.08871 10.8918 8.92462 10.516 9.78879C10.516 9.78879 10.4946 9.70839 10.4928 9.71375C9.97827 10.6553 9.60846 11.034 9.2958 11.4896C8.75983 12.2614 7.98088 12.5723 7.26267 13.1654C6.65183 13.6433 6.00959 14.0796 5.3403 14.4714C4.73644 14.8502 4.02715 15.2164 3.45545 15.6363C3.37326 15.6952 3.2768 15.7649 3.1964 15.8399C2.21378 16.3563 1.7189 16.9601 1.83502 17.673C1.73498 18.0446 2.01368 18.3715 2.371 18.6878C2.65507 18.9397 3.4072 18.8771 3.73951 18.5502C3.7941 18.491 3.83466 18.4203 3.85817 18.3433C3.88168 18.2663 3.88753 18.1849 3.87529 18.1053V18.0928L3.92532 18.0678C4.95261 18.4644 6.42655 17.757 7.53066 17.1066C7.97373 17.1001 8.40921 16.9906 8.8027 16.7868C10.1534 16.1669 11.5219 15.0163 12.4831 13.889C13.4871 12.7116 14.3107 11.6486 14.6395 10.1229C14.6568 10.0115 14.6292 9.89771 14.5626 9.80666C14.5805 9.76914 14.6019 9.73162 14.6198 9.6941C15.0396 8.82225 15.0843 7.8432 15.5345 6.98743C15.6292 6.80877 15.5131 6.5783 15.3219 6.39607C15.656 6.60867 16.2545 6.66405 15.8954 6.18703" fill="#F7AE2D"/>
<path d="M5.05857 23.6992C5.03776 23.7009 5.01685 23.7009 4.99604 23.6992C3.33452 23.3044 1.72481 22.7952 1.18527 21.734C0.93157 21.2355 0.938713 20.662 1.20492 20.0153C1.72481 18.7647 3.12907 18.3323 5.07109 17.7284C6.43068 17.3068 8.12256 16.7815 9.90557 15.8221C11.6189 14.9003 13.8361 12.8939 14.7061 8.56862C15.2653 5.76904 15.9049 5.35276 16.1533 5.31525C16.2197 5.30406 16.2879 5.31831 16.3443 5.35516C16.4008 5.39201 16.4412 5.44875 16.4577 5.51409C16.4741 5.57944 16.4653 5.64858 16.4331 5.70774C16.4009 5.76691 16.3475 5.81175 16.2837 5.83335C16.2337 5.86551 15.7173 6.24427 15.2314 8.67403C14.3274 13.203 11.9744 15.3183 10.1611 16.2938C8.34768 17.2693 6.61291 17.8124 5.2301 18.2412C3.42564 18.8004 2.12322 19.2042 1.6998 20.2207C1.49256 20.7192 1.48182 21.1337 1.66227 21.491C2.10356 22.3539 3.6579 22.8256 5.11933 23.1722C5.1904 23.1802 5.25537 23.2162 5.29993 23.2721C5.34449 23.3281 5.36499 23.3994 5.35694 23.4705C5.34888 23.5416 5.31292 23.6066 5.25696 23.6511C5.20101 23.6957 5.12964 23.7162 5.05857 23.7081V23.6992Z" fill="black"/>
<path d="M11.4279 23.8868C11.3569 23.8922 11.2865 23.8692 11.2324 23.8228C11.1783 23.7764 11.1449 23.7104 11.1394 23.6393C11.134 23.5683 11.157 23.4979 11.2034 23.4438C11.2498 23.3897 11.3158 23.3563 11.3869 23.3508C13.439 22.9421 15.3807 22.101 17.0825 20.8835C20.6896 18.2448 22.1689 14.3321 21.4846 9.25287C21.4752 9.1818 21.4943 9.10987 21.5379 9.05291C21.5814 8.99595 21.6458 8.95863 21.7169 8.94915C21.788 8.93967 21.8599 8.95882 21.9168 9.00238C21.9738 9.04594 22.0111 9.11033 22.0206 9.18141C22.9139 15.7775 19.9928 19.4293 17.388 21.3302C15.6266 22.6003 13.61 23.4721 11.478 23.885H11.4369" fill="black"/>
<path d="M4.27025 15.3897C4.2112 15.3898 4.15379 15.3703 4.10692 15.3344C4.06006 15.2985 4.02635 15.2481 4.01107 15.1911C3.99579 15.134 3.9998 15.0735 4.02243 15.019C4.04507 14.9645 4.08508 14.9189 4.13625 14.8895C4.16305 14.8734 6.85901 13.3048 8.06674 12.2703C10.2106 10.4248 10.8163 9.10629 11.2987 8.04685C11.7114 7.14462 12.0687 6.36567 13.2353 5.69213C13.2969 5.65659 13.3701 5.64698 13.4388 5.66541C13.5075 5.68384 13.566 5.72879 13.6016 5.79039C13.6371 5.85199 13.6467 5.92518 13.6283 5.99387C13.6099 6.06255 13.5649 6.1211 13.5033 6.15664C12.4832 6.74442 12.1919 7.38403 11.7864 8.27017C11.2808 9.37607 10.6519 10.7553 8.4169 12.6777C7.17701 13.7496 4.52214 15.2879 4.40958 15.3575C4.36911 15.3819 4.32282 15.3948 4.27559 15.3951" fill="black"/>
<path d="M7.65275 21.725C7.08854 21.732 6.52497 21.6847 5.96981 21.5838C5.90039 21.5684 5.83992 21.5261 5.80172 21.4661C5.76353 21.4061 5.75073 21.3334 5.76613 21.264C5.78153 21.1946 5.82386 21.1341 5.88383 21.0959C5.94381 21.0578 6.0165 21.0449 6.08592 21.0603C6.14309 21.0729 11.6654 22.2306 15.9997 17.3978C19.5121 13.4817 18.9922 9.28854 18.7135 7.03566C18.6813 6.76946 18.651 6.53005 18.6331 6.32102C18.6267 6.24995 18.6488 6.17925 18.6946 6.12447C18.7403 6.06969 18.8059 6.03531 18.877 6.02892C18.9481 6.02252 19.0187 6.04462 19.0735 6.09036C19.1283 6.13609 19.1627 6.20171 19.1691 6.27279C19.187 6.47467 19.2155 6.70693 19.2477 6.96956C19.5371 9.30641 20.0749 13.6585 16.3999 17.7552C13.3484 21.1497 9.72699 21.725 7.64562 21.725" fill="black"/>
<path d="M16.9856 4.88466C16.9302 4.88476 16.8762 4.86761 16.8311 4.83559C16.7859 4.80357 16.7519 4.75827 16.7337 4.706C16.5425 4.17002 16.1226 3.34284 15.7903 3.2142C15.7688 3.20308 15.7449 3.19727 15.7207 3.19727C15.6964 3.19727 15.6725 3.20308 15.651 3.2142C15.4253 3.34517 15.2081 3.49017 15.0007 3.64834C14.4307 4.06283 13.8394 4.4934 13.2927 4.18432C13.0975 4.05782 12.9389 3.88239 12.8326 3.67551C12.7264 3.46862 12.6762 3.2375 12.687 3.00517C12.6978 2.62106 12.8764 1.89749 13.9519 1.35437C15.3812 0.639735 18.1808 -0.196388 18.6989 0.0412283C18.949 0.157356 19.1831 0.562912 18.8668 1.84032L18.8293 1.98682L18.6846 2.03148C18.5506 2.07257 18.1486 2.24409 18.0146 2.47098C17.9974 2.50172 17.9743 2.52875 17.9466 2.55055C17.9189 2.57234 17.8872 2.58848 17.8532 2.59802C17.8193 2.60755 17.7838 2.61031 17.7488 2.60614C17.7139 2.60197 17.68 2.59095 17.6493 2.57371C17.6186 2.55647 17.5915 2.53334 17.5697 2.50564C17.5479 2.47795 17.5318 2.44623 17.5223 2.41231C17.5127 2.37838 17.5099 2.34291 17.5141 2.30791C17.5183 2.27292 17.5293 2.23909 17.5465 2.20836C17.7359 1.86712 18.1504 1.67238 18.3773 1.57233C18.4756 1.12211 18.5077 0.66117 18.4524 0.523603C18.0432 0.473578 15.6939 1.07745 14.1931 1.83317C13.5803 2.14225 13.2355 2.56388 13.223 3.01946C13.2141 3.15541 13.2405 3.29135 13.2997 3.41407C13.3588 3.53679 13.4488 3.64211 13.5607 3.71981C13.8055 3.86095 14.2539 3.54115 14.6862 3.21956C14.9143 3.04802 15.153 2.89108 15.4009 2.74969C15.4895 2.7001 15.5882 2.67099 15.6896 2.66449C15.791 2.658 15.8926 2.67429 15.9869 2.71217C16.6676 2.9748 17.1535 4.26829 17.2375 4.52556C17.2609 4.59261 17.2567 4.6662 17.2259 4.73018C17.1951 4.79417 17.1401 4.8433 17.0731 4.86679C17.0445 4.87744 17.0143 4.88289 16.9838 4.88287" fill="black"/>
</g>
<defs>
<clipPath id="clip0_48_1721">
<rect width="24" height="24" fill="white"/>
</clipPath>
</defs>
</svg>
