<svg width="24" height="25" viewBox="0 0 24 25" fill="none" xmlns="http://www.w3.org/2000/svg">
<path d="M13.6886 0.58921C9.90035 -0.177398 5.87903 2.73213 3.4604 7.89888C2.61726 9.66205 2.08637 11.5581 1.89132 13.5027C1.51474 17.8715 3.8975 22.6281 8.31558 23.9035C8.48594 23.9528 8.66302 23.9842 8.83113 24.0335C10.2546 24.4437 15.3317 25.9164 19.8148 19.407C23.8809 13.514 21.2269 1.25047 13.6886 0.578005" fill="#43A686"/>
<path d="M19.7257 13.6484C19.5172 13.2001 19.0532 13.2001 18.6856 12.9939C18.425 12.8245 18.1523 12.6747 17.8697 12.5456C17.5939 12.4335 17.3115 12.3371 17.0381 12.2183C16.503 11.9533 15.9438 11.7401 15.3681 11.5817H15.3502C15.7634 11.4733 16.1847 11.3984 16.6099 11.3576C17.4034 11.2701 18.1947 11.2432 18.9882 11.1827C19.2123 11.1648 19.5127 11.0931 19.4813 10.8084C19.4557 10.7053 19.4084 10.6089 19.3428 10.5254C19.2771 10.4419 19.1944 10.3734 19.1003 10.3242C18.9263 10.2368 18.7345 10.1908 18.5399 10.1897C18.3783 10.1548 18.2206 10.1037 18.0692 10.0373C17.8573 9.96846 17.6418 9.91159 17.4236 9.86693C16.9977 9.77278 16.5696 9.70329 16.1414 9.64277C15.7133 9.58225 15.33 9.52845 14.9243 9.51052C15.3053 9.01962 15.6595 8.50631 16.0697 8.04904C16.7422 7.30036 17.502 6.63462 18.1409 5.85905C18.2193 5.7649 18.1274 5.6192 18.0736 5.54075C18.0016 5.43427 17.9078 5.34426 17.7985 5.27664C17.6891 5.20903 17.5667 5.16535 17.4393 5.14848C17.2788 5.15163 17.1208 5.18828 16.9753 5.25607C16.5046 5.41074 16.0406 5.53402 15.5788 5.72007C15.2295 5.87412 14.8681 5.99932 14.4984 6.09441C14.5566 5.85008 14.6194 5.608 14.6912 5.36815C14.8111 4.97803 14.9563 4.59615 15.126 4.22496C15.2852 3.8708 15.4488 3.5525 15.3031 3.1692C15.2222 3.01543 15.1005 2.88686 14.9515 2.79752C14.8025 2.70818 14.6318 2.66151 14.458 2.6626C14.189 2.6626 14.0097 2.90469 13.8506 3.08402C13.6399 3.30817 13.3731 3.46732 13.1422 3.66682C13.0248 3.77121 12.9154 3.88436 12.815 4.00529C12.7791 3.89994 12.7455 3.78114 12.7029 3.68699C12.4631 3.08178 12.1403 2.43397 11.4409 2.30172C11.4091 2.29248 11.3758 2.28962 11.3429 2.29331C11.31 2.29699 11.2782 2.30715 11.2492 2.32319C11.2203 2.33923 11.1948 2.36085 11.1742 2.38678C11.1536 2.41272 11.1384 2.44247 11.1293 2.47432C11.1024 2.6245 11.1159 2.77692 11.0912 2.92262C11.0614 3.0869 11.0449 3.25331 11.0419 3.42025C11.0419 3.77217 11.0935 4.11961 11.1002 4.46929C11.1002 4.78087 11.145 5.0902 11.145 5.39953C11.147 5.52315 11.1342 5.64656 11.1069 5.76714C11.0755 5.73352 11.0419 5.70214 11.0105 5.66628C10.764 5.38608 10.5062 5.11934 10.2574 4.84139C10.0086 4.56343 9.74634 4.30118 9.50425 4.02098C9.30836 3.73872 9.05565 3.5005 8.7623 3.32162C8.56281 3.22523 8.16831 3.15799 8.21314 3.50094C8.26469 3.91787 8.55609 4.3079 8.71075 4.69793C8.86542 5.08796 8.99991 5.51161 9.14337 5.91733C9.30028 6.36564 9.46391 6.79601 9.66116 7.21966C9.7441 7.40123 9.84049 7.57159 9.92567 7.75091C9.95705 7.81367 10.0131 7.92799 9.98843 7.94369C10.0153 7.92799 9.73962 7.89437 9.70824 7.8854C9.50674 7.84016 9.31007 7.77561 9.12096 7.69263C8.71748 7.52452 8.35211 7.28691 7.9576 7.10086C7.69982 6.97982 7.06098 6.74446 7.04529 7.2376C7.06271 7.41664 7.12944 7.58734 7.23806 7.73074C7.34789 7.90782 7.43979 8.09387 7.5429 8.27319C7.80005 8.71871 8.09238 9.14296 8.41711 9.54191C8.5516 9.70554 8.69954 9.85796 8.84524 10.0126C8.65695 9.96331 8.46867 9.91624 8.27814 9.87141C7.86336 9.79398 7.45771 9.67379 7.0677 9.51277C6.73956 9.37882 6.40062 9.27309 6.05453 9.19671C5.9021 9.15636 5.67347 9.12273 5.56363 9.2774C5.52807 9.34955 5.51462 9.4306 5.52499 9.51036C5.53536 9.59013 5.56907 9.66505 5.6219 9.72571C5.86451 10.0542 6.14266 10.3549 6.45127 10.6223C6.77181 10.9361 7.09908 11.2253 7.40617 11.5571C7.71923 11.882 8.0492 12.1903 8.3947 12.4806C8.57402 12.6352 8.76231 12.7854 8.93939 12.9423L8.96854 12.9737C8.82508 12.9737 8.65023 12.9423 8.60764 12.9401C8.15933 12.9222 7.72223 12.9692 7.2784 12.9401C6.29661 12.893 5.35965 12.624 4.39802 12.4581C4.17387 12.42 4.02368 12.3999 3.84884 12.3707C3.76939 12.3467 3.68552 12.3411 3.60358 12.3543C3.52163 12.3675 3.44377 12.3992 3.37588 12.4469C3.03517 12.7765 3.72779 13.2315 3.94074 13.4086C4.08196 13.5274 4.19628 13.6776 4.33301 13.8008C4.52675 13.9686 4.73792 14.1152 4.9629 14.2379L6.10384 14.8992C6.30109 15.0135 6.46248 15.1682 6.66647 15.2735C6.87045 15.3789 7.11478 15.4484 7.31652 15.5515C7.5601 15.6653 7.81007 15.7648 8.06519 15.8496C7.87381 15.903 7.68714 15.9719 7.50704 16.0558C7.09012 16.2508 6.66199 16.4279 6.24954 16.6386C5.87072 16.8314 5.55017 17.1407 5.14669 17.2775C4.93599 17.3492 4.71184 17.3963 4.5101 17.4882C4.34023 17.5899 4.16431 17.6813 3.98333 17.7616C3.77935 17.8244 3.96988 18.1293 4.04161 18.21C4.1144 18.2986 4.20616 18.3698 4.31014 18.4183C4.41411 18.4668 4.52763 18.4914 4.64234 18.4901C5.72817 18.3654 6.8018 18.151 7.85224 17.8491C8.26423 17.7365 8.68372 17.6533 9.10751 17.6003C8.70716 17.8642 8.35151 18.1903 8.05398 18.5664C7.89707 18.7905 7.75585 19.0281 7.58774 19.2388C7.41962 19.4495 7.26944 19.6176 7.13943 19.8239C7.00942 20.0301 6.93769 20.2924 6.79423 20.4963C6.6844 20.6555 6.58801 20.7541 6.60594 20.9603C6.6306 21.2293 7.08115 21.5252 7.33444 21.4714C7.67494 21.3574 7.99559 21.191 8.28485 20.9783C8.66592 20.7541 9.04474 20.53 9.43252 20.3215C9.69254 20.178 9.95258 20.0323 10.2058 19.8732C10.2165 19.9662 10.2337 20.0583 10.2574 20.1489C10.3336 20.4403 10.4143 20.7339 10.495 21.0253C10.5505 21.3378 10.6762 21.6337 10.8626 21.8906C10.9881 22.0318 11.4678 22.4241 11.6516 22.1439C11.7727 21.9623 11.7502 21.6844 11.7906 21.4714C11.8475 21.1912 11.9224 20.9149 12.0147 20.6443C12.1044 20.3618 12.1873 20.0727 12.2658 19.7858C12.333 19.8866 12.4003 19.9875 12.472 20.0861C12.7882 20.5173 13.1447 20.9173 13.5368 21.2809C13.7609 21.4871 14.3953 22.0721 14.6575 21.635C14.81 21.3952 14.5791 20.9962 14.4715 20.7788C14.1778 20.1892 13.8214 19.6132 13.4807 19.055C13.5794 19.1245 13.678 19.1917 13.7833 19.2523C14.2217 19.4945 14.644 19.7648 15.0476 20.0615C15.3525 20.302 15.6697 20.5265 15.998 20.7339C16.2759 20.9043 16.7892 21.2629 17.1187 21.0634C17.251 20.985 17.2241 20.8393 17.1725 20.7272C16.9403 20.2599 16.6577 19.8195 16.3297 19.4137C16.0196 18.9635 15.6828 18.5324 15.321 18.1225C14.7697 17.5461 14.1883 16.9991 13.5793 16.484C13.6399 16.484 13.6981 16.5019 13.7497 16.5041C14.0075 16.5041 14.2675 16.5041 14.5253 16.5041C15.0703 16.5002 15.6145 16.5482 16.1504 16.6476C16.6704 16.7373 17.1905 16.8224 17.7195 16.9076C17.9929 16.9524 18.6519 17.1071 18.8402 16.8068C19.1249 16.3584 18.3382 15.9482 18.0512 15.7913C17.639 15.5449 17.2395 15.2778 16.8542 14.9911C16.4291 14.6918 15.9791 14.4293 15.5093 14.2066L15.4174 14.164H15.5048C15.6039 14.1472 15.6976 14.1072 15.7783 14.0474C16.1618 13.9756 16.5516 13.9441 16.9417 13.9533C17.4146 13.969 17.8898 13.9891 18.3628 14.0205C18.7618 14.0452 19.2885 14.1416 19.6584 13.96C19.7884 13.8972 19.7571 13.7358 19.7077 13.6327" fill="#004C34"/>
<path d="M13.918 6.29622C13.584 5.20459 12.9138 5.04096 12.3848 5.82774C12.3688 5.83992 12.3538 5.85342 12.34 5.86809C11.5084 6.85212 10.9502 8.2912 10.5467 9.75717C10.0559 11.5654 9.71114 13.4102 9.51565 15.2736C9.37443 16.7037 9.23545 18.9497 9.93033 20.0996C10.3921 20.864 10.9592 20.5704 11.3985 19.8979C12.804 17.7528 13.4294 14.2739 13.8463 11.4563C14.0705 9.87596 14.3775 7.81823 13.9113 6.3007" fill="#A6DFCB"/>
<path d="M8.99509 24.1343C8.96637 24.1338 8.9378 24.13 8.90991 24.1231C8.8337 24.103 1.13624 21.9869 1.60024 14.2379C1.72801 12.0816 2.40943 6.73324 5.93538 3.6556L5.9847 3.61077C6.01414 3.57736 6.04986 3.55007 6.08984 3.53047C6.12982 3.51087 6.17327 3.49934 6.21771 3.49653C6.26215 3.49372 6.30671 3.49969 6.34884 3.5141C6.39097 3.52851 6.42985 3.55107 6.46326 3.58051C6.49667 3.60994 6.52397 3.64567 6.54357 3.68566C6.56317 3.72564 6.5747 3.76909 6.57751 3.81353C6.58032 3.85797 6.57435 3.90252 6.55994 3.94466C6.54553 3.98679 6.52296 4.02567 6.49352 4.05908C6.45662 4.09842 6.41772 4.13583 6.37697 4.17116C5.2562 5.1395 2.64256 8.06696 2.27046 14.285C1.84008 21.4804 8.78662 23.4036 9.0825 23.4753C9.16155 23.4963 9.23027 23.5453 9.27578 23.6132C9.32129 23.6812 9.34048 23.7634 9.32976 23.8444C9.31905 23.9255 9.27915 23.9999 9.21755 24.0536C9.15595 24.1074 9.07686 24.1369 8.99509 24.1366" fill="black"/>
<path d="M18.1227 21.8121C18.0711 21.8122 18.0201 21.8003 17.9738 21.7774C17.9275 21.7544 17.8872 21.7211 17.856 21.6799C17.8023 21.6092 17.7786 21.5202 17.7899 21.4321C17.8012 21.3441 17.8467 21.264 17.9165 21.2092C18.605 20.6194 19.2018 19.9304 19.6873 19.1649C20.8786 17.3157 21.5436 15.1769 21.6106 12.9782C21.7742 8.80447 20.445 6.05634 19.304 4.48501C18.6228 3.50939 17.756 2.67761 16.7531 2.03725C16.678 1.99287 16.623 1.921 16.5999 1.83683C16.5768 1.75267 16.5873 1.66281 16.6292 1.58625C16.6711 1.5097 16.7412 1.45244 16.8245 1.42659C16.9079 1.40073 16.998 1.40831 17.0759 1.44772C17.3001 1.57325 22.6126 4.58588 22.283 12.9984C22.0589 18.795 18.4724 21.6171 18.329 21.7404C18.2699 21.7862 18.1974 21.8113 18.1227 21.8121Z" fill="black"/>
</svg>
