<svg width="24" height="24" viewBox="0 0 24 24" fill="none" xmlns="http://www.w3.org/2000/svg">
<path d="M21.2325 15.5121C21.1894 15.3078 20.7251 14.9493 20.5302 15.1735C20.3044 15.4545 20.0943 15.7469 19.9008 16.0492C19.8916 15.5184 19.8419 14.9889 19.752 14.4651C19.7817 14.3322 19.7877 14.1908 19.81 14.0665C19.8805 13.6562 19.9153 13.2411 19.9142 12.8252C19.9086 12.0149 19.7793 11.2097 19.5303 10.4354C19.2193 9.40406 18.7774 7.97562 17.5959 7.57851C17.5171 7.55279 17.3459 7.52852 17.2983 7.62136C17.1272 7.93276 17.2105 8.29273 17.2805 8.64698C15.6437 6.84287 13.635 6.71144 12.0027 6.93286C11.77 6.96329 11.5394 7.00718 11.3123 7.06427C11.2615 7.01316 11.2022 6.97066 11.1367 6.93857C11.2572 6.99713 11.1783 6.91571 11.1173 6.81715C11.0884 6.7714 11.055 6.72836 11.0176 6.68858C11.0325 6.6643 11.0459 6.6386 11.0593 6.61288C11.223 6.3029 10.6308 6.00436 10.3793 6.08007C9.29006 6.40861 8.48507 7.31997 7.81549 8.1556C7.48531 8.54607 7.24022 8.99624 7.09478 9.4794C6.94934 9.96257 6.90651 10.4689 6.96884 10.9682C6.65786 11.5096 6.34241 12.1224 6.02398 12.8152C5.96585 12.6678 5.87467 12.5344 5.75691 12.4246C5.63914 12.3148 5.49767 12.231 5.3425 12.1795C5.28848 12.1542 5.22773 12.145 5.16823 12.1535C5.10873 12.1618 5.05328 12.1874 5.00919 12.2266C4.84552 12.4195 4.79344 12.7252 4.74582 12.9666C4.69077 13.2523 4.60595 13.5266 4.54644 13.8108C4.41996 14.4065 4.46311 15.0535 4.47353 15.655C4.46527 16.1386 4.56682 16.6182 4.77112 17.0605C4.97497 17.4891 5.11781 17.9619 5.39755 18.3462C5.43451 18.3926 5.47987 18.4323 5.53147 18.4633C6.25462 21.0759 8.29462 23.2243 11.281 23.7486C13.5427 24.1485 16.9234 23.7 18.8116 20.8573C19.2044 20.266 19.6642 19.7631 19.9603 19.1217C20.2698 18.4504 20.6239 17.809 20.8694 17.1134C21.0703 16.542 21.3709 16.1135 21.2399 15.5093" fill="#EB3F50"/>
<path d="M12.3529 8.34981C12.3529 8.34981 9.89181 8.55122 8.11965 11.8895C6.34749 15.2278 7.17033 21.0058 11.0479 22.2257C14.9255 23.4456 17.8926 20.6901 18.269 17.2047C18.522 14.8864 18.1634 11.9838 17.2527 10.621C15.305 7.70701 12.3529 8.35695 12.3529 8.35695" fill="#FFE7EA"/>
<path d="M7.32054 8.52412C7.53183 8.14272 8.63887 5.75294 11.2651 3.93452C13.8913 2.11611 14.9017 1.78329 14.5535 2.63893C14.2053 3.49456 12.8914 5.30011 12.4897 6.09148C12.0879 6.88284 12.817 6.81712 12.817 6.81712C12.817 6.81712 12.9658 6.63714 13.2009 6.34574C13.7842 5.60438 14.8511 4.14164 15.0847 3.1103C15.4106 1.67472 15.4284 0.25342 16.0251 1.28619C16.6218 2.31895 16.7244 6.37145 16.4953 7.05281C16.2661 7.73418 17.1292 8.26985 17.1292 8.26985C17.1292 8.26985 17.3375 6.91426 17.394 6.11148C17.4506 5.30869 18.9355 7.17424 19.1305 8.227C19.3254 9.27977 18.9564 10.1197 18.7004 9.69829C18.4445 9.2769 17.7601 9.63974 17.1887 9.32548C16.6173 9.01121 16.4447 8.30557 15.8406 7.83418C15.2365 7.36279 14.5609 7.35279 13.5714 7.54135C12.5819 7.7299 12.4689 7.57991 12.1415 7.34422C11.8141 7.10853 10.3396 7.30994 9.26233 8.0713C6.46496 10.0454 7.31905 8.52126 7.31905 8.52126" fill="#43A686"/>
<path d="M21.2406 14.0365C21.1659 13.6299 21.0609 13.2289 20.9267 12.8366C20.882 12.6852 20.3315 12.2753 20.2898 12.5866C20.2065 13.1466 19.8286 13.648 19.6411 14.1794C19.5057 14.5622 19.3435 15.0765 19.403 15.495C19.3775 15.6302 19.3645 15.7675 19.3643 15.905C19.3643 15.9835 19.3643 16.062 19.3643 16.1421C19.3643 16.1606 19.3643 16.1792 19.3643 16.1978C19.3788 16.2655 19.4185 16.3259 19.4759 16.3678C19.5339 16.6063 19.9967 16.8705 20.1976 16.6878C20.7466 16.1849 21.138 15.7549 21.1841 15.0207C21.2049 14.6864 21.2897 14.3708 21.2451 14.0351" fill="#43A686"/>
<path d="M6.42745 11.8953C6.42745 11.8953 6.6194 13.0937 5.32636 14.3336C4.82194 14.8193 4.80706 15.8563 4.58237 15.9492C4.35769 16.0421 4.26841 15.2492 4.26841 15.2492C4.30316 14.9543 4.31657 14.6575 4.30858 14.3608C4.30858 13.7037 3.94254 12.6809 4.47821 11.1767C5.01387 9.67259 5.68198 8.96696 6.07183 8.78126C6.46167 8.59557 6.36942 9.02695 6.18491 9.76264C6.04608 10.3192 6.02634 10.897 6.12688 11.4611C6.14023 11.5492 6.17386 11.6334 6.22534 11.7075C6.27681 11.7816 6.34484 11.8438 6.42446 11.8895" fill="#43A686"/>
<path d="M10.7231 23.8942C10.701 23.8943 10.679 23.8914 10.6577 23.8857C10.5758 23.8614 8.66374 23.2929 7.59836 22.1815C6.53298 21.0702 5.54944 19.4346 5.35005 18.8246C5.26346 18.5945 5.16412 18.3689 5.05246 18.149C4.76677 17.539 4.37692 16.7034 4.26979 15.8635C4.25044 15.7078 4.22366 15.5307 4.19539 15.3364C4.00493 14.0237 3.71775 12.0381 4.36055 10.8311C4.37294 10.8046 4.3908 10.7808 4.41305 10.7612C4.4353 10.7415 4.46147 10.7265 4.48998 10.7168C4.51849 10.7072 4.54875 10.7031 4.57891 10.7051C4.60907 10.707 4.63851 10.7148 4.66545 10.7279C4.69239 10.7412 4.71625 10.7594 4.73561 10.7817C4.75496 10.804 4.76939 10.8299 4.77803 10.8576C4.78667 10.8854 4.78934 10.9146 4.78587 10.9435C4.78239 10.9723 4.77286 11.0002 4.75784 11.0253C4.17902 12.1124 4.46025 14.0179 4.6388 15.2778C4.66707 15.4735 4.69237 15.6535 4.7132 15.8121C4.81141 16.5934 5.17149 17.3619 5.45718 17.979C5.57411 18.2143 5.67743 18.4556 5.76668 18.7018C5.93333 19.2104 6.87521 20.8102 7.91827 21.8972C8.90033 22.9214 10.7603 23.4685 10.7782 23.4814C10.8287 23.4968 10.8719 23.5288 10.9001 23.5719C10.9282 23.6151 10.9394 23.6664 10.9317 23.7168C10.924 23.7671 10.8979 23.8132 10.858 23.8468C10.8182 23.8803 10.7672 23.8992 10.7142 23.8999" fill="black"/>
<path d="M6.27606 12.208C6.22897 12.208 6.18256 12.1973 6.14065 12.1766C6.04542 12.1309 5.75527 11.9909 5.78652 10.3424C5.78883 10.286 5.81383 10.2326 5.85627 10.1935C5.89872 10.1543 5.95531 10.1325 6.01418 10.1325C6.04349 10.1331 6.0724 10.1391 6.09926 10.1504C6.12611 10.1617 6.15039 10.178 6.1707 10.1983C6.19102 10.2186 6.20696 10.2425 6.21764 10.2687C6.22831 10.2949 6.2335 10.323 6.23291 10.3511C6.21532 10.801 6.24674 11.2516 6.32665 11.6952C6.49204 11.513 6.62615 11.3066 6.72393 11.0839C6.69864 10.7267 6.62722 8.79834 7.91431 7.16991C9.30109 5.41006 10.8634 3.98304 12.4317 3.04313C14.3319 1.90037 14.6146 2.18606 14.7217 2.28891C14.8705 2.43175 14.8437 2.64174 14.6533 2.91599C14.6056 2.98599 14.5372 3.08313 14.4554 3.20169C12.8945 5.4272 12.4823 6.21999 12.4377 6.47425L12.5418 6.52282C12.7516 6.62424 12.7948 6.64567 13.1683 6.15142C13.7322 5.40577 14.4687 4.32873 14.4762 4.31873C14.5087 4.27119 14.5596 4.238 14.6177 4.22648C14.6757 4.21496 14.7362 4.22606 14.7857 4.25731C14.8352 4.28856 14.8698 4.33743 14.8818 4.39315C14.8938 4.44886 14.8822 4.50688 14.8497 4.55443C14.8497 4.56442 14.1057 5.65005 13.5298 6.40283C13.0239 7.07277 12.7859 7.11705 12.3395 6.90707C12.2904 6.88279 12.2383 6.85708 12.1773 6.83279C12.1347 6.81627 12.0967 6.79052 12.0663 6.75756C12.0358 6.7246 12.0137 6.68533 12.0017 6.64281C11.8871 6.27856 12.4317 5.31578 14.0849 2.96171L14.2813 2.67602C14.2961 2.6546 14.308 2.6346 14.3185 2.61888C14.0968 2.66316 13.5908 2.84886 12.6683 3.40167C11.1402 4.31444 9.61951 5.70575 8.26844 7.42417C6.98433 9.05402 7.1733 11.0724 7.17628 11.0924V11.1439L7.15842 11.191C7.148 11.2167 6.89951 11.8266 6.4814 12.1352C6.42311 12.1813 6.35014 12.2071 6.27457 12.208H6.27606Z" fill="black"/>
<path d="M19.6145 14.2779C19.5636 14.2782 19.5142 14.2616 19.4746 14.2308C19.4385 14.2027 19.4122 14.1646 19.3994 14.1216C19.3866 14.0787 19.388 14.033 19.4032 13.9909C19.5792 13.4417 19.6768 12.8724 19.6934 12.2981C19.738 11.2981 18.503 7.36282 17.948 6.46718C17.8768 6.35013 17.7972 6.23798 17.7099 6.13149C17.6787 6.48004 17.5998 7.29997 17.5061 7.74707C17.4123 8.19417 17.198 8.31845 17.0359 8.34416C16.8737 8.36987 16.6133 8.30845 16.3633 7.87562C16.033 7.30425 16.1803 6.60002 16.4466 5.32585C16.6951 4.14167 16.0092 1.74617 15.6952 1.33335C15.6252 1.52822 15.5847 1.73169 15.5747 1.93758C15.573 1.96574 15.5655 1.99329 15.5527 2.01866C15.5398 2.04404 15.5219 2.06673 15.4999 2.08545C15.478 2.10416 15.4524 2.11852 15.4246 2.12771C15.3968 2.1369 15.3674 2.14074 15.3381 2.13899C15.2789 2.13496 15.2237 2.10873 15.1844 2.06597C15.1452 2.0232 15.125 1.96735 15.1283 1.91044C15.1506 1.58475 15.231 1.01766 15.5375 0.887673C15.6038 0.861063 15.6767 0.853379 15.7474 0.86554C15.8181 0.877703 15.8837 0.909194 15.9362 0.956239C16.4183 1.33192 17.1594 4.10596 16.8841 5.41013C16.6192 6.67288 16.5121 7.24854 16.7546 7.6685C16.801 7.76778 16.8739 7.85353 16.9659 7.91706C17.0226 7.84178 17.058 7.75368 17.0686 7.66136C17.1817 7.12141 17.2769 5.94722 17.2784 5.93152C17.2822 5.85536 17.3108 5.78227 17.3602 5.72256C17.4096 5.66286 17.4773 5.61953 17.5537 5.59868C17.7888 5.55012 18.0134 5.74153 18.3319 6.2472C18.9494 7.23569 20.1874 11.2125 20.1383 12.3167C20.1234 12.6614 20.0856 13.0049 20.0252 13.3452C20.0842 13.2435 20.1226 13.132 20.1383 13.0166C20.145 12.9598 20.1749 12.9079 20.2215 12.8722C20.2681 12.8365 20.3276 12.8202 20.3867 12.8267C20.4459 12.8331 20.5 12.8618 20.5372 12.9065C20.5743 12.9513 20.5914 13.0084 20.5846 13.0651C20.4998 13.7794 19.7663 14.2265 19.735 14.2451C19.6998 14.2663 19.6591 14.2776 19.6175 14.2779" fill="black"/>
<path d="M14.7378 23.8257C14.6786 23.8257 14.6219 23.8031 14.58 23.7629C14.5382 23.7227 14.5146 23.6682 14.5146 23.6114C14.5146 23.5545 14.5382 23.5001 14.58 23.4599C14.6219 23.4197 14.6786 23.3971 14.7378 23.3971C14.7661 23.3971 17.4638 23.3271 19.1913 20.136C20.9188 16.9449 20.9769 15.5364 20.9932 14.9436V14.8879C20.995 14.831 21.0202 14.7773 21.0634 14.7383C21.1065 14.6993 21.1639 14.6784 21.2231 14.68C21.2823 14.6817 21.3384 14.7059 21.379 14.7473C21.4196 14.7887 21.4414 14.8439 21.4396 14.9007V14.9564C21.4203 15.5778 21.3757 17.0348 19.5886 20.3345C17.7287 23.7628 14.8628 23.8242 14.7423 23.8257H14.7378Z" fill="black"/>
<path d="M13.0297 22.5373C11.6709 22.5221 10.3472 22.1215 9.22494 21.3859C6.57637 19.6818 6.65374 14.5122 8.00035 11.8625C9.34696 9.2127 10.762 8.80988 10.8275 8.79416C10.8834 8.78117 10.9424 8.7894 10.9921 8.81715C11.0419 8.8449 11.0785 8.89001 11.0945 8.94308C11.1104 8.99615 11.1044 9.05307 11.0776 9.10198C11.0509 9.15089 11.0055 9.18799 10.951 9.20556C10.9302 9.2127 9.64306 9.61548 8.40656 12.051C7.75484 13.3366 7.42748 15.2022 7.55545 16.9206C7.70424 18.8647 8.38424 20.3246 9.4898 21.0303C11.817 22.5244 14.6977 22.4586 16.3344 20.8874C16.3767 20.8495 16.4327 20.829 16.4905 20.8299C16.5484 20.8309 16.6035 20.8533 16.6444 20.8926C16.6853 20.9319 16.7087 20.9849 16.7098 21.0403C16.7108 21.0958 16.6893 21.1496 16.6499 21.1902C15.7154 22.0887 14.4179 22.5401 13.0401 22.5401" fill="black"/>
<path d="M18.3477 14.8264C18.2885 14.8264 18.2317 14.8039 18.1899 14.7637C18.148 14.7235 18.1245 14.669 18.1245 14.6122C18.1245 10.7054 15.4268 9.20125 15.4001 9.1841C15.3519 9.15464 15.3174 9.10859 15.3035 9.05543C15.2897 9.00228 15.2976 8.94604 15.3256 8.8983C15.3536 8.85056 15.3996 8.81493 15.4541 8.79875C15.5087 8.78256 15.5676 8.78704 15.6188 8.81127C15.7393 8.87556 18.5709 10.454 18.5709 14.6094C18.5709 14.6661 18.5474 14.7206 18.5055 14.7609C18.4637 14.801 18.4069 14.8236 18.3477 14.8236" fill="black"/>
<path d="M9.5238 17.8347C9.43478 17.8015 9.33569 17.8034 9.24815 17.8401C9.16062 17.8767 9.09175 17.9452 9.05658 18.0304C9.00121 18.1482 8.98395 18.2793 9.00703 18.4066C9.03011 18.534 9.09247 18.6516 9.18603 18.7446C9.24002 18.8282 9.3128 18.8992 9.39904 18.9523C9.48529 19.0055 9.58282 19.0395 9.6845 19.0518C9.76297 19.0615 9.84258 19.0453 9.9102 19.0059C9.97782 18.9664 10.0295 18.906 10.0565 18.8346C10.2395 18.4061 9.9315 18.0018 9.5238 17.8347Z" fill="black"/>
<path d="M10.2324 15.2407C10.2036 15.1378 10.1377 15.0481 10.0464 14.9876C9.95509 14.9271 9.84434 14.8999 9.73397 14.9106C9.65019 14.9196 9.57079 14.9513 9.50496 15.0019C9.43913 15.0524 9.38955 15.1199 9.36198 15.1963C9.33935 15.2967 9.34185 15.4009 9.36926 15.5003C9.39668 15.5995 9.44824 15.6912 9.5197 15.7677C9.57629 15.8322 9.65607 15.8739 9.74318 15.8844C9.83029 15.895 9.91837 15.8738 9.9899 15.8248C10.0923 15.7516 10.1661 15.6475 10.1997 15.5291C10.2446 15.4374 10.2561 15.3338 10.2324 15.2349" fill="black"/>
<path d="M12.6489 16.8277C12.6267 16.7185 12.576 16.6163 12.5016 16.5309C12.4272 16.4455 12.3314 16.3795 12.2233 16.3392C12.1548 16.3131 12.0793 16.3092 12.0083 16.3283C11.9373 16.3474 11.8749 16.3884 11.8305 16.4449C11.7892 16.4992 11.7571 16.5595 11.7353 16.6234C11.7011 16.6479 11.6731 16.6796 11.6535 16.7159C11.6339 16.7523 11.6232 16.7925 11.6222 16.8334C11.6188 16.9803 11.6645 17.1243 11.7526 17.2443C11.8407 17.3644 11.9666 17.4541 12.1117 17.5005C12.179 17.526 12.2531 17.5297 12.3228 17.5109C12.3924 17.4919 12.4536 17.4517 12.4971 17.3962C12.6215 17.2312 12.6747 17.0266 12.6459 16.8248" fill="black"/>
<path d="M12.9563 20.1017C12.8865 20.0317 12.8007 19.9782 12.7057 19.9456C12.6107 19.9128 12.509 19.9017 12.4088 19.9131C12.3377 19.9207 12.2717 19.9525 12.2231 20.0029C12.1745 20.0533 12.1463 20.1187 12.1439 20.1874C12.134 20.3401 12.1792 20.4914 12.2719 20.6159C12.2816 20.6934 12.3181 20.7655 12.3756 20.8206C12.4331 20.8758 12.5081 20.9108 12.5888 20.9201C12.6554 20.9297 12.7234 20.9223 12.786 20.8987C12.8487 20.8752 12.9038 20.8362 12.9459 20.7859C12.9961 20.7241 13.0339 20.6538 13.0575 20.5788C13.083 20.4977 13.0871 20.4117 13.0695 20.3287C13.0518 20.2457 13.0129 20.1682 12.9563 20.1031" fill="black"/>
<path d="M12.6973 12.9937C12.6729 12.9457 12.638 12.9034 12.595 12.8695C12.5519 12.8357 12.5018 12.8111 12.448 12.7976C12.3942 12.784 12.338 12.7817 12.2832 12.7909C12.2284 12.8002 12.1763 12.8206 12.1304 12.8509C12.0632 12.9074 12.012 12.9794 11.9816 13.06C11.9511 13.1408 11.9425 13.2275 11.9563 13.3122C11.918 13.4573 11.9305 13.6104 11.9921 13.7479C12.0575 13.9021 12.3417 14.0022 12.4771 13.8664C12.6211 13.7331 12.7179 13.5597 12.7539 13.3708C12.7809 13.2421 12.7609 13.1084 12.6973 12.9923" fill="black"/>
<path d="M15.3779 17.4634C15.3199 17.4225 15.2498 17.4004 15.1778 17.4004C15.1058 17.4004 15.0357 17.4225 14.9777 17.4634C14.8491 17.553 14.76 17.6854 14.7277 17.8348C14.6803 17.922 14.6564 18.0192 14.6583 18.1175C14.6601 18.2158 14.6875 18.3121 14.7381 18.3976C14.765 18.4503 14.8053 18.4958 14.8551 18.5298C14.905 18.5639 14.963 18.5854 15.0237 18.5925C15.0844 18.5996 15.1461 18.592 15.203 18.5704C15.2599 18.5489 15.3103 18.514 15.3497 18.4691C15.4707 18.3401 15.5579 18.1854 15.6041 18.0177C15.6237 17.9138 15.6129 17.8068 15.573 17.7085C15.5331 17.6101 15.4655 17.5243 15.3779 17.4606" fill="black"/>
<path d="M15.6262 14.4822C15.5985 14.432 15.5572 14.39 15.5066 14.3606C15.4561 14.3312 15.3982 14.3154 15.339 14.3151C15.2876 14.3154 15.2373 14.3298 15.1941 14.3567C15.1509 14.3835 15.1165 14.4216 15.095 14.4665C15.0485 14.4956 15.0113 14.5367 14.9879 14.585C14.9728 14.5926 14.9584 14.6011 14.9447 14.6107C14.8613 14.6747 14.8018 14.7629 14.7751 14.8622C14.7633 14.9063 14.7615 14.9524 14.7697 14.9973C14.7779 15.0423 14.796 15.085 14.8227 15.1227C14.8495 15.1604 14.8843 15.1922 14.9248 15.216C14.9653 15.2397 15.0107 15.255 15.0578 15.2607C15.1619 15.2808 15.2699 15.2721 15.369 15.2354C15.4681 15.1987 15.5542 15.1357 15.6173 15.0536C15.6762 14.9694 15.7084 14.8706 15.71 14.7691C15.7115 14.6678 15.6825 14.568 15.6262 14.4822Z" fill="black"/>
<path d="M10.3959 11.9781C10.331 11.9329 10.2505 11.9136 10.1711 11.9243C10.0917 11.9349 10.0198 11.9747 9.97033 12.0352C9.90979 12.1155 9.8709 12.2089 9.85714 12.3071C9.84338 12.4053 9.85517 12.5052 9.89147 12.5981C9.88926 12.6856 9.91243 12.772 9.95841 12.8478C10.0044 12.9234 10.0714 12.9853 10.1519 13.0266C10.2166 13.0698 10.296 13.088 10.3741 13.0774C10.4522 13.0668 10.5232 13.0283 10.573 12.9695C10.6354 12.8956 10.6807 12.8099 10.7059 12.7178C10.731 12.6258 10.7353 12.5296 10.7185 12.4359C10.7017 12.3421 10.6643 12.253 10.6086 12.1742C10.553 12.0955 10.4804 12.0291 10.3959 11.9795" fill="black"/>
<path d="M15.0518 11.2268C15.0086 11.1987 14.9591 11.1809 14.9073 11.175C14.8556 11.169 14.8031 11.175 14.7542 11.1924C14.6783 11.2128 14.6083 11.2498 14.5499 11.3006C14.4915 11.3515 14.4463 11.4147 14.4179 11.4853C14.3954 11.5418 14.3853 11.6021 14.3882 11.6624C14.3883 11.7688 14.4226 11.8726 14.4864 11.9596C14.51 11.9897 14.5402 12.0146 14.5749 12.0323C14.6096 12.0501 14.648 12.0604 14.6872 12.0624C14.721 12.0725 14.7561 12.0777 14.7914 12.0781C14.8374 12.0778 14.8826 12.0675 14.9237 12.0476C14.9647 12.0278 15.0004 11.9991 15.028 11.9638C15.1413 11.8287 15.1994 11.6586 15.1917 11.4853C15.1925 11.4347 15.1805 11.3848 15.1567 11.3397C15.1328 11.2947 15.0978 11.2559 15.0548 11.2268" fill="black"/>
<path d="M13.4359 10.2397C13.4252 10.1971 13.406 10.1568 13.3794 10.1212C13.3762 10.0716 13.3631 10.0231 13.3407 9.97834C13.3206 9.93926 13.292 9.9048 13.2567 9.87744C13.2214 9.84998 13.1804 9.83021 13.1364 9.81955C13.0924 9.8088 13.0465 9.80736 13.0019 9.81523C12.9573 9.8232 12.915 9.84038 12.8779 9.86544C12.8339 9.90384 12.7995 9.95126 12.7773 10.0042C12.7552 10.0572 12.7458 10.1143 12.75 10.1712V10.1797C12.7219 10.2197 12.703 10.265 12.6945 10.3125C12.6861 10.36 12.6882 10.4088 12.7009 10.4555C12.715 10.514 12.7459 10.5677 12.79 10.6103C12.8342 10.653 12.8899 10.683 12.9508 10.6968C13.0086 10.7119 13.0698 10.7098 13.1263 10.6909C13.1829 10.6721 13.2322 10.6373 13.2678 10.5911L13.2856 10.5554C13.3244 10.5274 13.3598 10.4953 13.3913 10.4597C13.4138 10.4278 13.4293 10.3919 13.437 10.3541C13.4447 10.3163 13.4443 10.2774 13.4359 10.2397Z" fill="black"/>
<path d="M17.6079 15.7192C17.5956 15.6673 17.5702 15.619 17.534 15.5787C17.4978 15.5384 17.4518 15.5072 17.4001 15.4879C17.3484 15.4686 17.2926 15.4617 17.2375 15.4679C17.1824 15.4741 17.1297 15.4932 17.0841 15.5235C16.9927 15.5966 16.9298 15.6973 16.9056 15.8092C16.8493 15.8458 16.8028 15.8948 16.7702 15.952C16.7434 15.9921 16.7266 16.0376 16.7209 16.0848C16.7153 16.1321 16.7209 16.18 16.7374 16.2249C16.7536 16.2736 16.7814 16.3182 16.8186 16.3548C16.8558 16.3915 16.9013 16.4194 16.9517 16.4362C17.0647 16.4766 17.189 16.4762 17.3017 16.4352C17.4144 16.3942 17.5079 16.3155 17.5647 16.2134C17.6413 16.0602 17.6566 15.8854 17.6079 15.722" fill="black"/>
<path d="M17.1839 12.3095C17.0827 12.1667 16.7791 12.1453 16.6854 12.3095C16.6433 12.3872 16.6156 12.4713 16.6036 12.5581C16.5749 12.5834 16.5481 12.6107 16.5232 12.6395C16.4808 12.6887 16.4512 12.747 16.4369 12.8095C16.4247 12.8541 16.4225 12.9008 16.4307 12.9464C16.4388 12.9919 16.4571 13.0352 16.4841 13.0734C16.5112 13.1116 16.5465 13.1438 16.5877 13.1677C16.6288 13.1917 16.6748 13.2068 16.7226 13.2123C16.837 13.2253 16.9527 13.2015 17.0515 13.1446C17.1503 13.0877 17.2267 13.001 17.2687 12.898C17.3099 12.8012 17.3237 12.6957 17.3088 12.5921C17.2939 12.4886 17.2508 12.3905 17.1839 12.3081" fill="black"/>
<path d="M16.8987 19.1703C16.7394 19.1494 16.5773 19.1671 16.427 19.2218C16.2603 19.2847 16.0535 19.4203 16.0639 19.6146C16.0629 19.6949 16.0926 19.7727 16.1475 19.8333C16.2024 19.8939 16.2785 19.933 16.3615 19.9431C16.4116 19.9437 16.4615 19.9384 16.5103 19.9275C16.5644 19.9651 16.6295 19.9854 16.6963 19.9854C16.7631 19.9854 16.8282 19.9651 16.8823 19.9275C17.0171 19.8414 17.1189 19.7155 17.1724 19.5689C17.185 19.5247 17.1874 19.4784 17.1795 19.4332C17.1716 19.388 17.1536 19.345 17.1267 19.3071C17.0999 19.2692 17.0648 19.2374 17.0239 19.2138C16.9829 19.1902 16.9372 19.1753 16.8897 19.1703" fill="black"/>
</svg>
