<svg width="24" height="24" viewBox="0 0 24 24" fill="none" xmlns="http://www.w3.org/2000/svg">
<path d="M13.0053 23.8013C6.06317 23.8013 2.77078 19.4498 1.90436 15.6357C0.548415 9.66586 1.03794 6.90782 4.09207 4.99413C9.70213 1.4679 22.9085 2.64395 22.9085 9.20464C22.9085 20.6944 17.71 23.8013 13.0053 23.8013Z" fill="#E55C2E"/>
<path d="M11.1228 2.33889C11.1228 2.33889 8.2766 0.779726 6.1842 1.98626C4.0918 3.19281 4.78277 3.2195 4.78277 3.2195C5.52512 3.10498 6.28445 3.10498 7.02679 3.2195C8.06216 3.42344 4.59649 3.66551 3.86653 5.56777C3.13658 7.47002 3.60444 5.97186 5.31562 5.58874C7.0268 5.20561 9.94662 4.79772 9.94662 4.79772C9.94662 4.79772 11.4109 4.83774 11.2289 7.75213C11.1834 8.51455 14.4412 6.72285 13.3755 5.40194C12.2318 3.98573 13.1589 4.10391 13.1589 4.10391C13.1589 4.10391 17.5321 3.87899 18.4722 6.34926C18.6476 6.81243 19.2845 6.08622 18.8252 4.42031C18.366 2.75442 15.1538 3.00982 15.0217 2.53521C14.8744 1.99961 17.5235 2.41322 17.5235 2.41322C17.5235 2.41322 15.9812 0.810223 13.7372 1.35726C11.8787 1.809 11.1379 2.33889 11.1379 2.33889" fill="#43A686"/>
<path d="M12.4874 23.9918H12.4723C6.20591 23.6717 3.41821 20.3436 2.18356 17.6065C1.36143 15.7354 0.96049 13.7415 1.00307 11.7358C1.00864 11.6605 1.04719 11.59 1.11061 11.5392C1.17403 11.4883 1.25738 11.4611 1.34314 11.4632C1.42914 11.4672 1.5099 11.5009 1.56789 11.5568C1.62588 11.6129 1.65642 11.6868 1.65288 11.7625C1.62192 13.6925 2.00934 15.6099 2.79439 17.4121C4.49257 21.1556 7.76113 23.1779 12.5113 23.422C12.5974 23.4242 12.6791 23.4565 12.7382 23.5117C12.7973 23.5669 12.829 23.6406 12.8264 23.7164C12.8238 23.7922 12.7871 23.864 12.7244 23.9161C12.6616 23.9681 12.5779 23.9961 12.4918 23.9937" fill="black"/>
<path d="M19.4665 21.2357C19.3871 21.2354 19.3105 21.2103 19.2499 21.1652C19.1854 21.1149 19.146 21.0443 19.1403 20.9687C19.1347 20.8929 19.1631 20.8184 19.2196 20.7611C19.2564 20.723 22.9365 16.9242 22.5315 10.07C22.3864 7.63973 20.7532 4.7444 18.3662 4.3003C18.3224 4.29447 18.2804 4.28084 18.2429 4.26023C18.2053 4.23963 18.1729 4.21249 18.1477 4.18047C18.1225 4.14846 18.105 4.11225 18.0962 4.07406C18.0875 4.03588 18.0877 3.99652 18.0969 3.95841C18.106 3.9203 18.124 3.88424 18.1495 3.85245C18.1751 3.82064 18.2078 3.79378 18.2456 3.7735C18.2834 3.75322 18.3255 3.73995 18.3693 3.7345C18.4131 3.72905 18.4578 3.73154 18.5005 3.74182C20.6405 4.13828 22.9755 6.60092 23.1791 10.0319C23.5993 17.1339 19.8672 20.9708 19.7134 21.129C19.6831 21.1599 19.6455 21.1848 19.6033 21.202C19.5611 21.219 19.5152 21.228 19.4687 21.2281" fill="black"/>
<path d="M11.6056 8.61373C11.5412 8.61501 11.4771 8.60487 11.4172 8.58391C11.3573 8.56295 11.3028 8.53161 11.2569 8.49174C11.0186 8.28208 11.1009 7.93326 11.1832 7.68929C11.532 6.65619 10.4208 5.54495 10.0677 5.22474C9.57816 5.28001 8.03377 5.4649 6.77096 5.66504C5.32404 5.89567 3.89662 6.88111 3.88145 6.89064C3.84829 6.91594 3.80965 6.93505 3.76786 6.94685C3.72607 6.95864 3.68199 6.96286 3.6383 6.95925C3.5946 6.95564 3.55219 6.94429 3.51362 6.92586C3.47505 6.90742 3.44113 6.88232 3.41389 6.85203C3.38665 6.82175 3.36667 6.78692 3.35514 6.74966C3.34362 6.7124 3.3408 6.67346 3.34684 6.63522C3.35289 6.59696 3.36768 6.56018 3.39032 6.5271C3.41296 6.49402 3.44298 6.46531 3.47857 6.44272C3.54139 6.39887 5.05112 5.35817 6.65399 5.10847C8.18756 4.8645 10.1197 4.6472 10.1414 4.64529L10.2908 4.62814L10.4013 4.71772C10.4814 4.78062 12.3334 6.29785 11.8071 7.85893C11.7897 7.90657 11.7789 7.94661 11.7702 7.98092C12.1558 7.76172 12.9053 7.04884 13.0439 6.45606C13.2756 5.46681 12.7211 4.38416 12.7168 4.37464L12.472 3.93623L13.0157 3.97054C13.5204 4.00104 17.9586 4.31745 18.4677 5.87661C18.4969 5.97233 18.5361 6.06548 18.5846 6.1549C18.7578 5.74208 18.7662 5.2897 18.6085 4.87212C18.2511 3.99913 16.3753 3.13759 15.0561 3.00798C14.97 2.99939 14.8912 2.96103 14.8372 2.90132C14.7832 2.84163 14.7583 2.76549 14.7681 2.68966C14.7778 2.61384 14.8214 2.54453 14.8893 2.49699C14.9571 2.44945 15.0436 2.42756 15.1298 2.43616C16.5182 2.56959 18.7536 3.48641 19.2258 4.66626C19.5225 5.39438 19.3514 6.27689 19.0092 6.61236C18.9473 6.68119 18.8649 6.73364 18.7713 6.76391C18.6776 6.79418 18.5763 6.8011 18.4785 6.7839C18.1103 6.71147 17.9413 6.31501 17.846 6.02148C17.5839 5.22092 15.2099 4.73679 13.4793 4.57477C13.7297 5.2165 13.7945 5.90304 13.6677 6.57233C13.4771 7.39194 12.4331 8.41931 11.7941 8.58895C11.7294 8.60616 11.6623 8.61515 11.5948 8.61564" fill="black"/>
<path d="M3.59173 6.92685C3.57374 6.92867 3.55557 6.92867 3.53758 6.92685C3.49556 6.92084 3.4553 6.90758 3.41913 6.88782C3.38296 6.86806 3.35159 6.8422 3.32683 6.81173C3.30206 6.78125 3.28439 6.74677 3.27484 6.71026C3.26528 6.67376 3.26403 6.63594 3.27116 6.59901C3.28415 6.52467 3.62205 4.75393 4.69425 4.12112C5.26946 3.812 5.88852 3.57103 6.53539 3.40444C6.09642 3.32091 5.64224 3.32091 5.20327 3.40444C5.06248 3.42922 4.69208 3.49974 4.52313 3.25768C4.47508 3.1814 4.4571 3.09329 4.47199 3.00707C4.48688 2.92086 4.53381 2.84141 4.60544 2.78115C5.07764 2.26651 7.6769 0.997078 9.61767 1.59749C10.1879 1.78245 10.7345 2.01947 11.2487 2.30464C11.5866 1.83765 12.4508 1.01232 14.3548 0.955141C15.8233 0.911302 17.3569 2.06066 17.4219 2.11022C17.4871 2.16077 17.5268 2.23204 17.5323 2.30836C17.5378 2.38468 17.5086 2.45979 17.4511 2.51716C17.3937 2.57454 17.3127 2.60948 17.226 2.61431C17.1392 2.61914 17.0539 2.59345 16.9887 2.5429C16.9757 2.5429 15.5851 1.49075 14.3678 1.52696C12.219 1.59177 11.6862 2.764 11.6645 2.81356L11.5172 3.15474L11.1728 2.95079C10.6176 2.61967 10.02 2.34714 9.3924 2.13881C8.14476 1.7576 6.50073 2.32941 5.64731 2.77544C6.37181 2.72474 7.09526 2.88406 7.70722 3.22908L8.28122 3.61029L7.58592 3.74563C7.56859 3.74563 5.94406 4.07156 5.04082 4.60336C4.34768 5.01125 3.98162 6.25211 3.89931 6.70003C3.88431 6.76268 3.84584 6.81909 3.79007 6.86022C3.7343 6.90136 3.66446 6.92482 3.59173 6.92685Z" fill="black"/>
</svg>
