<svg width="24" height="24" viewBox="0 0 24 24" fill="none" xmlns="http://www.w3.org/2000/svg">
<path d="M12.5359 23.724C7.75754 23.2871 3.72093 21.0569 2.81759 16.2337C1.6412 9.95349 2.78575 6.55241 9.25703 4.89663C15.3347 3.34135 21.0619 5.55196 22.0949 9.88581C25.4648 24.0473 12.5382 23.724 12.5382 23.724" fill="#D31224"/>
<path d="M10.679 6.18971C10.6677 5.77894 10.5672 5.37497 10.3838 5.00369C10.2004 4.63241 9.93819 4.30202 9.61402 4.0337C8.06901 2.80388 7.75274 2.50462 9.36373 2.94151C11.0112 3.37838 10.5493 2.80607 11.2069 1.50853C11.6801 0.575799 11.8485 1.39714 12.5562 2.43909C13.3276 3.57279 13.8395 2.27745 14.6041 1.53693C14.8316 1.31849 15.2139 2.24249 15.2139 3.01577C15.2139 3.56843 15.8965 2.72306 16.9819 2.83228C17.8738 2.92403 15.8123 3.68857 15.8123 5.27444C15.8123 6.86031 10.6721 6.18752 10.6721 6.18752" fill="#D31224"/>
<path d="M12.9547 7.03071C9.95116 6.59382 9.20255 6.55888 6.9863 7.68603C4.77004 8.81318 3.46396 15.6591 6.25362 19.3835C9.04328 23.1078 14.7796 21.8038 17.1597 20.9956C19.5398 20.1873 22.5979 14.9732 20.7093 10.458C18.5545 5.30503 12.9547 7.03071 12.9547 7.03071Z" fill="#FCB8BF"/>
<path d="M7.72109 8.45717C7.66551 8.43789 7.6072 8.42684 7.54816 8.4244C7.41045 8.38398 7.26645 8.36697 7.12265 8.37416C6.98766 8.39242 6.86332 8.45471 6.77051 8.55056C6.6777 8.64643 6.62208 8.77002 6.61296 8.9006C6.58867 9.12562 6.60326 9.35295 6.65618 9.5734C6.67035 9.72929 6.71814 9.88068 6.79648 10.018C6.87482 10.1552 6.982 10.2753 7.11127 10.3707C7.20545 10.4248 7.30999 10.4601 7.41866 10.4748C7.52734 10.4894 7.63795 10.4831 7.744 10.456C7.85006 10.4289 7.94939 10.3817 8.03613 10.3171C8.12286 10.2526 8.19522 10.172 8.24897 10.0802C8.71771 9.61927 8.31043 8.66468 7.70517 8.45717" fill="#E12135"/>
<path d="M9.86262 7.75163C9.78824 7.6975 9.70183 7.66061 9.61015 7.64386C9.51846 7.6271 9.42396 7.63093 9.33407 7.65504C9.24418 7.67915 9.16131 7.7229 9.09195 7.78285C9.02258 7.84281 8.96861 7.91734 8.93423 8.00065C8.91567 8.04318 8.90047 8.087 8.88874 8.13171C8.85601 8.19349 8.83739 8.26125 8.83413 8.33049C8.80714 8.47458 8.79797 8.62123 8.80682 8.76738C8.77148 8.93369 8.77757 9.10566 8.82463 9.26928C8.87169 9.43289 8.95836 9.58351 9.07759 9.70888C9.16016 9.79057 9.26145 9.85259 9.3734 9.89013C9.44979 9.92795 9.53425 9.94821 9.62016 9.94926C9.70608 9.95041 9.79113 9.93237 9.86855 9.89656C9.94597 9.86075 10.0136 9.80824 10.0663 9.74305C10.119 9.67787 10.1552 9.60184 10.172 9.52099C10.2445 9.46174 10.3014 9.38689 10.3381 9.30255C10.5816 8.75645 10.3131 8.11205 9.86262 7.75381" fill="#E12135"/>
<path d="M7.45721 12.1204C7.45147 11.8634 7.36415 11.6142 7.20692 11.4061C7.20692 11.4061 7.20693 11.3908 7.191 11.3843C7.00454 11.087 6.72502 10.8538 6.39233 10.718C6.04647 10.6023 5.54815 10.7901 5.5618 11.2051C5.56724 11.3374 5.58863 11.4686 5.62552 11.5962C5.6708 12.0125 5.88195 12.396 6.21484 12.6665C6.33422 12.7532 6.48231 12.7956 6.63168 12.7855C6.78104 12.7755 6.92154 12.7138 7.02715 12.6119C7.14455 12.5856 7.24993 12.5235 7.32747 12.4349C7.405 12.3463 7.45052 12.236 7.45721 12.1204Z" fill="#E12135"/>
<path d="M9.88522 11.0675C9.81544 10.9546 9.72011 10.8583 9.60626 10.7858C9.49242 10.7132 9.363 10.6662 9.22762 10.6481C9.02679 10.6297 8.82581 10.6817 8.66185 10.7946C8.49789 10.9074 8.38201 11.0734 8.33565 11.2619C8.25096 11.6107 8.2902 11.9767 8.44714 12.3017C8.46079 12.3497 8.47446 12.3978 8.49267 12.4437C8.53165 12.5358 8.59617 12.6158 8.67924 12.6752C8.70199 12.7015 8.72248 12.7299 8.74523 12.7539C8.86156 12.8802 9.02191 12.9614 9.19618 12.9823C9.37045 13.0032 9.54668 12.9624 9.69182 12.8674C10.3153 12.4917 10.338 11.5786 9.88522 11.0675Z" fill="#E12135"/>
<path d="M12.5569 9.01416C12.4393 8.88677 12.2774 8.80495 12.1014 8.78404C11.9255 8.76314 11.7476 8.80456 11.6012 8.90057C11.4923 8.94772 11.3964 9.01881 11.3213 9.10808C11.3147 9.11523 11.3093 9.12334 11.3054 9.13211C11.0469 9.34673 10.8759 9.64243 10.823 9.96652C10.8038 10.0827 10.8111 10.2015 10.8445 10.3147C10.8779 10.4278 10.9366 10.5326 11.0164 10.6219C11.0859 10.7432 11.1907 10.8422 11.318 10.907C11.4454 10.9718 11.5897 10.9996 11.7332 10.9867C12.1883 10.9299 12.4772 10.5498 12.6434 10.1785C12.7119 10.0204 12.7407 9.84902 12.7275 9.67824C12.7503 9.56379 12.7471 9.44598 12.718 9.33288C12.689 9.21977 12.6348 9.11403 12.5592 9.02289" fill="#E12135"/>
<path d="M7.6278 13.9094C7.43518 13.8201 7.22454 13.7725 7.01067 13.7698C6.79681 13.7672 6.58494 13.8096 6.38999 13.894C6.27541 13.9454 6.18188 14.0318 6.1242 14.1398C6.06651 14.2478 6.04795 14.3712 6.07142 14.4904C6.10309 14.7274 6.22167 14.9458 6.4059 15.1064C6.44483 15.1711 6.49057 15.2319 6.54242 15.2877C6.60648 15.3569 6.67821 15.4191 6.75633 15.4734C6.82004 15.5171 7.14087 15.6918 6.89968 15.5521C7.15225 15.6874 7.55499 15.7377 7.74613 15.4712C7.86312 15.4258 7.96473 15.3503 8.03966 15.2527C8.38553 14.8159 8.00779 14.1999 7.6278 13.9028" fill="#E12135"/>
<path d="M12.6632 12.4917C12.6255 12.3446 12.5334 12.2157 12.4041 12.1288C12.2748 12.042 12.117 12.0033 11.9601 12.0198C11.1705 12.0964 10.6472 13.0596 10.8429 13.7674C10.8651 13.8552 10.9063 13.9374 10.9638 14.0088C11.0213 14.0802 11.0939 14.1392 11.1768 14.1819C11.2597 14.2246 11.351 14.2499 11.4448 14.2564C11.5386 14.263 11.6328 14.2504 11.7212 14.2196C11.8574 14.1761 11.9828 14.1062 12.0898 14.0142C12.2402 13.936 12.3653 13.8196 12.4516 13.6779C12.673 13.3254 12.7485 12.906 12.6632 12.5026" fill="#E12135"/>
<path d="M10.1107 14.3266C9.85138 14.1802 9.46911 14.1082 9.22109 14.3266C9.13091 14.4098 9.05421 14.5055 8.99354 14.6105C8.96946 14.6481 8.9489 14.6875 8.9321 14.7285C8.84872 14.9247 8.7951 15.1314 8.77284 15.3423C8.73735 15.5385 8.74513 15.7395 8.7957 15.9325C8.84626 16.1256 8.93848 16.3063 9.06637 16.4629C9.17982 16.5794 9.32162 16.667 9.47904 16.718C9.63647 16.7689 9.8046 16.7815 9.96835 16.7546C10.1321 16.7278 10.2863 16.6623 10.4172 16.5641C10.5481 16.4659 10.6516 16.3381 10.7183 16.192C10.9777 15.6023 10.7183 14.6521 10.1221 14.32" fill="#E12135"/>
<path d="M8.58162 17.684C8.40254 17.3625 8.11774 17.1068 7.77156 16.9567C7.40522 16.8125 6.87505 16.8431 6.63385 17.162C6.51966 17.2354 6.42389 17.3324 6.35345 17.4457C6.28302 17.5591 6.23969 17.686 6.22657 17.8173C6.22583 18.1559 6.3527 18.4833 6.5838 18.7392C7.01158 19.2809 7.78066 19.6632 8.42688 19.2131C8.92747 18.8637 8.85923 18.1384 8.58618 17.684" fill="#E12135"/>
<path d="M12.0053 18.9772C11.9615 18.7963 11.8722 18.6285 11.7453 18.4884C11.6184 18.3483 11.4577 18.2401 11.2772 18.1733C11.1735 18.1371 11.0659 18.1121 10.9564 18.0991C10.7543 18.0632 10.546 18.0806 10.3534 18.1493C10.1262 18.2286 9.93019 18.3734 9.79209 18.5638C9.654 18.7543 9.58064 18.981 9.58205 19.2131C9.59142 19.3693 9.63347 19.522 9.70571 19.6623C9.77795 19.8025 9.87889 19.9273 10.0025 20.0293C10.1261 20.1312 10.2698 20.2082 10.4251 20.2556C10.5804 20.3031 10.7441 20.32 10.9063 20.3053C11.5503 20.2463 12.1464 19.5953 12.0053 18.9663" fill="#E12135"/>
<path d="M13.0479 15.2048C12.7293 15.0169 12.2014 14.9863 11.9807 15.3468C11.8158 15.5987 11.7198 15.8866 11.7015 16.1836C11.6832 16.4806 11.7432 16.7774 11.876 17.0462C11.948 17.1758 12.0547 17.2845 12.1851 17.3613C12.3155 17.4381 12.4649 17.4802 12.6178 17.4831C12.7119 17.513 12.8122 17.5196 12.9097 17.5024C13.0071 17.4854 13.0985 17.4448 13.1753 17.3848C13.3267 17.2552 13.4486 17.0968 13.5332 16.9197C13.6178 16.7427 13.6633 16.5507 13.6668 16.3559C13.6725 16.1287 13.6189 15.9037 13.5108 15.7015C13.4027 15.4992 13.2435 15.3262 13.0479 15.1982" fill="#E12135"/>
<path d="M14.5477 19.2983C14.4653 19.1526 14.34 19.0333 14.1874 18.9557C14.0348 18.8779 13.8618 18.8452 13.6899 18.8614C13.5802 18.8746 13.4729 18.9025 13.3713 18.9444C13.2363 19.0005 13.1237 19.0971 13.0505 19.2196C12.9497 19.2841 12.8618 19.3655 12.7911 19.4599C12.4111 19.9798 12.6159 20.8055 12.9981 21.2664C13.1038 21.3872 13.2462 21.4731 13.4054 21.5123C13.5645 21.5515 13.7324 21.5419 13.8856 21.4849C14.0799 21.3846 14.2514 21.2481 14.3902 21.0834C14.5289 20.9188 14.6322 20.7293 14.6938 20.526C14.7555 20.3226 14.7743 20.1095 14.7492 19.8991C14.7241 19.6886 14.6556 19.4852 14.5477 19.3004" fill="#E12135"/>
<path d="M17.2985 15.943C17.2605 15.7953 17.1858 15.6584 17.0808 15.5443C16.9758 15.4302 16.8436 15.3421 16.6955 15.2877C16.6259 15.1529 16.5039 15.0496 16.3558 15.0002C16.2078 14.9507 16.0454 14.9591 15.9036 15.0234C15.2642 15.3817 14.6613 16.1964 14.6863 16.9304C14.6954 17.1919 14.8019 17.4415 14.9864 17.6339C15.171 17.8262 15.4214 17.9487 15.692 17.9789C16.2609 18.0467 16.7478 17.6644 17.0232 17.221C17.2816 16.8468 17.3802 16.3916 17.2985 15.9496" fill="#E12135"/>
<path d="M15.2053 12.1379C15.1297 12.1055 15.0479 12.0888 14.9652 12.0888C14.8825 12.0888 14.8007 12.1055 14.7252 12.1379C14.2692 12.3524 13.9206 12.7318 13.7559 13.193C13.7027 13.3501 13.6937 13.5178 13.7297 13.6793C13.7657 13.8408 13.8453 13.9904 13.9607 14.1129C14.0761 14.2354 14.2231 14.3265 14.3869 14.3771C14.5506 14.4277 14.7254 14.4359 14.8936 14.401C15.1958 14.34 15.473 14.1961 15.6916 13.9867C15.9101 13.7773 16.0606 13.5113 16.1246 13.2213C16.1533 13.0894 16.1511 12.9531 16.118 12.8221C16.0849 12.6911 16.0218 12.5689 15.9333 12.4643C15.8448 12.3596 15.7332 12.2752 15.6064 12.2174C15.4797 12.1594 15.3411 12.1292 15.2007 12.1291" fill="#E12135"/>
<path d="M15.0277 9.42046C14.9047 9.32718 14.7583 9.26668 14.6031 9.24504C14.448 9.2234 14.2897 9.2414 14.1441 9.29722C13.9985 9.35303 13.8708 9.44469 13.7739 9.56297C13.6769 9.68123 13.6142 9.82196 13.592 9.97096C13.3927 10.2426 13.2978 10.5723 13.3235 10.9037C13.3492 11.0845 13.4367 11.252 13.5721 11.38C13.7075 11.5081 13.8834 11.5894 14.0721 11.6114C14.4316 11.642 14.7115 11.4061 14.9208 11.1483C15.3076 10.6699 15.6285 9.87486 15.0277 9.42046Z" fill="#E12135"/>
<path d="M16.6228 7.5594C16.5688 7.45847 16.4929 7.36983 16.4002 7.29947C16.3075 7.22912 16.2002 7.17867 16.0854 7.15154C15.9707 7.12442 15.8512 7.12124 15.7351 7.14224C15.6189 7.16323 15.5089 7.20791 15.4123 7.27325C14.9003 7.61183 14.8798 8.5402 15.2575 8.97707C15.3396 9.07198 15.4435 9.1473 15.561 9.19712C15.6786 9.24694 15.8066 9.26989 15.935 9.26417C16.0633 9.25846 16.1885 9.22423 16.3008 9.16418C16.413 9.10412 16.5092 9.01989 16.5818 8.91809C16.6866 8.76729 16.7377 8.58796 16.7274 8.40695C16.7301 8.38711 16.7339 8.36742 16.7388 8.34797C16.7913 8.08001 16.7505 7.80292 16.6228 7.5594Z" fill="#E12135"/>
<path d="M18.4433 9.14961C18.2679 9.03686 18.0598 8.98036 17.8489 8.98821C17.6379 8.99605 17.435 9.06785 17.2692 9.1933C17.1678 9.27143 17.0816 9.36607 17.0144 9.4729C16.8446 9.60713 16.7111 9.77878 16.6253 9.97318C16.5547 10.1228 16.5219 10.2863 16.5294 10.4505C16.537 10.6147 16.5846 10.7747 16.6686 10.9179C16.7526 11.0611 16.8705 11.1832 17.0128 11.2745C17.1551 11.3658 17.3178 11.4235 17.4877 11.4432C18.2659 11.5263 18.8779 10.7879 18.9143 10.0977C18.9229 9.91462 18.8844 9.73241 18.8023 9.56713C18.7201 9.40179 18.5969 9.2584 18.4433 9.14961Z" fill="#E12135"/>
<path d="M20.1083 12.7714C19.9705 12.5121 19.7439 12.3062 19.4667 12.1882C19.3448 12.1423 19.2146 12.1202 19.0837 12.1232C18.9528 12.1263 18.8239 12.1542 18.7044 12.2057C18.3419 12.3898 18.0697 12.7038 17.9467 13.0794C17.7829 13.5162 17.8329 14.047 18.263 14.3245C18.3984 14.4111 18.5546 14.4627 18.7168 14.4745C18.879 14.4864 19.0416 14.4581 19.1891 14.3922C19.4661 14.2709 19.7024 14.078 19.8717 13.8352C19.9586 13.6971 20.0173 13.5444 20.0447 13.3852C20.118 13.3006 20.163 13.1967 20.1736 13.0871C20.1841 12.9775 20.1598 12.8674 20.1038 12.7714" fill="#E12135"/>
<path d="M18.0817 18.56C18.0361 18.524 17.9873 18.4919 17.936 18.4639C17.8812 18.3979 17.8121 18.3443 17.7335 18.3065C17.655 18.2688 17.5688 18.248 17.4809 18.2454C17.1184 18.2077 16.7524 18.2747 16.4297 18.4377C16.0669 18.6292 15.7876 18.9392 15.6424 19.3115C15.5975 19.462 15.603 19.6222 15.6581 19.7696C15.7132 19.917 15.8152 20.044 15.9496 20.1327C16.7278 20.6919 17.8086 20.2463 18.3024 19.5429C18.4026 19.3826 18.4348 19.1915 18.3925 19.009C18.3502 18.8265 18.2364 18.6665 18.0748 18.5622" fill="#E12135"/>
<path d="M20.0087 16.1048C20.0067 15.9883 19.9792 15.8736 19.9281 15.768C19.8771 15.6624 19.8035 15.5682 19.7121 15.4916C19.6207 15.4151 19.5137 15.3577 19.3978 15.3233C19.2819 15.289 19.1598 15.2784 19.0394 15.2921C18.7705 15.3218 18.5197 15.4371 18.3271 15.6196C18.1345 15.8022 18.0111 16.0414 17.9767 16.2992C17.9756 16.3558 17.9825 16.4125 17.9972 16.4674C17.9569 16.6061 17.9665 16.7538 18.0245 16.8868C18.0732 17.0624 18.1833 17.2166 18.3363 17.3236C18.5287 17.4584 18.7685 17.5153 19.0042 17.4822C19.2398 17.4491 19.4526 17.3287 19.5968 17.1467C19.6935 17.027 19.7703 16.8936 19.8244 16.7513C19.8494 16.7077 19.8767 16.664 19.8972 16.6181C19.9452 16.51 19.9773 16.396 19.9928 16.2795C19.9928 16.238 19.9928 16.2446 19.9928 16.2642C19.9928 16.238 20.0041 16.2118 20.0087 16.1855C20.011 16.158 20.011 16.1302 20.0087 16.1026" fill="#E12135"/>
<path d="M14.7754 3.50726C14.7549 3.18397 14.3203 2.85194 14.0018 3.02888C13.9632 3.04849 13.926 3.07038 13.8903 3.09441C13.5239 3.31285 12.9596 3.77594 12.632 3.53129C12.3043 3.28664 12.1337 2.81699 11.806 2.54612C11.7445 2.50045 11.6714 2.47146 11.5942 2.46217C11.517 2.45288 11.4387 2.46363 11.3673 2.49331C11.296 2.52298 11.2342 2.57049 11.1885 2.63089C11.1428 2.69127 11.1148 2.76233 11.1075 2.83665C11.0982 3.03883 11.115 3.24132 11.1575 3.43954C10.9757 3.37022 10.7852 3.32396 10.5909 3.30193C10.4828 3.29087 10.3737 3.31161 10.278 3.36139C10.1824 3.41118 10.1048 3.48767 10.0555 3.58073C10.0062 3.67379 9.9874 3.77905 10.0018 3.88257C10.0161 3.98607 10.0629 4.08296 10.1359 4.1604C10.4415 4.46215 10.8197 4.68719 11.2371 4.81571C11.323 4.84857 11.4161 4.86058 11.5079 4.85067L11.5648 4.86377C12.4758 5.00514 13.3976 5.07237 14.3203 5.06474C14.9461 5.03852 15.4581 4.75236 15.4399 4.09486C15.4399 3.78686 15.1304 3.43954 14.7709 3.51818" fill="#97000F"/>
<path d="M7.44314 22.6601C7.39702 22.66 7.35135 22.6511 7.30887 22.6339C3.61815 21.1266 1.51795 16.2663 2.20285 10.8141C2.84452 5.71353 8.5376 4.82448 8.59677 4.81574C8.68729 4.8027 8.7795 4.82473 8.85311 4.87696C8.92672 4.92919 8.97569 5.00736 8.98927 5.09426C9.00285 5.18115 8.97993 5.26968 8.92552 5.34034C8.87112 5.41101 8.7897 5.45803 8.69918 5.47107C8.48529 5.50383 3.4657 6.29895 2.88092 10.9015C2.23243 16.0654 4.16426 20.6461 7.57738 22.0419C7.6498 22.0716 7.70932 22.1243 7.74587 22.1912C7.78243 22.2581 7.79378 22.3351 7.77798 22.4091C7.76219 22.4831 7.72024 22.5496 7.65921 22.5973C7.59819 22.6452 7.52185 22.6712 7.44314 22.671" fill="black"/>
<path d="M14.9501 23.8069C14.8596 23.8141 14.7697 23.7866 14.7004 23.7302C14.6311 23.674 14.5879 23.5934 14.5803 23.5065C14.5728 23.4197 14.6015 23.3334 14.6602 23.2668C14.7189 23.2003 14.8027 23.1588 14.8932 23.1516C15.2391 23.097 23.3122 21.7099 22.236 12.7997C22.2306 12.7571 22.234 12.7138 22.2461 12.6725C22.2582 12.6312 22.2787 12.5926 22.3064 12.5589C22.3341 12.5251 22.3685 12.4971 22.4075 12.4761C22.4466 12.4552 22.4896 12.442 22.534 12.4371C22.6241 12.4278 22.7143 12.4528 22.7854 12.5068C22.8564 12.5607 22.9026 12.6392 22.914 12.7254C24.0722 22.2647 15.0957 23.7829 15.0047 23.7982H14.9501" fill="black"/>
<path d="M10.3247 5.00581C10.2525 5.0066 10.1821 4.98432 10.1245 4.94245C9.21432 4.30024 8.1039 3.43304 8.03564 2.95247C8.02269 2.87708 8.02965 2.79978 8.05589 2.72766C8.08212 2.65552 8.12681 2.59087 8.18582 2.53961C8.45205 2.32117 8.86844 2.43476 9.45777 2.59423C9.69223 2.66885 9.93388 2.7208 10.1791 2.74932C10.3338 2.74932 10.6342 2.08089 10.7753 1.79692C10.884 1.54878 11.007 1.30667 11.1439 1.0717C11.1892 0.981552 11.2599 0.905356 11.3479 0.851707C11.436 0.79806 11.5379 0.769091 11.6422 0.768066C12.0381 0.768066 12.277 1.19184 12.5774 1.72046C12.7064 1.98273 12.8734 2.22614 13.0734 2.4435C13.1416 2.49804 13.185 2.57595 13.1944 2.66069C13.2038 2.74544 13.1784 2.83035 13.1236 2.89741C13.0688 2.96449 12.989 3.00843 12.901 3.01993C12.8131 3.03143 12.7239 3.00958 12.6525 2.95902C12.3672 2.69432 12.1357 2.38098 11.9699 2.03502C11.8834 1.8843 11.756 1.66148 11.6558 1.52169C11.5671 1.68114 11.4806 1.86682 11.3896 2.06123C11.0847 2.71655 10.7684 3.40464 10.17 3.40464C9.85985 3.38123 9.55404 3.3203 9.25981 3.22333C9.16425 3.19712 9.03228 3.16435 8.92306 3.13596C9.42104 3.5984 9.95337 4.02548 10.5159 4.41383C10.574 4.4547 10.6171 4.51216 10.6391 4.578C10.6611 4.64385 10.6609 4.71469 10.6384 4.78038C10.6159 4.84607 10.5724 4.90326 10.514 4.94375C10.4556 4.98424 10.3854 5.00596 10.3133 5.00581" fill="black"/>
<path d="M20.7189 7.62054C20.6646 7.62065 20.611 7.60821 20.5626 7.58426C20.5143 7.56031 20.4727 7.52556 20.4413 7.48292C19.2468 5.87521 17.5333 5.43178 16.6141 5.19149C16.1249 5.0648 15.8791 5.00145 15.7813 4.77208C15.7578 4.7169 15.7478 4.65728 15.7522 4.59782C15.7565 4.53834 15.775 4.48063 15.8063 4.42913C15.9744 4.19795 16.16 3.97892 16.3615 3.77382C16.5003 3.62091 16.7119 3.38718 16.8689 3.19277C16.5731 3.24519 16.1863 3.33693 15.9838 3.38499C15.7837 3.44508 15.5779 3.48605 15.3694 3.50732C14.9803 3.50732 14.9144 3.11413 14.7824 2.52215C14.7505 2.36051 14.6982 2.10275 14.6459 1.93019C14.5563 2.0465 14.48 2.17173 14.4183 2.30371C14.402 2.34495 14.3773 2.38261 14.3455 2.41443C14.3137 2.44625 14.2755 2.47159 14.2333 2.48892C14.191 2.50624 14.1456 2.51521 14.0996 2.51527C14.0537 2.51533 14.0082 2.50649 13.9659 2.48928C13.9236 2.47208 13.8854 2.44685 13.8535 2.41511C13.8216 2.38337 13.7967 2.34578 13.7803 2.3046C13.7639 2.2634 13.7563 2.21945 13.7581 2.17539C13.7598 2.13133 13.7708 2.08804 13.7903 2.04814C13.8598 1.89636 13.9419 1.75025 14.036 1.61125C14.3933 1.09792 14.7323 1.13725 14.903 1.20714C15.217 1.33602 15.3148 1.74232 15.4468 2.39546C15.4718 2.52215 15.506 2.69035 15.5378 2.81268L15.8109 2.74715C16.9054 2.48502 17.3377 2.42604 17.5834 2.60953C17.6337 2.6465 17.6745 2.69412 17.7025 2.74867C17.7305 2.80323 17.7451 2.86326 17.745 2.92408C17.745 3.21024 17.4765 3.53353 16.8689 4.20414C16.7756 4.30681 16.6755 4.42259 16.5891 4.51432L16.7847 4.56675C17.7154 4.80704 19.6541 5.31163 20.9897 7.1094C21.016 7.1443 21.0347 7.18386 21.0449 7.22579C21.0552 7.26771 21.0566 7.31116 21.0492 7.35363C21.0418 7.39609 21.0257 7.43672 21.0018 7.47316C20.9779 7.5096 20.9467 7.54114 20.9101 7.56593C20.8525 7.60586 20.7832 7.62727 20.7121 7.62709" fill="black"/>
</svg>
