<svg width="22" height="24" viewBox="0 0 22 24" fill="none" xmlns="http://www.w3.org/2000/svg">
<g clip-path="url(#clip0_48_1762)">
<path d="M9.64423 23.8683C5.63039 23.4252 0.482862 21.8843 0.167503 14.4874C-0.143863 7.11435 4.11548 5.49365 7.36287 5.49365C10.6103 5.49365 11.4007 6.15431 11.4007 6.15431C11.4007 6.15431 12.1811 5.51561 16.147 6.02257C20.113 6.52954 22.053 12.2918 20.3944 17.3994C18.2348 24.0619 9.64423 23.8663 9.64423 23.8663" fill="#FCCFD2"/>
<path d="M8.00219 10.9346C7.82056 9.71709 6.49326 6.99463 3.68298 8.81692C0.872694 10.6392 0.946548 16.168 3.61712 19.2976C8.05608 24.499 11.4013 21.7905 10.2636 19.9163C8.91034 17.6849 8.42732 13.7828 8.00219 10.9346Z" fill="#FCB8BF"/>
<path d="M19.9752 1.38008C19.8339 1.17608 19.6342 1.01955 19.4024 0.93099C19.1845 0.848503 18.9527 0.809184 18.7198 0.815225L18.6 0.753352C18.2512 0.579625 17.8752 0.46689 17.4883 0.42003C16.6944 0.357688 15.8959 0.394565 15.1111 0.529808C14.9932 0.53783 14.8824 0.588985 14.7998 0.673514C14.5483 0.4839 14.219 0.437994 14.0014 0.729401L13.9575 0.793271C13.7579 0.699462 13.5164 0.651558 13.3727 0.815225L13.2809 0.926999C12.2929 0.96093 11.8258 2.09063 11.5763 2.85308C11.5623 2.90031 11.5562 2.94955 11.5584 2.99878C11.4965 3.03271 11.4326 3.06265 11.3707 3.09858C11.3068 3.13381 11.2512 3.18243 11.2078 3.24112C11.1644 3.29981 11.1342 3.36718 11.1192 3.43863C11.1042 3.51008 11.1049 3.58391 11.1211 3.65509C11.1373 3.72627 11.1687 3.79312 11.2131 3.85105C11.3508 4.08058 11.752 4.38596 12.0534 4.23028L12.0773 4.2183L12.213 4.14645C12.73 4.47378 13.3787 4.50771 13.9814 4.50372C14.7088 4.51743 15.4364 4.49212 16.161 4.42788C16.9811 4.35579 17.7792 4.1239 18.5102 3.74527C19.1968 3.37202 19.8116 2.88901 20.5062 2.53173C21.1149 2.22236 20.5361 1.33417 19.9732 1.38008" fill="#43A686"/>
<path d="M20.2384 18.3196C20.2044 18.3196 20.1706 18.3135 20.1386 18.3016C20.1015 18.2884 20.0673 18.268 20.0381 18.2416C20.0089 18.2152 19.9851 18.1833 19.9683 18.1477C19.9514 18.1121 19.9417 18.0735 19.9398 18.0342C19.9378 17.9948 19.9437 17.9555 19.957 17.9184C19.9869 17.8345 22.9309 9.41967 17.0868 6.74112C15.043 5.80303 13.6538 5.74315 12.8495 5.84694C11.9932 5.9627 11.604 6.29802 11.6 6.30002L11.2387 6.61937L11.111 6.15631C11.099 6.1104 9.91345 1.53172 14.1648 0.300224C17.1587 -0.566013 20.2883 0.62157 20.8512 1.59359C20.9293 1.70475 20.9653 1.84003 20.9529 1.9753C20.9405 2.11058 20.8804 2.23703 20.7833 2.33209C20.7115 2.41193 18.6916 4.52762 15.0889 4.69927C13.1369 4.7871 11.9912 4.49968 11.5441 4.342C11.5203 4.76016 11.5411 5.17967 11.606 5.59345C12.3525 5.22021 14.1528 4.7352 17.3363 6.19223C23.6814 9.10231 20.5538 18.0301 20.5198 18.12C20.4995 18.1784 20.4615 18.229 20.411 18.2647C20.3606 18.3005 20.3003 18.3197 20.2384 18.3196ZM11.622 3.73124C11.8395 3.81507 12.9413 4.1943 15.061 4.09849C17.0272 4.02724 18.9029 3.25402 20.3482 1.91893C20.2386 1.74478 20.086 1.6018 19.9051 1.50378C18.949 0.87705 16.6757 0.192443 14.3304 0.873058C12.5141 1.39999 11.8355 2.61551 11.622 3.73124Z" fill="black"/>
<path d="M10.5486 24C9.15305 23.9931 7.76784 23.7599 6.44696 23.3094C1.5649 21.6827 -0.560778 17.6629 0.125825 11.3637C0.568923 7.29796 3.56882 6.15429 3.69656 6.10639C3.7695 6.08636 3.8473 6.09468 3.91436 6.12968C3.98141 6.16467 4.03273 6.22375 4.05801 6.29503C4.08329 6.36632 4.08065 6.44453 4.05063 6.51395C4.0206 6.58337 3.96541 6.63885 3.89616 6.66924C3.7784 6.71315 1.11581 7.74905 0.714629 11.4276C0.0619566 17.4154 2.0519 21.2077 6.63059 22.7425C11.7322 24.4431 15.271 22.2575 15.3069 22.2356C15.3738 22.1956 15.4537 22.1832 15.5296 22.2012C15.6054 22.2192 15.6713 22.266 15.7132 22.3318C15.755 22.3976 15.7696 22.4771 15.7537 22.5534C15.7379 22.6297 15.6929 22.6969 15.6283 22.7405C15.5185 22.8104 13.6064 24 10.5426 24" fill="black"/>
</g>
<defs>
<clipPath id="clip0_48_1762">
<rect width="22" height="24" fill="white"/>
</clipPath>
</defs>
</svg>
