<svg width="24" height="24" viewBox="0 0 24 24" fill="none" xmlns="http://www.w3.org/2000/svg">
<path d="M11.7259 6.7162C9.55045 6.30324 5.251 5.73621 3.70195 9.10195C2.1529 12.4677 6.17375 20.2283 9.98508 22.0663C13.5758 23.8016 17.2556 22.8281 20.3938 13.0069C23.3872 3.64359 11.7259 6.7162 11.7259 6.7162Z" fill="#EB3F50"/>
<path d="M10.7117 5.24413C10.7117 5.24413 8.42708 3.62225 6.45901 4.79694C2.52955 7.15061 4.05185 9.90651 4.05185 9.90651C4.05185 9.90651 4.81189 6.83393 7.39513 6.65206C9.40109 6.51083 8.83942 9.66689 8.83942 9.66689C8.83942 9.66689 9.26067 7.79251 11.1374 7.16344C13.0141 6.53437 14.8016 9.39943 14.8016 9.39943C14.8016 9.39943 15.3678 7.62134 16.159 7.22122C18.3656 6.10429 19.3284 8.32102 19.7096 9.44221C20.0907 10.5634 20.6167 6.19844 17.7794 4.42035C15.2942 2.86479 13.4799 4.68354 12.7578 5.08152C12.0356 5.47951 13.52 3.17077 11.8038 1.41836C10.0876 -0.334049 9.48133 0.545365 9.48133 0.545365L9.33868 2.04315C9.33868 2.04315 10.4063 1.47399 10.9502 2.77065C11.494 4.06731 10.7117 5.24413 10.7117 5.24413Z" fill="#43A686"/>
<path d="M4.05174 10.2296C3.99132 10.2298 3.932 10.2141 3.88016 10.1844C3.82831 10.1546 3.78592 10.1118 3.75753 10.0606C3.7397 10.0307 2.13493 7.00725 6.28282 4.52948C7.97898 3.51527 9.8356 4.35831 10.58 4.78197C10.8533 4.18535 10.8741 3.51009 10.638 2.89903C10.5973 2.76606 10.5282 2.64271 10.4349 2.53695C10.3416 2.43119 10.2263 2.34535 10.0964 2.28494C9.89645 2.22834 9.68166 2.24591 9.49459 2.33415C9.44118 2.36126 9.38119 2.37417 9.32084 2.37154C9.26049 2.3689 9.20197 2.35083 9.15135 2.31918C9.10141 2.28659 9.0613 2.24194 9.03508 2.18972C9.00886 2.13751 8.99746 2.07957 9.00202 2.02176L9.14466 0.523974C9.14954 0.471281 9.16791 0.420563 9.19815 0.376334C9.27992 0.270353 9.38504 0.182994 9.50602 0.120489C9.62699 0.057984 9.76083 0.0218712 9.89801 0.0147254C10.4998 -0.0344876 11.2353 0.365635 12.0444 1.20439C13.2168 2.40263 13.0384 3.8084 12.9359 4.59153L12.9604 4.57442C13.8364 3.96888 15.6596 2.71288 17.9709 4.15931C20.2822 5.60575 20.5497 8.65267 20.2755 9.56205C20.1752 9.89579 19.9657 9.94715 19.852 9.94936C19.6425 9.94936 19.491 9.8188 19.4063 9.54707C18.9939 8.32958 18.459 7.58711 17.8193 7.33676C17.3736 7.16772 16.8966 7.2255 16.3282 7.51222C15.8446 7.75829 15.3409 8.86022 15.138 9.49999C15.1182 9.55875 15.0815 9.61096 15.0323 9.65071C14.983 9.69045 14.9231 9.71608 14.8594 9.72462C14.7951 9.7325 14.7298 9.72203 14.6716 9.69467C14.6134 9.66731 14.5648 9.62421 14.5318 9.5706C14.514 9.54493 12.8601 6.93664 11.2621 7.47156C9.59266 8.03216 9.18478 9.72463 9.18033 9.74181C9.16106 9.82322 9.10967 9.89435 9.03694 9.94024C8.96422 9.98613 8.87582 10.0032 8.79028 9.98786C8.70458 9.97221 8.62872 9.92488 8.57909 9.85605C8.52946 9.78712 8.51005 9.70235 8.52504 9.61979C8.60751 9.14266 8.70781 7.78396 8.17957 7.2255C8.08517 7.13013 7.96824 7.05798 7.83866 7.01516C7.70909 6.97232 7.57068 6.96007 7.43513 6.97944C5.13273 7.14205 4.40389 9.9579 4.39498 9.98575C4.3795 10.0493 4.34405 10.1068 4.29343 10.1504C4.2428 10.1941 4.17945 10.2217 4.11193 10.2296H4.06958H4.05174ZM8.06144 4.69852C7.56515 4.69287 7.07741 4.82273 6.65504 5.07296C4.39721 6.42098 4.05842 7.89736 4.12752 8.82599C4.23473 8.60545 4.35531 8.39111 4.4886 8.18408C5.21743 7.0586 6.21819 6.42098 7.38611 6.33966C7.62285 6.31301 7.8628 6.34018 8.08659 6.41898C8.31038 6.49778 8.51172 6.62599 8.67437 6.79328C9.00165 7.18739 9.19533 7.66829 9.22935 8.17124C9.67934 7.56778 10.312 7.11205 11.0414 6.86603C12.6172 6.33752 14.0615 7.85242 14.7257 8.70617C14.9776 8.10491 15.4278 7.24261 16.0184 6.94519C16.7606 6.56862 17.4493 6.50014 18.0712 6.74192C18.693 6.98371 19.2569 7.5764 19.6916 8.47936C19.6091 7.3817 19.121 5.63999 17.612 4.69638C15.6863 3.48959 14.2287 4.49525 13.3572 5.0965C13.1989 5.20563 13.0607 5.29977 12.9404 5.36611C12.8658 5.42032 12.7758 5.45159 12.6823 5.45579C12.5888 5.45999 12.4962 5.43693 12.4166 5.38964C12.1714 5.2313 12.2116 4.9617 12.2717 4.55088C12.3765 3.83623 12.5526 2.64227 11.5763 1.64517C10.7115 0.761478 10.2123 0.645935 9.99608 0.652353C9.93331 0.652305 9.87169 0.668572 9.81777 0.699427L9.7197 1.60666C9.92187 1.5824 10.1271 1.60364 10.3193 1.66871C10.5414 1.75648 10.741 1.88959 10.9042 2.05882C11.0673 2.22804 11.1902 2.42932 11.2643 2.64869C11.8661 4.08228 11.0414 5.35969 10.9991 5.41318C10.9744 5.45051 10.9418 5.4824 10.9034 5.50675C10.865 5.5311 10.8216 5.54733 10.7762 5.55439C10.731 5.56257 10.6847 5.56186 10.6398 5.5523C10.595 5.54273 10.5527 5.52452 10.5154 5.49876C10.4886 5.47736 9.34526 4.68996 8.04807 4.68996" fill="black"/>
<path d="M12.8716 23.0506C11.4697 23.0506 9.91171 22.4087 8.09966 21.0949C4.75638 18.6943 3.47034 13.2401 3.41907 13.0069C3.39986 12.9238 3.41584 12.8367 3.46349 12.7649C3.51114 12.693 3.58656 12.6423 3.67316 12.6239C3.75976 12.6055 3.85045 12.6208 3.92527 12.6665C4.00009 12.7123 4.05291 12.7847 4.07212 12.8678C4.08327 12.9234 5.36931 18.3241 8.50308 20.5814C11.5722 22.7938 13.6294 22.995 15.5997 21.279C15.6664 21.2276 15.7511 21.2027 15.8363 21.2095C15.9215 21.2161 16.0008 21.2539 16.0579 21.315C16.1149 21.3761 16.1455 21.4559 16.1432 21.5379C16.1409 21.6199 16.1059 21.698 16.0455 21.7561C15.0537 22.612 14.0128 23.0506 12.8694 23.0506" fill="black"/>
<path d="M17.884 19.1672C17.8235 19.168 17.764 19.1524 17.7124 19.1222C17.6365 19.0782 17.5817 19.0072 17.56 18.9247C17.5383 18.8422 17.5514 18.7547 17.5965 18.6814C17.6188 18.6472 19.7228 15.2579 20.1017 12.9578C20.1153 12.8726 20.1636 12.7962 20.2359 12.7452C20.3082 12.6943 20.3986 12.6729 20.4873 12.686C20.576 12.6991 20.6556 12.7454 20.7087 12.8148C20.7618 12.8842 20.784 12.971 20.7704 13.0562C20.3736 15.4826 18.2696 18.8697 18.1805 19.011C18.1506 19.0585 18.1084 19.0978 18.058 19.1252C18.0077 19.1526 17.9508 19.1671 17.8929 19.1672" fill="black"/>
<path d="M6.70694 10.6382C6.60934 10.5685 6.48712 10.5385 6.36662 10.5544C6.24612 10.5704 6.13701 10.6313 6.06281 10.7238C5.99084 10.8342 5.96091 10.9649 5.97811 11.094C5.97811 11.1219 5.97811 11.1496 5.99372 11.1753C5.96563 11.25 5.96563 11.3317 5.99372 11.4064V11.4214C5.98914 11.5147 6.00747 11.6078 6.04721 11.6932C6.09929 11.7819 6.17208 11.8578 6.25986 11.9149C6.34765 11.9721 6.44803 12.009 6.55315 12.0226C6.61346 12.0304 6.67479 12.0262 6.73336 12.0103C6.79192 11.9944 6.84649 11.9672 6.89368 11.9304C6.94087 11.8934 6.97969 11.8477 7.00776 11.7959C7.03582 11.744 7.05254 11.6872 7.05687 11.6289C7.03235 11.2887 7.0435 10.8522 6.71809 10.6382" fill="black"/>
<path d="M12.0295 10.4115C11.9661 10.3404 11.8832 10.2878 11.7902 10.2597C11.6971 10.2318 11.5978 10.2295 11.5035 10.2531C11.4139 10.2765 11.3341 10.3263 11.2754 10.3954C11.2167 10.4644 11.1819 10.5494 11.1758 10.6383C11.1806 10.8215 11.2343 11.0006 11.3318 11.1582C11.3297 11.1796 11.3297 11.2011 11.3318 11.2224C11.3675 11.3294 11.4054 11.4364 11.4478 11.5369C11.4806 11.6168 11.5377 11.6852 11.6116 11.7335C11.6856 11.7818 11.7729 11.8076 11.8623 11.8076C11.9517 11.8076 12.0391 11.7818 12.113 11.7335C12.1869 11.6852 12.244 11.6168 12.2769 11.5369C12.3382 11.3449 12.3467 11.1408 12.3014 10.9447C12.256 10.7486 12.1585 10.567 12.0183 10.4178" fill="black"/>
<path d="M17.4988 10.7581C17.4998 10.7517 17.4998 10.7453 17.4988 10.7388C17.5193 10.5681 17.4916 10.3952 17.4185 10.2382C17.3823 10.1675 17.3282 10.1066 17.2613 10.0611C17.1943 10.0155 17.1165 9.98679 17.035 9.97738C16.9535 9.96807 16.8709 9.97843 16.7946 10.0075C16.7184 10.0366 16.6509 10.0836 16.5983 10.144C16.4337 10.3497 16.3543 10.6066 16.3754 10.8651C16.3759 10.9919 16.4243 11.1143 16.5116 11.2095C16.5989 11.3048 16.7192 11.3663 16.8502 11.3829C16.94 11.3992 17.0326 11.3939 17.1197 11.3674C17.2069 11.3408 17.2858 11.2939 17.3494 11.2309C17.4402 11.1307 17.4962 11.0058 17.5099 10.8736C17.5188 10.8356 17.5188 10.7962 17.5099 10.7581" fill="black"/>
<path d="M9.9424 15.0034C9.99812 15.1124 9.96469 15.0375 9.95577 14.9926C9.94686 14.9477 9.9424 14.9412 9.93126 14.9092V14.8963C9.93126 14.8599 9.93126 14.8235 9.93126 14.7851C9.93071 14.6596 9.88273 14.5386 9.79623 14.4445C9.70973 14.3505 9.5906 14.2898 9.46097 14.2737C9.39924 14.2663 9.33659 14.271 9.27681 14.2875C9.21703 14.3041 9.16137 14.3321 9.11322 14.3699C9.06507 14.4077 9.02542 14.4545 8.99669 14.5075C8.96796 14.5605 8.95076 14.6185 8.94611 14.6781C8.9478 14.7495 8.94406 14.8211 8.93496 14.8921V14.8407C8.92188 14.8863 8.91219 14.9328 8.90598 14.9797C8.88247 15.0312 8.86888 15.0863 8.86586 15.1424C8.86134 15.2348 8.88128 15.3269 8.92381 15.4098C8.97016 15.498 9.03864 15.5737 9.12308 15.6301C9.20752 15.6865 9.30525 15.7219 9.40747 15.733C9.50265 15.7442 9.59923 15.7304 9.68684 15.6929C9.77444 15.6554 9.84977 15.5958 9.90474 15.5203C9.95972 15.445 9.99228 15.3565 9.99891 15.2647C10.0055 15.1729 9.98601 15.081 9.9424 14.999" fill="black"/>
<path d="M15.9383 14.7721C15.9383 14.7208 15.9383 14.6695 15.9383 14.6181C15.939 14.5122 15.9331 14.4065 15.9205 14.3014C15.8894 14.1594 15.8023 14.0345 15.6776 13.9527C15.5535 13.8697 15.4021 13.8331 15.2519 13.8499C15.1799 13.8598 15.1108 13.884 15.0491 13.9208C14.9873 13.9577 14.9342 14.0064 14.893 14.0639C14.8416 14.1423 14.8131 14.2324 14.8105 14.3249C14.7659 14.4004 14.7392 14.4845 14.7325 14.571C14.731 14.6875 14.7562 14.8029 14.8061 14.9091C14.8338 14.9923 14.8785 15.0694 14.9376 15.1359C15.0201 15.2283 15.1302 15.2942 15.2531 15.3244C15.3759 15.3546 15.5054 15.3478 15.6241 15.3049C15.7271 15.26 15.8125 15.1847 15.8682 15.0902C15.9239 14.9956 15.9469 14.8865 15.9339 14.7785" fill="black"/>
<path d="M13.079 18.5808C13.076 18.4665 13.0619 18.3525 13.0367 18.2407C13.0211 18.1244 12.9873 18.0111 12.9364 17.9047C12.8738 17.7898 12.7764 17.6958 12.657 17.635C12.5376 17.5743 12.4019 17.5498 12.2677 17.5644C12.1418 17.5819 12.026 17.6403 11.9395 17.7299C11.8531 17.8194 11.8014 17.9348 11.793 18.0566C11.8021 18.2932 11.8793 18.5228 12.0159 18.7199C12.0873 18.8484 12.2032 18.9491 12.3435 19.0045C12.4777 19.0537 12.6261 19.0537 12.7603 19.0045C12.8463 18.9667 12.9196 18.9066 12.972 18.8311C13.0243 18.7554 13.0537 18.6673 13.0567 18.5766" fill="black"/>
</svg>
