<svg width="480" height="220" viewBox="0 0 480 220" fill="none" xmlns="http://www.w3.org/2000/svg">
<rect width="480" height="220" fill="#FFECE1"/>
<g clip-path="url(#clip0_1_138)">
<path d="M225.807 231.488C225.292 232.304 220.299 277.472 218.067 311.051H260.272C260.272 311.051 280.086 256.31 273.634 239.562C267.181 222.83 237.167 213.799 225.807 231.488Z" fill="#FEB095"/>
<path d="M316.625 97.9817C316.625 97.9817 331.847 95.1381 341.89 106.755C351.933 118.373 352.263 140.235 364.753 156.782C377.242 173.329 387.384 208.467 360.33 222.97C333.277 237.475 259.485 253.95 234.906 244.419C210.327 234.888 208.654 214.812 208.94 201.408C209.226 188.005 209.669 171.2 231.415 160.955C253.161 150.709 273.663 128.532 278.312 115.486C283.935 99.7106 303.449 93.2518 316.625 97.9817Z" fill="#AB8DDB"/>
<path d="M316.653 101.069C316.653 101.069 326.495 97.2677 326.639 86.3793C326.782 75.4765 324.937 70.2894 315.823 66.8315C308.44 64.0307 293.29 69.9607 295.021 78.4915C296.753 87.0224 298.74 101.212 316.653 101.069Z" fill="#AB8DDB"/>
<path d="M274.935 190.435C274.935 190.435 290.43 186.562 293.478 164.185C295.437 149.767 329.315 160.913 328.069 176.031C326.825 191.164 334.966 199.152 334.966 199.152C334.966 199.152 326.81 216.57 307.283 213.141C286.266 209.454 274.935 190.435 274.935 190.435Z" fill="#FEB095"/>
<path d="M288.987 152.934C292.732 151.809 294.548 146.841 293.041 141.839C291.535 136.836 287.277 133.692 283.532 134.817C279.788 135.942 277.972 140.91 279.478 145.913C280.985 150.916 285.241 154.059 288.987 152.934Z" fill="#FEB095"/>
<path d="M287.225 145.466C287.282 165.086 297.297 181.333 316.754 181.19C334.652 181.061 341.719 165.886 343.593 146.352C345.724 124.29 335.065 108.857 314.336 109.772C300.102 110.386 287.153 125.847 287.225 145.466Z" fill="#FEB095"/>
<path d="M324.851 179.904C314.165 184.219 304.951 180.919 295.895 172.202" stroke="black" stroke-width="1.4" stroke-miterlimit="10" stroke-linecap="round" stroke-linejoin="round"/>
<path d="M286.596 141.594C287.684 143.423 288.084 145.638 287.713 147.725" stroke="black" stroke-width="1.4" stroke-miterlimit="10" stroke-linecap="round" stroke-linejoin="round"/>
<path d="M321.332 150.467C321.646 152.468 322.921 157.013 322.921 157.013C321.275 156.584 319.629 156.169 317.984 155.74" stroke="black" stroke-width="1.4" stroke-miterlimit="10" stroke-linecap="round" stroke-linejoin="round"/>
<path d="M315.538 132.177C309.071 128.619 302.59 130.705 302.59 130.705" stroke="black" stroke-width="1.4" stroke-miterlimit="10" stroke-linecap="round" stroke-linejoin="round"/>
<path d="M300.887 138.165C300.887 138.165 302.647 136.779 309.028 138.423C314.721 139.909 314.478 145.624 314.478 145.624C314.478 145.624 309.214 145.324 305.051 143.581C300.887 141.838 300.887 138.165 300.887 138.165Z" fill="white"/>
<path d="M302.047 139.924C301.99 141.524 303.25 142.868 304.852 142.911C306.454 142.953 307.799 141.71 307.842 140.109C307.884 138.509 306.54 137.666 304.937 137.608C303.348 137.566 302.104 138.323 302.047 139.924Z" fill="black"/>
<path d="M313.978 145.068C313.978 145.068 312.819 140.481 309.329 138.666C305.81 136.837 302.332 136.966 299.385 137.323" stroke="black" stroke-width="1.4" stroke-miterlimit="10" stroke-linecap="round" stroke-linejoin="round"/>
<path d="M329.2 133.892C332.863 132.291 340.117 133.177 341.49 134.563" stroke="black" stroke-width="1.4" stroke-miterlimit="10" stroke-linecap="round" stroke-linejoin="round"/>
<path d="M340.13 141.552C340.13 141.552 337.942 141.194 334.35 141.194C329.973 141.194 327.54 147.124 327.54 147.124C327.54 147.124 331.989 149.196 336.125 147.725C339.114 146.653 340.13 141.552 340.13 141.552Z" fill="white"/>
<path d="M334.966 144.796C334.695 146.368 333.178 147.425 331.604 147.154C330.03 146.882 328.972 145.367 329.243 143.795C329.243 143.795 331.904 141.894 333.493 142.166C335.067 142.437 335.253 143.209 334.966 144.796Z" fill="black"/>
<path d="M327.54 147.138C327.54 147.138 330.502 142.466 334.179 141.951C337.111 141.537 340.817 142.351 340.817 142.351" stroke="black" stroke-width="1.4" stroke-miterlimit="10" stroke-linecap="round" stroke-linejoin="round"/>
<path d="M283.234 185.534C283.234 185.534 292.949 210.626 313.249 209.526C333.55 208.425 331.333 191.435 331.333 191.435C331.333 191.435 352.206 191.578 367.341 203.239C385.268 217.028 383.98 257.48 383.98 257.48L349.974 261.924L349.358 311.051H260.129L252.79 269.669C252.79 269.669 242.174 203.51 246.495 200.095C261.145 188.506 283.234 185.534 283.234 185.534Z" fill="#FEE8A5"/>
<path d="M320.888 166.186C314.478 167.729 311.818 162.028 311.818 162.028" stroke="black" stroke-width="1.4" stroke-miterlimit="10" stroke-linecap="round" stroke-linejoin="round"/>
<path d="M347.34 134.721C347.34 134.721 318.684 127.447 315.18 112.315C315.18 112.315 301.302 136.95 285.866 135.249C285.866 135.249 284.978 106.213 314.163 103.513C350.088 100.183 347.34 134.721 347.34 134.721Z" fill="#AB8DDB"/>
<path d="M349.5 134.178C342.992 133.449 337.183 129.876 331.746 126.233C327.969 123.689 324.235 121.046 321.102 117.745C317.969 114.444 315.466 110.429 314.592 105.97" stroke="black" stroke-width="1.4" stroke-miterlimit="10" stroke-linecap="round" stroke-linejoin="round"/>
<path d="M313.964 111.486C311.347 119.288 305.423 125.618 298.698 130.362C295.008 132.963 290.572 135.249 286.139 134.32" stroke="black" stroke-width="1.4" stroke-miterlimit="10" stroke-linecap="round" stroke-linejoin="round"/>
<path d="M347.441 124.675C341.975 121.903 336.639 118.802 331.961 114.844C327.282 110.886 323.262 106.042 320.888 100.383" stroke="black" stroke-width="1.4" stroke-miterlimit="10" stroke-linecap="round" stroke-linejoin="round"/>
<path d="M309.657 103.67C306.409 114.201 299.199 123.475 289.772 129.205" stroke="black" stroke-width="1.4" stroke-miterlimit="10" stroke-linecap="round" stroke-linejoin="round"/>
<path d="M347.528 148.624C351.863 159.884 361.447 168.486 365.955 179.689C368.415 185.805 369.258 192.564 368.358 199.093" stroke="black" stroke-width="1.4" stroke-miterlimit="10" stroke-linecap="round" stroke-linejoin="round"/>
<path d="M299.7 105.413C297.21 106.999 295.251 109.286 293.377 111.558C280.143 127.69 268.556 145.795 251.401 157.698C242.946 163.557 233.261 167.801 225.936 175.017C219.426 181.433 215.134 190.02 213.889 199.066" stroke="black" stroke-width="1.4" stroke-miterlimit="10" stroke-linecap="round" stroke-linejoin="round"/>
<path d="M274.979 149.367C272.963 157.798 266.997 164.814 260.172 170.187C253.348 175.56 245.594 179.575 238.312 184.319C233.776 187.263 229.384 190.535 225.922 194.678C220.3 201.423 217.539 210.412 218.139 219.142" stroke="black" stroke-width="1.4" stroke-miterlimit="10" stroke-linecap="round" stroke-linejoin="round"/>
<path d="M281.817 158.355C280.486 166.029 277.124 173.345 272.161 179.361" stroke="black" stroke-width="1.4" stroke-miterlimit="10" stroke-linecap="round" stroke-linejoin="round"/>
<path d="M315.009 96.1819C318.256 94.5099 320.916 91.7235 322.418 88.3941C323.106 86.8652 323.564 85.2362 323.821 83.5787C324.121 81.6496 324.15 79.649 323.692 77.7343C322.919 74.4763 320.745 71.6756 318.07 69.6751C315.394 67.6745 312.218 66.4171 308.999 65.5168" stroke="black" stroke-width="1.4" stroke-miterlimit="10" stroke-linecap="round" stroke-linejoin="round"/>
<path d="M310.244 97.1965C311.745 92.0523 312.333 86.5795 311.518 81.2781C310.702 75.9767 308.427 70.8469 304.736 66.9603" stroke="black" stroke-width="1.4" stroke-miterlimit="10" stroke-linecap="round" stroke-linejoin="round"/>
<path d="M297.369 72.2185C299.472 76.4196 300.329 81.1065 301.846 85.5506C303.134 89.3373 304.907 92.9524 307.111 96.2962" stroke="black" stroke-width="1.4" stroke-miterlimit="10" stroke-linecap="round" stroke-linejoin="round"/>
<path d="M328.686 164.328C328.686 164.328 333.692 164.914 337.485 166.571C341.276 168.229 342.692 169.058 343.049 170.587C343.407 172.13 343.879 183.004 343.635 186.776C343.392 190.563 334.636 213.611 334.636 213.611C334.636 213.611 347.771 250.593 349.902 254.494C349.902 254.494 372.164 250.622 383.995 257.48C383.995 257.48 378.014 311.036 354.08 310.451C330.144 309.865 322.333 298.634 321.032 264.468C319.729 230.302 316.883 211.626 316.883 211.626L317.053 197.494C317.053 197.494 314.008 186.676 317.397 183.19C317.397 183.19 317.269 178.889 321.218 178.174C321.218 178.174 322.319 174.273 327.411 175.802C332.505 177.345 336.884 179.346 336.884 179.346C336.884 179.346 337.356 174.973 337.126 173.43C336.897 171.887 332.791 169.658 330.732 168.686C327.785 167.286 328.686 164.328 328.686 164.328Z" fill="#FEB095"/>
<path d="M328.686 186.119C327.527 185.162 326.368 184.204 325.21 183.247C324.722 182.847 322.534 182.032 321.976 182.032C320.617 182.004 319.187 182.004 318.028 182.704C316.854 183.418 316.181 184.762 315.824 186.09C314.924 189.463 315.639 193.049 316.539 196.436C316.64 196.822 316.769 197.237 317.068 197.493C317.613 197.979 318.5 197.75 319.058 197.279C320.044 196.451 320.402 195.093 320.617 193.822C320.931 191.992 321.075 190.149 321.06 188.305C322.219 189.734 323.607 190.977 325.137 191.978" stroke="black" stroke-width="1.4" stroke-miterlimit="10" stroke-linecap="round" stroke-linejoin="round"/>
<path d="M323.564 196.894C320.402 199.095 318.413 202.739 317.727 206.525C317.04 210.312 317.569 214.242 318.699 217.928" stroke="black" stroke-width="1.4" stroke-miterlimit="10" stroke-linecap="round" stroke-linejoin="round"/>
<path d="M317.499 181.546C317.77 179.76 319.444 178.403 321.233 178.16C323.021 177.917 325.238 178.503 326.812 179.403C328.871 180.575 332.577 182.775 332.577 182.775" stroke="black" stroke-width="1.4" stroke-miterlimit="10" stroke-linecap="round" stroke-linejoin="round"/>
<path d="M322.276 176.217C323.148 175.374 324.436 175.06 325.638 175.145C326.839 175.231 327.956 175.803 329.057 176.288C332.304 177.718 335.366 179.289 337.726 180.304" stroke="black" stroke-width="1.4" stroke-miterlimit="10" stroke-linecap="round" stroke-linejoin="round"/>
<path d="M328.399 164.328C328.285 166.386 329.486 168.458 331.318 169.386C332.162 169.815 333.106 170.015 333.95 170.429C336.726 171.787 337.927 175.416 337.054 178.374" stroke="black" stroke-width="1.4" stroke-miterlimit="10" stroke-linecap="round" stroke-linejoin="round"/>
<path d="M330.99 163.985C333.364 164.328 335.768 164.685 337.957 165.657" stroke="black" stroke-width="1.4" stroke-miterlimit="10" stroke-linecap="round" stroke-linejoin="round"/>
<path d="M347.113 168.358C348.357 171.444 350.646 173.959 352.449 176.746C355.252 181.104 356.869 186.22 357.04 191.407" stroke="black" stroke-width="1.4" stroke-miterlimit="10" stroke-linecap="round" stroke-linejoin="round"/>
<path d="M265.58 280.973C265.58 280.973 243.275 268.455 218.067 256.295C218.067 256.295 230.943 200.165 256.867 195.051C274.994 191.478 289.014 219.17 274.922 246.063C272.532 250.65 265.58 280.973 265.58 280.973Z" fill="#FEE8A5"/>
<path d="M246.405 57.6558C244.793 54.3222 239.265 52.4718 235.62 56.0601C231.975 59.6485 228.285 64.5179 229.717 67.8965C231.9 73.0505 240.99 73.1703 245.85 71.5597C250.71 69.949 249.923 64.9373 246.405 57.6558Z" fill="#F38059"/>
<path d="M246.406 57.6551C246.406 57.6551 247.606 54.0143 249.593 51.5423C249.593 51.5423 250.636 55.2654 249.008 57.5128C249.008 57.5128 251.956 57.1158 254.356 56.7187C254.356 56.7187 251.401 60.1422 249.811 60.9963C249.811 60.9963 253.194 62.6744 254.559 64.0902C254.559 64.0902 250.486 65.0341 248.543 64.3973L246.406 57.6551Z" fill="#32B2A8"/>
<path d="M241.433 58.5468C241.853 57.7601 240.623 57.1009 240.21 57.8876C239.775 58.6818 241.005 59.3411 241.433 58.5468Z" fill="black"/>
<path d="M244.493 63.0274C244.913 62.2407 243.683 61.5814 243.27 62.3681C242.835 63.1548 244.066 63.8141 244.493 63.0274Z" fill="black"/>
<path d="M238.589 66.8174C239.01 66.0307 237.779 65.3713 237.367 66.158C236.939 66.9522 238.162 67.6115 238.589 66.8174Z" fill="black"/>
<path d="M246.347 68.1654C246.767 67.3787 245.537 66.7194 245.124 67.5061C244.696 68.3004 245.919 68.9521 246.347 68.1654Z" fill="black"/>
<path d="M242.4 69.3948C242.82 68.6081 241.59 67.9487 241.178 68.7354C240.75 69.5221 241.973 70.1815 242.4 69.3948Z" fill="black"/>
<path d="M234.39 62.9217C234.81 62.135 233.58 61.4756 233.167 62.2623C232.74 63.0565 233.97 63.7084 234.39 62.9217Z" fill="black"/>
<path d="M239.76 62.2176C240.18 61.4309 238.95 60.7715 238.538 61.5582C238.11 62.3451 239.333 63.0043 239.76 62.2176Z" fill="black"/>
<path d="M251.207 58.1945C249.782 58.8089 248.431 59.5806 247.171 60.4872" stroke="black" stroke-width="1.4" stroke-miterlimit="10" stroke-linecap="round" stroke-linejoin="round"/>
<path d="M251.768 63.7228C250.703 63.2958 249.548 63.0935 248.393 63.1384" stroke="black" stroke-width="1.4" stroke-miterlimit="10" stroke-linecap="round" stroke-linejoin="round"/>
<path d="M248.394 54.5911C247.899 56.0595 247.096 57.4231 246.039 58.5545" stroke="black" stroke-width="1.4" stroke-miterlimit="10" stroke-linecap="round" stroke-linejoin="round"/>
<path d="M177.69 90.0971C176.137 87.7298 174.637 85.325 173.205 82.8754C171.96 80.7478 169.934 78.1034 170.009 75.5188C170.047 74.148 170.804 72.9794 171.45 71.8183C171.772 71.2339 172.237 70.5521 172.057 69.8405C171.667 68.3273 169.109 67.9003 167.849 67.7804C160.117 67.0238 150.936 74.2603 154.461 82.2911C153.801 83.0628 154.746 84.456 155.819 83.8792C155.901 83.8342 155.984 83.7894 156.066 83.7444C156.254 83.6994 156.434 83.6021 156.584 83.4671C157.717 82.8754 158.969 82.351 160.237 82.6957C161.437 83.0178 162.442 84.014 163.207 84.9431C164.812 86.9058 165.704 89.3704 166.709 91.6626C167.564 93.6105 168.157 94.5619 170.415 94.2698C172.92 93.9401 175.245 92.9736 177.307 91.5354C177.742 91.2281 178.027 90.6139 177.69 90.0971Z" fill="#A0DFDA"/>
<path d="M176.543 58.3038C175.111 57.27 173.378 57.0004 171.796 57.4573C171.518 54.0412 168.353 51.2919 164.76 51.4418C160.65 51.6065 157.118 54.8204 156.285 58.7383C155.715 58.4311 155.107 58.1915 154.492 58.0266C151.65 57.0527 148.455 57.1651 146.1 59.2777C143.369 61.7199 143.085 65.6078 144.9 68.4995C143.002 69.2262 141.87 71.6984 142.147 73.9458C142.462 76.4403 144.03 78.2532 146.107 79.1072C145.012 80.4931 145.035 82.4033 145.942 83.9542C147.105 85.9318 149.557 86.576 151.71 86.5236C153.713 86.4787 156.465 85.9918 156.788 83.5946C156.99 82.0812 156.292 80.598 155.287 79.3918C157.515 78.5303 158.565 75.8635 158.865 73.294C161.775 74.2379 164.678 72.5148 166.658 70.1925C170.011 73.6911 177.331 69.2411 178.538 65.3158C179.304 62.851 178.703 59.862 176.543 58.3038Z" fill="#32B2A8"/>
<path d="M164.663 66.1252C164.97 67.5934 165.495 69.0993 166.65 70.0581C167.798 71.017 170.393 72.1108 173.16 70.6424" stroke="black" stroke-width="1.4" stroke-miterlimit="10" stroke-linecap="round" stroke-linejoin="round"/>
<path d="M150.667 67.6531C150.667 67.6531 146.842 67.0688 144.899 68.4922C143.414 69.5784 141.989 71.8333 142.124 73.6611" stroke="black" stroke-width="1.4" stroke-miterlimit="10" stroke-linecap="round" stroke-linejoin="round"/>
<path d="M158.873 73.279C159.038 76.823 156.487 78.6586 153.757 79.348C153.037 79.5278 152.249 79.6776 151.611 79.303" stroke="black" stroke-width="1.4" stroke-miterlimit="10" stroke-linecap="round" stroke-linejoin="round"/>
<path d="M159.299 61.6604C159.689 59.7801 161.362 58.2443 163.259 57.9971C165.165 57.7499 167.167 58.8136 168.03 60.5292" stroke="black" stroke-width="1.4" stroke-miterlimit="10" stroke-linecap="round" stroke-linejoin="round"/>
<path d="M135.797 151.882C137.92 155.598 145.293 157.403 155.576 149.664C165.859 141.933 179.419 129.483 178.212 125.46C176.997 121.437 156.198 128.119 148.953 131.311C141.708 134.502 129.805 141.416 135.797 151.882Z" fill="#F38059"/>
<path d="M137.643 153.635C136.053 158.759 131.718 162.939 126.527 164.34C125.245 164.684 123.467 164.624 123.062 163.358C122.807 162.572 123.272 161.74 123.76 161.066C125.515 158.639 127.802 156.594 130.412 155.125C132.16 154.144 134.11 153.373 135.415 151.852C131.905 153.934 127.96 155.298 123.91 155.83C122.275 156.047 120.182 155.867 119.597 154.331C119.185 153.26 119.777 152.046 120.587 151.23C122.537 149.237 125.515 148.728 128.275 148.316C130.442 147.994 132.61 147.672 134.778 147.357" stroke="black" stroke-width="1.4" stroke-miterlimit="10" stroke-linecap="round" stroke-linejoin="round"/>
<path d="M148.527 150.211C147.882 149.02 147.244 147.821 146.599 146.63" stroke="black" stroke-width="1.4" stroke-miterlimit="10" stroke-linecap="round" stroke-linejoin="round"/>
<path d="M149.794 138.93C149.336 137.881 148.879 136.839 148.421 135.79" stroke="black" stroke-width="1.4" stroke-miterlimit="10" stroke-linecap="round" stroke-linejoin="round"/>
<path d="M159.784 141.597C159.491 140.405 158.996 139.259 158.329 138.233" stroke="black" stroke-width="1.4" stroke-miterlimit="10" stroke-linecap="round" stroke-linejoin="round"/>
<path d="M167.464 132.607C166.879 131.206 166.181 129.857 165.379 128.569" stroke="black" stroke-width="1.4" stroke-miterlimit="10" stroke-linecap="round" stroke-linejoin="round"/>
<path d="M154.231 102.8L155.191 107.849C155.191 107.849 150.128 121.176 130.215 119.221C110.301 117.266 97.2582 105.519 96.9582 86.7161C96.9582 86.7161 98.1208 78.3032 97.9333 75.2693L102.628 74.258C102.628 74.258 103.401 79.2622 104.834 80.663C106.266 82.0414 109.851 86.0718 112.491 88.9935C115.154 91.915 119.287 102.043 133.905 103.212C148.515 104.396 154.231 102.8 154.231 102.8Z" fill="#FFC825"/>
<path d="M155.169 107.85C155.169 107.85 152.882 109.117 152.131 105.977C151.381 102.846 154.209 102.801 154.209 102.801C154.209 102.801 155.942 105.745 155.169 107.85Z" stroke="black" stroke-width="1.4" stroke-miterlimit="10" stroke-linecap="round" stroke-linejoin="round"/>
<path d="M149.648 108.344C149.648 108.344 131.46 115.236 118.777 108.839C105.501 102.141 99.3734 93.3391 99.6209 75.1126" stroke="black" stroke-width="1.4" stroke-miterlimit="10" stroke-linecap="round" stroke-linejoin="round"/>
<path d="M108.471 91.8936C109.177 92.0209 108.982 93.1223 108.276 92.9949C107.556 92.8676 107.759 91.7662 108.471 91.8936Z" fill="black"/>
<path d="M110.775 97.114C111.675 97.2789 111.42 98.6801 110.52 98.5077C109.627 98.3429 109.882 96.9493 110.775 97.114Z" fill="black"/>
<path d="M115.762 99.2495C116.602 99.4068 116.369 100.718 115.522 100.561C114.674 100.403 114.914 99.0846 115.762 99.2495Z" fill="black"/>
<path d="M97.5142 82.3053C97.5517 80.0201 97.8142 77.7348 98.2793 75.5021C98.3093 75.3298 98.3618 75.1275 98.5119 75.0301C98.6244 74.9552 98.7594 74.9477 98.8944 74.9402C100.2 74.8803 101.527 75.1725 102.825 75.1124C102.818 76.8507 103.23 78.589 104.003 80.1549" stroke="black" stroke-width="1.4" stroke-miterlimit="10" stroke-linecap="round" stroke-linejoin="round"/>
<path d="M264.15 80.4974C267.998 79.7708 269.662 83.2917 269.774 86.6029C269.947 91.9217 267.09 96.1243 263.107 99.076C261.449 100.245 259.664 101.226 257.782 102.013C255.682 102.882 253.641 103.361 251.571 103.578C251.549 103.556 251.527 103.533 251.504 103.511C251.121 103.421 250.739 103.264 250.379 103.001C248.991 102.02 248.399 100.267 248.264 98.6415C247.941 94.7909 249.794 91.1501 252.427 88.4533C253.792 87.0449 255.337 85.8463 256.949 84.7375C258.997 82.7599 261.329 81.0368 264.15 80.4974Z" fill="#32B2A8"/>
<path d="M267.253 83.2992C264.403 87.8015 260.548 91.5697 256.723 95.2928C252.778 99.1358 248.833 102.979 244.88 106.829" stroke="black" stroke-width="1.4" stroke-miterlimit="10" stroke-linecap="round" stroke-linejoin="round"/>
<path d="M269.106 91.0826C266.257 91.8692 262.423 92.5734 259.476 92.8506" stroke="black" stroke-width="1.4" stroke-miterlimit="10" stroke-linecap="round" stroke-linejoin="round"/>
<path d="M260.151 83.0295C259.221 86.0035 259.378 89.7268 259.476 92.8432" stroke="black" stroke-width="1.4" stroke-miterlimit="10" stroke-linecap="round" stroke-linejoin="round"/>
<path d="M263.106 99.0761C260.331 99.5705 255.524 99.3756 252.711 99.2034" stroke="black" stroke-width="1.4" stroke-miterlimit="10" stroke-linecap="round" stroke-linejoin="round"/>
<path d="M252.417 89.6072C252.425 92.2592 252.702 96.5518 252.702 99.2035" stroke="black" stroke-width="1.4" stroke-miterlimit="10" stroke-linecap="round" stroke-linejoin="round"/>
<path d="M209.914 45.6947L210.176 46.4588C210.604 47.6873 211.609 48.6388 212.862 48.9835L213.641 49.2007C216.807 50.0771 217.594 54.1899 214.969 56.175L214.324 56.6695C213.281 57.4561 212.696 58.7072 212.756 60.0032L212.787 60.8121C212.929 64.0859 209.254 66.1085 206.561 64.2282L205.894 63.7713C204.829 63.0222 203.456 62.8498 202.241 63.3144L201.484 63.599C198.408 64.7451 195.348 61.8835 196.301 58.7372L196.533 57.958C196.916 56.707 196.653 55.3585 195.851 54.3397L195.348 53.703C193.301 51.1334 195.093 47.3428 198.378 47.2828L199.188 47.2754C200.486 47.2529 201.693 46.5936 202.421 45.5074L202.871 44.8332C204.671 42.0764 208.841 42.6008 209.914 45.6947Z" fill="#F8CD3D"/>
<path d="M203.862 54.8142C203.697 54.6269 203.442 54.3646 203.164 54.1999C203.314 54.0875 203.464 53.9527 203.584 53.8403C204.117 53.3609 204.417 52.6941 204.417 51.9825C204.417 51.3157 204.222 50.6715 203.862 50.1321C203.697 49.8849 203.599 49.765 203.524 49.7051C203.074 49.2782 202.234 48.941 201.619 48.941C201.484 48.941 201.364 48.9485 201.237 48.9709C201.132 48.9785 201.034 49.0009 200.929 48.9934C200.839 48.9934 200.757 49.0159 200.682 49.0534C200.599 49.1057 200.367 49.2407 200.367 49.5553C200.367 49.7501 200.404 49.9523 200.449 50.1246C200.472 50.2445 200.502 50.3569 200.509 50.5141C200.539 50.7089 200.547 50.9337 200.532 51.2633L200.667 53.0312C200.697 53.1961 200.704 53.3458 200.704 53.5256C200.704 53.638 200.712 53.7504 200.727 53.8628C200.749 54.1924 200.787 54.507 200.832 54.8217C200.884 55.2487 200.937 55.6532 200.944 56.0503C200.952 56.6646 200.974 57.3688 201.019 58.0279V58.1104C201.019 58.1328 201.019 58.1478 201.019 58.1629C201.102 58.7472 201.184 59.4214 201.192 60.0356C201.192 60.0955 201.199 60.148 201.229 60.2079C201.319 60.5976 201.642 60.62 201.732 60.62C201.904 60.62 202.047 60.5825 202.182 60.5375C202.264 60.5076 202.347 60.4852 202.377 60.4852C202.399 60.4852 202.512 60.4852 202.624 60.4777L202.879 60.4701C202.969 60.4626 203.052 60.4402 203.142 60.4176C203.194 60.4103 203.254 60.3877 203.314 60.3877C203.352 60.3877 203.397 60.3877 203.434 60.3877C203.584 60.3877 203.772 60.3952 203.989 60.3054C203.997 60.3054 204.049 60.2753 204.064 60.2679C204.094 60.2454 204.139 60.2305 204.169 60.2079C204.177 60.2079 204.192 60.2004 204.199 60.2004C204.207 60.2004 204.222 60.193 204.207 60.193C204.244 60.193 204.282 60.1855 204.319 60.1704C204.379 60.148 204.432 60.1181 204.484 60.0806L204.874 59.7809C204.927 59.7435 204.979 59.691 205.009 59.6386L205.047 59.5787C205.272 59.2116 205.527 58.792 205.527 58.2378V58.1629C205.527 58.0279 205.527 57.9082 205.474 57.7058C205.197 56.6645 204.672 55.7357 203.862 54.8142ZM202.152 59.4888L202.077 58.7097C202.077 58.6796 202.069 58.6497 202.054 58.6198C202.054 58.5898 202.054 58.5448 202.047 58.4999C201.987 58.0055 201.964 57.5111 201.957 56.9791C201.949 56.5597 201.934 56.1476 201.897 55.7282C201.889 55.5557 201.859 55.391 201.837 55.2187C201.814 55.0764 201.799 54.9415 201.784 54.8067C202.062 54.8441 202.347 54.9415 202.579 55.0614C202.879 55.2336 203.112 55.5333 203.344 55.8554C203.419 55.9454 203.479 56.0427 203.547 56.1177C204.004 56.702 204.507 57.5934 204.507 58.3651V58.4025C204.312 58.8969 204.177 59.1217 203.809 59.279C203.622 59.3688 203.554 59.3839 203.562 59.3839C203.179 59.3914 202.804 59.4364 202.437 59.4663L202.152 59.4888ZM201.702 53.6681C201.679 53.211 201.642 52.7541 201.597 52.3046C201.537 51.6304 201.477 50.9936 201.492 50.3269C201.492 50.2968 201.492 50.2669 201.484 50.237L201.432 49.9598C201.462 49.9598 201.507 49.9598 201.544 49.9598C202.302 49.9598 202.909 50.3718 203.194 51.076L203.344 51.4955C203.352 51.5256 203.374 51.5854 203.382 51.6304V52.2822C203.382 52.432 203.232 52.6641 203.149 52.7916C202.812 53.301 202.332 53.5856 201.702 53.6681Z" fill="black"/>
<path d="M209.848 58.9848C209.848 58.9549 209.848 58.85 209.855 58.7377C209.855 58.6177 209.863 58.4905 209.863 58.4754V58.2732C209.863 57.9961 209.87 57.5091 209.87 57.2843C209.87 57.1945 209.87 56.9248 209.863 56.6701C209.863 56.4229 209.855 56.1906 209.855 56.0782C209.803 55.404 209.803 54.7148 209.795 54.0407L209.788 53.3664C209.788 52.7747 209.78 52.1677 209.765 51.576C209.758 50.8419 209.735 50.1001 209.743 49.3735C209.743 49.2611 209.705 49.1487 209.623 49.074C209.472 48.9241 209.278 48.9241 209.203 48.9241C208.948 48.9241 208.82 49.029 208.745 49.1562C208.595 49.3287 208.438 49.5158 208.272 49.6882C208.153 49.823 208.025 49.9503 207.912 50.0853C207.875 50.1227 207.837 50.1675 207.807 50.2201L207.522 50.5198C207.11 50.9392 206.69 51.3812 206.255 51.7483C206.12 51.8232 206.037 51.9656 206.037 52.1079V52.2427C206.037 52.385 206.112 52.5049 206.225 52.5874C206.367 52.6922 206.502 52.6922 206.607 52.6922C206.743 52.6922 206.885 52.6173 207.005 52.4899L208.355 51.1265L208.685 50.7445C208.693 51.1564 208.707 51.5535 208.715 51.958C208.738 52.7521 208.768 53.5836 208.752 54.3927C208.752 54.4227 208.752 54.4526 208.76 54.4825C208.782 54.5725 208.768 54.7148 208.768 54.8423C208.768 54.9021 208.768 54.9545 208.768 55.0445C208.775 55.1569 208.85 56.1083 208.85 56.2132V58.3931C208.82 58.6552 208.82 58.7751 208.82 58.9775C208.82 59.0897 208.828 59.2021 208.828 59.3145C208.835 59.4045 208.835 59.5093 208.835 59.5991C208.835 59.6592 208.828 59.719 208.828 59.7864C208.82 59.8689 208.82 59.9363 208.82 60.0112C208.82 60.3258 209.053 60.5731 209.353 60.5731C209.668 60.5731 209.915 60.3184 209.915 59.9888C209.915 59.8764 209.885 59.794 209.863 59.7341C209.863 59.5692 209.848 59.0673 209.848 58.9848Z" fill="black"/>
<path d="M108.86 72.6619L102.837 60.7355C101.487 58.0612 102.56 54.8175 105.237 53.4615C107.915 52.1131 111.162 53.1844 112.52 55.8588L118.543 67.7849C119.893 70.4593 118.82 73.7031 116.143 75.0591C113.473 76.4 110.21 75.3362 108.86 72.6619Z" fill="#AB8DDB"/>
<path d="M113.083 66.4821C112.948 66.4972 112.656 66.5796 112.693 67.089C112.686 67.1339 112.671 67.1864 112.656 67.2389L112.648 67.2837C112.633 67.2988 112.633 67.3212 112.618 67.3362L112.558 67.516C112.393 67.8381 111.943 68.0778 111.613 68.1152C111.156 68.1602 110.908 67.988 110.443 67.6734C110.443 67.6734 110.406 67.6508 110.398 67.6433C110.248 67.5384 110.136 67.3812 110.016 67.1864C109.956 67.1039 109.903 67.0141 109.843 66.9317L109.836 66.9241L109.431 66.0627C109.386 65.9128 109.333 65.7705 109.281 65.6282C109.213 65.4409 109.146 65.2536 109.108 65.0888C109.101 65.029 109.086 64.9915 109.063 64.939C109.026 64.8117 108.928 64.3247 108.921 64.2347L108.898 64.0924C108.876 63.9352 108.853 63.6805 108.838 63.583C108.831 63.4932 108.808 63.2908 108.801 63.1635L108.868 61.6503C108.876 61.6278 108.876 61.6054 108.883 61.5829C108.883 61.5679 108.898 61.5455 108.906 61.5229C108.973 61.2159 109.011 61.0135 109.108 60.8337L109.161 60.7663C109.236 60.6539 109.341 60.5041 109.416 60.4367C109.498 60.3768 109.648 60.3393 109.746 60.3168C109.761 60.3094 109.843 60.2944 109.918 60.2719L110.263 60.227C110.758 60.1744 111.148 60.2644 111.178 60.3094L111.276 60.5041C111.298 60.5566 111.328 60.5865 111.373 60.624C111.411 60.6464 111.531 60.7364 111.696 60.7213C111.928 60.6989 112.116 60.4741 112.093 60.2569C112.063 59.9498 111.778 59.6876 111.636 59.6052C111.561 59.5453 111.478 59.5153 111.426 59.4928C111.411 59.4928 111.396 59.4852 111.381 59.4704C111.336 59.4404 111.283 59.4329 111.231 59.4329C111.193 59.4329 111.103 59.4178 111.021 59.403C110.923 59.3954 110.826 59.3804 110.766 59.3729C110.668 59.3504 110.548 59.3655 110.548 59.3655L110.233 59.3954C109.686 59.4478 109.011 59.5227 108.606 60.0846C108.486 60.227 108.373 60.4291 108.291 60.5865C108.291 60.5865 108.193 60.8038 108.163 60.9461C108.126 61.0809 108.051 61.463 108.036 61.5304C108.028 61.5528 108.028 61.5754 108.028 61.5978C108.036 61.7402 108.013 61.875 108.006 62.0099C107.998 62.1372 107.983 62.2571 107.976 62.362C107.938 62.8714 107.946 63.3808 108.013 63.9875C108.013 64.025 108.028 64.0924 108.051 64.1598C108.051 64.1598 108.051 64.1598 108.051 64.1673C108.081 64.3322 108.231 65.1188 108.276 65.3061C108.283 65.321 108.283 65.3511 108.298 65.3735C108.366 65.5158 108.411 65.6807 108.448 65.8605C108.478 65.9653 108.501 66.0627 108.538 66.16C108.591 66.3398 108.673 66.4896 108.748 66.6395C108.786 66.7144 108.823 66.7969 108.868 66.8942L108.996 67.1414C109.251 67.6508 109.521 68.1677 110.121 68.5273C110.143 68.5424 110.166 68.5572 110.196 68.5572C110.203 68.5572 110.203 68.5572 110.211 68.5572C110.668 68.872 111.066 69.0817 111.733 69.0143C112.446 68.9469 113.091 68.475 113.436 67.7707C113.466 67.6807 113.481 67.5909 113.503 67.4936C113.511 67.4486 113.526 67.4036 113.533 67.3511L113.548 67.2912C113.571 67.1939 113.601 67.0665 113.586 66.9166C113.533 66.6171 113.338 66.4522 113.083 66.4821Z" fill="black"/>
<path d="M191.471 186.422C193.571 183.32 195.289 179.777 196.526 176.196C197.644 172.952 197.981 169.124 195.971 166.293C194.298 163.925 191.141 163.274 188.883 164.884C188.366 163.753 187.458 162.877 186.251 162.547C185.366 162.307 184.481 162.412 183.685 162.779C183.115 161.888 182.328 161.169 181.383 160.742C179.545 159.902 177.37 160.255 175.728 161.506C174.633 159.925 172.353 159.521 170.612 160.367C167.83 161.715 166.262 165.304 165.055 168.113C163.735 171.192 162.76 174.443 162.242 177.762C161.8 180.594 161.702 183.845 163.51 186.115C164.822 187.77 167.147 188.504 169.037 187.695C169.487 189.591 170.725 191.216 172.465 191.928C174.235 192.655 176.26 192.332 177.85 191.209C178.938 193.322 181.623 194.123 183.813 193.455C187.038 192.46 189.566 189.239 191.471 186.422Z" fill="#F8CD3D"/>
<path d="M192.333 168.165C190.308 166.832 188.485 165.79 185.807 165.333C186.017 164.674 187.6 160.591 188.02 158.689C187.285 158.389 186.543 158.112 185.762 157.925C184.982 159.985 184.075 161.977 183.025 163.903C180.467 162.277 177.415 161.887 174.474 162.839C173.634 163.109 173.927 164.277 174.602 164.464C176.222 164.921 177.73 165.67 179.095 166.682C177.512 168.667 176.26 170.907 175.382 173.342C175.112 174.098 175.87 174.885 176.537 174.353C178.367 172.907 180.317 171.723 182.402 170.802C183.527 172.465 184.577 174.181 185.56 175.949C185.957 176.66 187.097 176.173 186.992 175.357C186.76 173.581 186.407 171.843 185.935 170.135C187.923 169.978 189.91 169.813 191.89 169.656C192.52 169.618 192.925 168.547 192.333 168.165Z" fill="#32B2A8"/>
<path d="M172.6 176.406C170.425 179.889 169.075 183.875 168.693 187.957" stroke="black" stroke-width="1.4" stroke-miterlimit="10" stroke-linecap="round" stroke-linejoin="round"/>
<path d="M184.855 178.481C182.838 182.826 180.805 187.193 178.037 191.104" stroke="black" stroke-width="1.4" stroke-miterlimit="10" stroke-linecap="round" stroke-linejoin="round"/>
<path d="M294.022 50.592C298.35 50.1874 300.06 50.4947 304.386 50.1874C304.589 52.0978 307.208 53.0043 309.014 53.5062C310.823 54.1054 312.841 53.5062 314.242 52.3C315.652 51.0939 316.358 49.0863 316.253 47.2734C316.156 45.363 315.248 43.4528 313.636 42.3516C312.127 41.2429 309.915 40.9432 308.204 41.6474C306.397 42.449 305.19 44.2619 305.19 46.1721C301.267 46.4718 297.443 46.1721 293.519 46.4718C292.814 44.2619 290.804 42.2542 288.486 42.2542C286.169 42.2542 283.86 43.8649 283.153 46.0748C282.952 46.7789 282.853 47.5805 282.853 48.2847C282.853 50.7944 284.061 53.5062 286.477 54.4126C287.887 55.0119 289.995 55.4164 291.202 54.51C292.515 53.611 294.127 52.2027 294.022 50.592Z" fill="#F8CD3D"/>
<path d="M292.213 49.6926C296.242 49.393 300.06 49.1907 304.087 48.7861C304.184 50.5917 305.594 52.1049 307.305 52.6068C309.015 53.1086 310.927 52.6068 312.233 51.4981C313.537 50.292 314.242 48.4866 314.145 46.7786C314.048 44.9732 313.14 43.1603 311.73 42.1564C310.319 41.1525 308.212 40.8529 306.6 41.5571C304.889 42.2613 303.779 44.0667 303.779 45.8796C300.06 46.0818 296.436 45.8796 292.716 46.1792C292.011 44.0667 290.099 42.1564 287.991 42.1564C285.876 42.1564 283.664 43.6622 282.959 45.7746C282.756 46.4789 282.659 47.1831 282.659 47.8872C282.659 50.2995 283.866 52.8091 286.078 53.7156C287.488 54.2175 289.094 54.0151 290.301 53.2135C291.306 52.2022 292.213 51.1984 292.213 49.6926Z" stroke="black" stroke-width="1.4" stroke-miterlimit="10" stroke-linecap="round" stroke-linejoin="round"/>
<path d="M271.4 44.0967C274.873 41.4897 276.486 40.853 280.019 38.3359C281.189 39.8566 283.897 39.2573 285.697 38.7404C287.557 38.3059 288.952 36.7402 289.521 34.9798C290.092 33.2193 289.633 31.1367 288.598 29.6459C287.512 28.0728 285.742 26.9191 283.791 26.8217C281.924 26.6719 279.883 27.5708 278.796 29.0616C277.678 30.6947 277.596 32.8672 278.594 34.4928C275.406 36.8001 271.993 38.5456 268.813 40.853C267.05 39.3397 264.282 38.6805 262.318 39.8866C260.345 41.1002 259.22 43.6772 259.775 45.932C259.97 46.6362 260.307 47.3704 260.675 47.9697C261.995 50.1122 264.448 51.7903 266.975 51.2959C268.49 51.0712 270.501 50.307 271.055 48.906C271.7 47.4529 272.331 45.4152 271.4 44.0967Z" fill="#F8CD3D"/>
<path d="M269.383 44.277C272.653 41.9171 275.802 39.7446 279.021 37.295C280.055 38.7858 282.043 39.3326 283.768 38.8607C285.486 38.3962 286.85 36.9654 287.391 35.3398C287.872 33.6317 287.527 31.7214 286.544 30.3206C285.509 28.8298 283.791 27.766 282.066 27.6462C280.34 27.5263 278.383 28.3728 277.378 29.8186C276.291 31.3094 276.298 33.4295 277.242 34.9727C274.175 37.0927 270.988 38.8157 267.973 41.0182C266.263 39.5873 263.638 38.9655 261.837 40.0668C260.037 41.1755 258.942 43.6177 259.452 45.7826C259.647 46.4869 259.932 47.1386 260.3 47.7379C261.568 49.7906 263.907 51.3038 266.27 50.9143C267.733 50.6071 269.001 49.5882 269.607 48.2772C269.93 46.8839 270.178 45.5579 269.383 44.277Z" stroke="black" stroke-width="1.4" stroke-miterlimit="10" stroke-linecap="round" stroke-linejoin="round"/>
<path d="M193.157 107.029C193.157 107.029 196.352 102.392 201.077 102.19C205.803 101.988 210.348 106.198 214.945 104.939C219.543 103.681 225.656 106.303 225.656 106.303C225.656 106.303 220.901 133.219 218.951 135.197C217.008 137.182 206.35 137.564 201.415 135.976C196.48 134.388 192.64 132.897 192.31 127.683C191.98 122.484 193.157 107.029 193.157 107.029Z" fill="white"/>
<path d="M199.782 91.2454C207.62 93.7249 215.953 94.6539 224.143 93.9572C226.19 93.7849 228.86 93.8149 229.438 91.8521C229.918 90.2265 225.313 85.9714 212.052 84.3383C207.342 83.7615 202.512 82.855 197.959 84.1736C196.392 84.6305 193.647 86.0539 194.352 88.0915C194.989 89.9344 198.177 90.7435 199.782 91.2454Z" stroke="black" stroke-width="1.4" stroke-miterlimit="10" stroke-linecap="round" stroke-linejoin="round"/>
<path d="M193.946 87.2986C194.014 101.352 193.729 115.414 193.084 129.452" stroke="black" stroke-width="1.4" stroke-miterlimit="10" stroke-linecap="round" stroke-linejoin="round"/>
<path d="M193.572 130.942C195.154 135.287 207.275 138.261 215.06 137.616C216.92 137.459 219.575 136.35 219.943 134.8C223.145 121.285 226.348 107.763 229.551 94.2417" stroke="black" stroke-width="1.4" stroke-miterlimit="10" stroke-linecap="round" stroke-linejoin="round"/>
<path d="M194.584 128.912C195.784 126.709 199.092 126.41 201.919 126.117C204.747 125.825 207.604 126.147 210.394 126.702" stroke="black" stroke-width="1.4" stroke-miterlimit="10" stroke-linecap="round" stroke-linejoin="round"/>
<path d="M212.487 127.586C216.185 128.627 219.208 131.557 219.035 133.52" stroke="black" stroke-width="1.4" stroke-miterlimit="10" stroke-linecap="round" stroke-linejoin="round"/>
<path d="M210.61 98.8417C210.483 100.677 210.753 102.423 211.706 102.685C212.658 102.947 214.068 102.745 214.841 101.299C215.621 99.8531 215.404 98.5943 214.864 97.448C214.331 96.2942 210.738 96.961 210.61 98.8417Z" fill="white"/>
<path d="M217.024 99.3661C216.589 100.595 216.521 102.026 217.227 102.483C217.939 102.948 219.012 103.068 219.897 101.809C220.782 100.55 222.613 99.1863 221.555 98.2573C220.505 97.3432 217.722 97.4032 217.024 99.3661Z" fill="white"/>
<path d="M188.749 120.042L185.764 119.712C180.866 119.173 177.326 114.783 177.858 109.884L178.188 106.902C178.728 102.01 183.124 98.4746 188.029 99.0064L191.014 99.336C195.912 99.8754 199.452 104.265 198.919 109.165L198.589 112.146C198.057 117.046 193.654 120.581 188.749 120.042Z" fill="#F38059"/>
<path d="M187.316 112.507C187.144 112.484 186.724 112.484 186.611 113.159C186.581 113.211 186.551 113.286 186.514 113.338L186.491 113.391C186.469 113.413 186.446 113.436 186.439 113.451L186.304 113.66C185.974 114.027 185.321 114.185 184.878 114.11C184.279 114.027 184.001 113.713 183.521 113.143L183.476 113.091C183.304 112.904 183.221 112.657 183.131 112.364C183.086 112.237 183.033 112.102 182.981 111.975C182.981 111.975 182.981 111.967 182.974 111.967L182.733 110.716C182.726 110.514 182.711 110.304 182.689 110.102C182.666 109.84 182.643 109.563 182.643 109.345C182.651 109.27 182.643 109.211 182.636 109.136C182.636 108.956 182.666 108.289 182.681 108.177L182.703 107.975C182.733 107.765 182.778 107.428 182.801 107.293C182.823 107.165 182.861 106.903 182.898 106.746L183.498 104.806C183.506 104.783 183.521 104.753 183.543 104.723C183.551 104.701 183.573 104.678 183.589 104.663C183.769 104.281 183.896 104.042 184.083 103.832L184.166 103.757C184.301 103.63 184.481 103.472 184.601 103.412C184.728 103.36 184.931 103.36 185.074 103.36C185.096 103.36 185.201 103.367 185.313 103.367L185.801 103.42C186.454 103.517 186.934 103.757 186.964 103.839L187.024 104.124C187.031 104.184 187.069 104.236 187.099 104.296C187.121 104.326 187.271 104.521 187.496 104.551C187.804 104.596 188.119 104.371 188.164 104.064C188.224 103.652 187.939 103.218 187.796 103.06C187.721 102.955 187.624 102.888 187.564 102.85C187.541 102.843 187.519 102.828 187.511 102.805C187.459 102.761 187.399 102.723 187.331 102.701C187.286 102.693 187.174 102.641 187.069 102.596C186.956 102.543 186.829 102.498 186.754 102.468C186.626 102.408 186.476 102.386 186.476 102.386L186.056 102.326C185.329 102.221 184.429 102.086 183.716 102.686C183.513 102.836 183.296 103.053 183.146 103.233C183.146 103.233 182.943 103.487 182.861 103.652C182.763 103.809 182.531 104.281 182.501 104.371C182.493 104.401 182.478 104.424 182.471 104.454C182.426 104.633 182.366 104.813 182.298 104.978C182.246 105.135 182.186 105.293 182.141 105.427C181.931 106.072 181.773 106.746 181.646 107.548C181.638 107.6 181.638 107.682 181.623 107.78V107.787C181.601 108.012 181.541 109.083 181.541 109.338C181.541 109.368 181.541 109.398 181.548 109.42C181.578 109.63 181.593 109.862 181.593 110.102C181.593 110.237 181.593 110.387 181.601 110.514C181.608 110.754 181.653 110.986 181.706 111.211C181.728 111.323 181.751 111.436 181.781 111.578L181.863 111.937C182.021 112.672 182.193 113.443 182.869 114.11C182.891 114.132 182.921 114.155 182.951 114.17C182.958 114.17 182.958 114.177 182.974 114.177C183.468 114.739 183.903 115.136 184.796 115.271C185.749 115.406 186.739 115.031 187.414 114.23C187.489 114.125 187.541 114.005 187.594 113.893C187.616 113.84 187.646 113.788 187.676 113.713L187.706 113.653C187.766 113.526 187.856 113.376 187.886 113.181C187.864 112.836 187.661 112.559 187.316 112.507Z" fill="black"/>
<path d="M195.036 108.987C195.089 108.65 194.864 108.335 194.526 108.283C194.188 108.23 193.873 108.455 193.821 108.792C193.798 108.897 193.791 109.017 193.768 109.122C193.588 108.965 193.378 108.815 193.138 108.687C191.9 108.073 190.408 108.215 189.478 109.032C189.192 109.287 188.953 109.601 188.742 109.991C188.127 111.123 188.067 112.426 188.562 113.46C189.012 114.412 189.958 115.049 190.925 115.168C191.188 115.198 191.45 115.191 191.705 115.138C192.336 115.011 192.853 114.674 193.318 114.262C193.318 114.599 193.311 114.929 193.311 115.266C193.318 115.581 193.551 115.835 193.858 115.865C193.888 115.865 193.911 115.865 193.941 115.865C194.279 115.858 194.556 115.581 194.541 115.243C194.519 113.153 194.691 111.048 195.036 108.987ZM193.086 112.748C192.613 113.288 192.081 113.805 191.48 113.932C190.805 114.067 190.01 113.625 189.673 112.928C189.342 112.254 189.41 111.347 189.823 110.568C189.958 110.306 190.115 110.104 190.288 109.946C190.835 109.459 191.796 109.384 192.576 109.774C192.778 109.879 193.138 110.088 193.243 110.403C193.296 110.561 193.401 110.68 193.536 110.748C193.476 111.347 193.423 111.962 193.378 112.561C193.288 112.606 193.168 112.658 193.086 112.748Z" fill="black"/>
</g>
<defs>
<clipPath id="clip0_1_138">
<rect width="288" height="194" fill="white" transform="translate(96 26)"/>
</clipPath>
</defs>
</svg>
