<svg width="180" height="44" viewBox="0 0 180 44" fill="none" xmlns="http://www.w3.org/2000/svg">
<path d="M61 29V15.0993H62.1581L73.5742 27.1929V15.0993H74.7559V29H73.8341L62.1818 16.6482V29H61Z" fill="#343434"/>
<path d="M86.291 29L93.9963 15H95.178L102.883 29H101.536L99.4324 25.1078H89.6709L87.5674 29H86.291ZM90.1909 24.1745H98.9125L94.5635 16.1319L90.1909 24.1745Z" fill="#343434"/>
<path d="M114.418 29V15.0993H121.367C123.384 15.0993 124.936 15.556 126.023 16.4695C126.859 17.1712 127.276 18.0449 127.276 19.0908C127.276 20.2161 126.835 21.1163 125.953 21.7915C125.07 22.4667 123.896 22.8903 122.431 23.0624L127.891 29H126.331L121.06 23.2411H115.647V29H114.418ZM115.647 22.3078H121.225C122.644 22.3078 123.802 22.0232 124.7 21.4539C125.598 20.8714 126.047 20.0837 126.047 19.0908C126.047 18.1508 125.63 17.4095 124.794 16.8667C123.959 16.3239 122.793 16.0525 121.296 16.0525H115.647V22.3078Z" fill="#343434"/>
<path d="M138.117 29L145.822 15H147.004L154.709 29H153.362L151.258 25.1078H141.497L139.393 29H138.117ZM142.017 24.1745H150.738L146.389 16.1319L142.017 24.1745Z" fill="#343434"/>
<path d="M166.244 29V15.0993H167.402L178.818 27.1929V15.0993H180V29H179.078L167.426 16.6482V29H166.244Z" fill="#343434"/>
<circle cx="22" cy="22" r="22" fill="#ED6F2D"/>
</svg>
