<svg width="88" height="88" viewBox="0 0 88 88" fill="none" xmlns="http://www.w3.org/2000/svg">
<path d="M88 0H0V88H88V0Z" fill="white"/>
<path d="M62.1001 59.3C69.7001 45.4 82.2001 21.7 84.2001 17.1C86.2001 12.5 86.0001 6.59999 76.1001 5.89999C66.2001 5.19999 17.3001 5.99999 6.40006 6.59999C3.00006 6.79999 1.70006 9.09999 2.50006 12.1C3.50006 16 6.40006 23.4 8.90006 28.6C15.0001 40.9 20.7001 52.6 25.4001 61.1C31.7001 72.3 39.0001 84.9 43.2001 84.9C47.0001 84.9 53.8001 74.3 62.1001 59.3Z" fill="#FBB49B"/>
<path d="M17.3 25.8C21.1 26.1 24.9001 24.8 27.7001 22.3C28.5001 21.6 29.2001 20 28.2001 19.5C27.3001 19.1 26.5 20.3 26.3 21.3C25.4 25.2 25.7 29.4 27 33.2C28.4 37.1 31.1 40.9 30.9 45.1C30.8 47.1 30.2 49 29.5 50.8C25.9 61.6 23.6 73.3 26.8 84.2" stroke="#030000" stroke-miterlimit="10" stroke-linecap="round" stroke-linejoin="round"/>
<path d="M69.5 26.9C65.9 26.3 62.6 24.4 60.3 21.6" stroke="#030000" stroke-miterlimit="10" stroke-linecap="round" stroke-linejoin="round"/>
<path d="M60.5 24.4C61.7 30.1 57.9 35.6 57.4 41.3C57.1 45.3 58.3 49.2 59.2 53.1C61.2 61.9 61.4 71.2 59.8 80.1" stroke="#030000" stroke-miterlimit="10" stroke-linecap="round" stroke-linejoin="round"/>
<path d="M29.2002 26C31.0002 27.3 33.3002 27.8 35.6002 27.8C37.8002 27.8 40.9002 26.7 40.9002 26.7" stroke="#030000" stroke-miterlimit="10" stroke-linecap="round" stroke-linejoin="round"/>
<path d="M46.1001 26.9C48.6001 27.9 54.1001 27.7 56.6001 26.6" stroke="#030000" stroke-miterlimit="10" stroke-linecap="round" stroke-linejoin="round"/>
<path d="M30.8 48.1C39.1 47.9 47.4001 47.6 55.7001 47.1" stroke="#030000" stroke-miterlimit="10" stroke-linecap="round" stroke-linejoin="round"/>
<path d="M44.3 61.2C43.3 70.3 40.4 79.1 35.8 87" stroke="#030000" stroke-miterlimit="10" stroke-linecap="round" stroke-linejoin="round"/>
<path d="M42.7002 60.9C45.5002 61.6 48.7002 60.6 50.7002 58.4" stroke="#030000" stroke-miterlimit="10" stroke-linecap="round" stroke-linejoin="round"/>
<path d="M45.1999 61.2C44.7999 70.1 47.8999 79 51.4999 87.1" stroke="#030000" stroke-miterlimit="10" stroke-linecap="round" stroke-linejoin="round"/>
<path d="M20.6001 13.5C25.3001 8.60003 33.0001 6.70003 39.4001 8.90003" stroke="#030000" stroke-miterlimit="10" stroke-linecap="round" stroke-linejoin="round"/>
<path d="M49.4 1.10001C49.7 3.40001 50 5.70001 50.4 8.00001C50.5 8.70001 50.6 9.50001 50.3 10.1C50 10.7 49.1 11.2 48.5 10.8C48.2 10.6 48 10.1 48 9.70001C48 8.20001 49.8 7.40001 51.3 7.20001C57.5 6.30001 64 9.40001 67.4 14.7" stroke="#030000" stroke-miterlimit="10" stroke-linecap="round" stroke-linejoin="round"/>
<path d="M26.3999 78.3C30.5999 78.6 34.6999 79.1 38.7999 79.8" stroke="#030000" stroke-miterlimit="10" stroke-linecap="round" stroke-linejoin="round"/>
<path d="M48.5 80C51.5 79.4 54.6 78.8 57.6 78.3" stroke="#030000" stroke-miterlimit="10" stroke-linecap="round" stroke-linejoin="round"/>
<path d="M33.8 8.5C34.9 11.5 36.6 14.4 39.1 16.4C41.6 18.4 45 19.5 48.1 18.7C50.3 18.1 52.2 16.7 53.6 14.9C55 13.1 56 11 56.6 8.8" stroke="#030000" stroke-miterlimit="10" stroke-linecap="round" stroke-linejoin="round"/>
<path d="M57.9999 9C57.8999 10.7 57.6999 12.4 57.5999 14.2C57.3999 16.9 57.6999 22.4 60.0999 24.3" stroke="#030000" stroke-miterlimit="10" stroke-linecap="round" stroke-linejoin="round"/>
<path d="M30.3 16.4C31.5 13.9 32 11 31.8 8.20001" stroke="#030000" stroke-miterlimit="10" stroke-linecap="round" stroke-linejoin="round"/>
</svg>
