<svg width="452" height="264" viewBox="0 0 452 264" fill="none" xmlns="http://www.w3.org/2000/svg">
<path d="M6.24 8.092C6.24 8.58 6.204 9.068 6.132 9.556C6.068 10.036 5.952 10.492 5.784 10.924C5.616 11.348 5.384 11.728 5.088 12.064C4.792 12.392 4.416 12.652 3.96 12.844C3.504 13.028 2.952 13.12 2.304 13.12C2.144 13.12 1.956 13.108 1.74 13.084C1.532 13.068 1.36 13.04 1.224 13V12.1C1.368 12.148 1.536 12.188 1.728 12.22C1.92 12.244 2.104 12.256 2.28 12.256C2.84 12.256 3.3 12.164 3.66 11.98C4.028 11.796 4.32 11.548 4.536 11.236C4.752 10.916 4.908 10.548 5.004 10.132C5.1 9.708 5.156 9.264 5.172 8.8H5.1C4.98 8.984 4.828 9.152 4.644 9.304C4.46 9.456 4.236 9.576 3.972 9.664C3.716 9.752 3.412 9.796 3.06 9.796C2.572 9.796 2.14 9.696 1.764 9.496C1.396 9.288 1.108 8.992 0.9 8.608C0.7 8.224 0.6 7.756 0.6 7.204C0.6 6.604 0.712 6.088 0.936 5.656C1.168 5.224 1.488 4.892 1.896 4.66C2.304 4.428 2.784 4.312 3.336 4.312C3.744 4.312 4.124 4.392 4.476 4.552C4.828 4.704 5.136 4.936 5.4 5.248C5.664 5.56 5.868 5.952 6.012 6.424C6.164 6.896 6.24 7.452 6.24 8.092ZM3.336 5.2C2.84 5.2 2.432 5.364 2.112 5.692C1.8 6.02 1.644 6.52 1.644 7.192C1.644 7.744 1.776 8.18 2.04 8.5C2.312 8.812 2.728 8.968 3.288 8.968C3.672 8.968 4.004 8.892 4.284 8.74C4.564 8.58 4.78 8.38 4.932 8.14C5.092 7.9 5.172 7.652 5.172 7.396C5.172 7.14 5.132 6.884 5.052 6.628C4.98 6.364 4.868 6.124 4.716 5.908C4.564 5.692 4.372 5.52 4.14 5.392C3.908 5.264 3.64 5.2 3.336 5.2ZM13.1432 8.704C13.1432 9.4 13.0912 10.02 12.9872 10.564C12.8832 11.108 12.7152 11.572 12.4832 11.956C12.2592 12.332 11.9632 12.62 11.5952 12.82C11.2352 13.02 10.7992 13.12 10.2872 13.12C9.64719 13.12 9.11519 12.944 8.69119 12.592C8.27519 12.24 7.96319 11.736 7.75519 11.08C7.55519 10.416 7.45519 9.624 7.45519 8.704C7.45519 7.776 7.54719 6.984 7.73119 6.328C7.92319 5.672 8.22719 5.172 8.64319 4.828C9.05919 4.476 9.60719 4.3 10.2872 4.3C10.9272 4.3 11.4592 4.476 11.8832 4.828C12.3072 5.172 12.6232 5.672 12.8312 6.328C13.0392 6.984 13.1432 7.776 13.1432 8.704ZM8.51119 8.704C8.51119 9.488 8.56719 10.14 8.67919 10.66C8.79919 11.18 8.98719 11.572 9.24319 11.836C9.50719 12.092 9.85519 12.22 10.2872 12.22C10.7192 12.22 11.0632 12.092 11.3192 11.836C11.5832 11.58 11.7752 11.192 11.8952 10.672C12.0152 10.144 12.0752 9.488 12.0752 8.704C12.0752 7.92 12.0152 7.272 11.8952 6.76C11.7752 6.24 11.5832 5.852 11.3192 5.596C11.0632 5.332 10.7192 5.2 10.2872 5.2C9.85519 5.2 9.50719 5.332 9.24319 5.596C8.98719 5.852 8.79919 6.24 8.67919 6.76C8.56719 7.272 8.51119 7.92 8.51119 8.704Z" fill="#444444"/>
<path d="M1.632 93L5.148 85.392H0.528V84.432H6.276V85.248L2.796 93H1.632ZM8.49919 93L12.0152 85.392H7.39519V84.432H13.1432V85.248L9.66319 93H8.49919Z" fill="#444444"/>
<path d="M0.66 169.34C0.66 168.844 0.692 168.356 0.756 167.876C0.828 167.396 0.948 166.944 1.116 166.52C1.284 166.088 1.516 165.708 1.812 165.38C2.108 165.044 2.48 164.784 2.928 164.6C3.384 164.408 3.936 164.312 4.584 164.312C4.752 164.312 4.936 164.32 5.136 164.336C5.344 164.352 5.512 164.38 5.64 164.42V165.32C5.496 165.272 5.332 165.236 5.148 165.212C4.972 165.188 4.792 165.176 4.608 165.176C4.056 165.176 3.596 165.268 3.228 165.452C2.86 165.636 2.568 165.888 2.352 166.208C2.144 166.528 1.992 166.896 1.896 167.312C1.8 167.728 1.74 168.172 1.716 168.644H1.788C1.908 168.452 2.06 168.28 2.244 168.128C2.428 167.976 2.648 167.856 2.904 167.768C3.168 167.68 3.472 167.636 3.816 167.636C4.312 167.636 4.744 167.74 5.112 167.948C5.488 168.148 5.78 168.444 5.988 168.836C6.196 169.22 6.3 169.688 6.3 170.24C6.3 170.832 6.188 171.344 5.964 171.776C5.74 172.208 5.424 172.54 5.016 172.772C4.616 173.004 4.136 173.12 3.576 173.12C3.168 173.12 2.788 173.044 2.436 172.892C2.084 172.74 1.772 172.508 1.5 172.196C1.236 171.884 1.028 171.492 0.876 171.02C0.732 170.54 0.66 169.98 0.66 169.34ZM3.564 172.232C4.068 172.232 4.476 172.072 4.788 171.752C5.1 171.424 5.256 170.92 5.256 170.24C5.256 169.696 5.116 169.264 4.836 168.944C4.564 168.624 4.152 168.464 3.6 168.464C3.224 168.464 2.896 168.544 2.616 168.704C2.336 168.856 2.116 169.052 1.956 169.292C1.804 169.532 1.728 169.78 1.728 170.036C1.728 170.3 1.764 170.56 1.836 170.816C1.916 171.072 2.032 171.308 2.184 171.524C2.344 171.74 2.536 171.912 2.76 172.04C2.992 172.168 3.26 172.232 3.564 172.232ZM12.7832 166.436C12.7832 166.82 12.7112 167.152 12.5672 167.432C12.4232 167.712 12.2152 167.94 11.9432 168.116C11.6792 168.292 11.3672 168.416 11.0072 168.488V168.536C11.6952 168.616 12.2072 168.832 12.5432 169.184C12.8792 169.536 13.0472 169.996 13.0472 170.564C13.0472 171.06 12.9312 171.504 12.6992 171.896C12.4672 172.28 12.1072 172.58 11.6192 172.796C11.1392 173.012 10.5192 173.12 9.75919 173.12C9.31119 173.12 8.89519 173.084 8.51119 173.012C8.12719 172.948 7.75919 172.828 7.40719 172.652V171.668C7.76719 171.844 8.15519 171.984 8.57119 172.088C8.98719 172.184 9.38719 172.232 9.77119 172.232C10.5392 172.232 11.0912 172.084 11.4272 171.788C11.7712 171.484 11.9432 171.068 11.9432 170.54C11.9432 170.18 11.8472 169.892 11.6552 169.676C11.4712 169.452 11.1992 169.288 10.8392 169.184C10.4792 169.08 10.0472 169.028 9.54319 169.028H8.71519V168.128H9.55519C10.0272 168.128 10.4192 168.06 10.7312 167.924C11.0512 167.788 11.2912 167.6 11.4512 167.36C11.6192 167.112 11.7032 166.828 11.7032 166.508C11.7032 166.092 11.5632 165.772 11.2832 165.548C11.0032 165.316 10.6232 165.2 10.1432 165.2C9.83919 165.2 9.56319 165.232 9.31519 165.296C9.06719 165.352 8.83519 165.436 8.61919 165.548C8.41119 165.652 8.19919 165.776 7.98319 165.92L7.45519 165.2C7.66319 165.04 7.89919 164.892 8.16319 164.756C8.43519 164.62 8.73519 164.512 9.06319 164.432C9.39119 164.352 9.74719 164.312 10.1312 164.312C11.0272 164.312 11.6912 164.512 12.1232 164.912C12.5632 165.312 12.7832 165.82 12.7832 166.436Z" fill="#444444"/>
<path d="M3.3 247.744C3.884 247.744 4.392 247.844 4.824 248.044C5.256 248.244 5.588 248.532 5.82 248.908C6.06 249.276 6.18 249.728 6.18 250.264C6.18 250.856 6.052 251.368 5.796 251.8C5.54 252.224 5.172 252.552 4.692 252.784C4.22 253.008 3.648 253.12 2.976 253.12C2.536 253.12 2.12 253.08 1.728 253C1.344 252.92 1.02 252.804 0.756 252.652V251.656C1.044 251.832 1.392 251.972 1.8 252.076C2.216 252.172 2.612 252.22 2.988 252.22C3.412 252.22 3.78 252.156 4.092 252.028C4.412 251.892 4.66 251.688 4.836 251.416C5.012 251.136 5.1 250.788 5.1 250.372C5.1 249.812 4.928 249.384 4.584 249.088C4.24 248.784 3.696 248.632 2.952 248.632C2.728 248.632 2.472 248.652 2.184 248.692C1.896 248.732 1.664 248.772 1.488 248.812L0.96 248.476L1.284 244.432H5.58V245.392H2.184L1.98 247.876C2.116 247.852 2.3 247.824 2.532 247.792C2.764 247.76 3.02 247.744 3.3 247.744ZM13.1432 248.704C13.1432 249.4 13.0912 250.02 12.9872 250.564C12.8832 251.108 12.7152 251.572 12.4832 251.956C12.2592 252.332 11.9632 252.62 11.5952 252.82C11.2352 253.02 10.7992 253.12 10.2872 253.12C9.64719 253.12 9.11519 252.944 8.69119 252.592C8.27519 252.24 7.96319 251.736 7.75519 251.08C7.55519 250.416 7.45519 249.624 7.45519 248.704C7.45519 247.776 7.54719 246.984 7.73119 246.328C7.92319 245.672 8.22719 245.172 8.64319 244.828C9.05919 244.476 9.60719 244.3 10.2872 244.3C10.9272 244.3 11.4592 244.476 11.8832 244.828C12.3072 245.172 12.6232 245.672 12.8312 246.328C13.0392 246.984 13.1432 247.776 13.1432 248.704ZM8.51119 248.704C8.51119 249.488 8.56719 250.14 8.67919 250.66C8.79919 251.18 8.98719 251.572 9.24319 251.836C9.50719 252.092 9.85519 252.22 10.2872 252.22C10.7192 252.22 11.0632 252.092 11.3192 251.836C11.5832 251.58 11.7752 251.192 11.8952 250.672C12.0152 250.144 12.0752 249.488 12.0752 248.704C12.0752 247.92 12.0152 247.272 11.8952 246.76C11.7752 246.24 11.5832 245.852 11.3192 245.596C11.0632 245.332 10.7192 245.2 10.2872 245.2C9.85519 245.2 9.50719 245.332 9.24319 245.596C8.98719 245.852 8.79919 246.24 8.67919 246.76C8.56719 247.272 8.51119 247.92 8.51119 248.704Z" fill="#444444"/>
<line y1="19.5" x2="452" y2="19.5" stroke="#E6E6E6"/>
<line y1="99.5" x2="452" y2="99.5" stroke="#E6E6E6"/>
<line y1="179.5" x2="452" y2="179.5" stroke="#E6E6E6"/>
<line y1="259.5" x2="452" y2="259.5" stroke="#E6E6E6"/>
<path d="M62 19L148.5 49.5L234 191L320 259.5" stroke="url(#paint0_linear_1_18)" stroke-width="2"/>
<circle cx="62" cy="19" r="4" fill="url(#paint1_linear_1_18)"/>
<circle cx="148" cy="50" r="4" fill="url(#paint2_linear_1_18)"/>
<circle cx="234" cy="191" r="4" fill="url(#paint3_linear_1_18)"/>
<circle cx="320" cy="260" r="4" fill="url(#paint4_linear_1_18)"/>
<defs>
<linearGradient id="paint0_linear_1_18" x1="65.9999" y1="19" x2="233.431" y2="268.759" gradientUnits="userSpaceOnUse">
<stop stop-color="#F3C749"/>
<stop offset="0.127359" stop-color="#E6A73E"/>
<stop offset="0.234375" stop-color="#F39F3C"/>
<stop offset="0.317708" stop-color="#F79728"/>
<stop offset="0.453125" stop-color="#FA6C24"/>
<stop offset="0.69008" stop-color="#FB4820"/>
<stop offset="0.82121" stop-color="#F77218"/>
<stop offset="0.953125" stop-color="#F8B44F"/>
</linearGradient>
<linearGradient id="paint1_linear_1_18" x1="58" y1="15" x2="66" y2="23" gradientUnits="userSpaceOnUse">
<stop stop-color="#F3C749"/>
<stop offset="0.127359" stop-color="#E6A73E"/>
<stop offset="0.234375" stop-color="#F39F3C"/>
<stop offset="0.317708" stop-color="#F79728"/>
<stop offset="0.453125" stop-color="#FA6C24"/>
<stop offset="0.69008" stop-color="#FB4820"/>
<stop offset="0.82121" stop-color="#F77218"/>
<stop offset="0.953125" stop-color="#F8B44F"/>
</linearGradient>
<linearGradient id="paint2_linear_1_18" x1="144" y1="46" x2="152" y2="54" gradientUnits="userSpaceOnUse">
<stop stop-color="#F3C749"/>
<stop offset="0.127359" stop-color="#E6A73E"/>
<stop offset="0.234375" stop-color="#F39F3C"/>
<stop offset="0.317708" stop-color="#F79728"/>
<stop offset="0.453125" stop-color="#FA6C24"/>
<stop offset="0.69008" stop-color="#FB4820"/>
<stop offset="0.82121" stop-color="#F77218"/>
<stop offset="0.953125" stop-color="#F8B44F"/>
</linearGradient>
<linearGradient id="paint3_linear_1_18" x1="230" y1="187" x2="238" y2="195" gradientUnits="userSpaceOnUse">
<stop stop-color="#F3C749"/>
<stop offset="0.127359" stop-color="#E6A73E"/>
<stop offset="0.234375" stop-color="#F39F3C"/>
<stop offset="0.317708" stop-color="#F79728"/>
<stop offset="0.453125" stop-color="#FA6C24"/>
<stop offset="0.69008" stop-color="#FB4820"/>
<stop offset="0.82121" stop-color="#F77218"/>
<stop offset="0.953125" stop-color="#F8B44F"/>
</linearGradient>
<linearGradient id="paint4_linear_1_18" x1="316" y1="256" x2="324" y2="264" gradientUnits="userSpaceOnUse">
<stop stop-color="#F3C749"/>
<stop offset="0.127359" stop-color="#E6A73E"/>
<stop offset="0.234375" stop-color="#F39F3C"/>
<stop offset="0.317708" stop-color="#F79728"/>
<stop offset="0.453125" stop-color="#FA6C24"/>
<stop offset="0.69008" stop-color="#FB4820"/>
<stop offset="0.82121" stop-color="#F77218"/>
<stop offset="0.953125" stop-color="#F8B44F"/>
</linearGradient>
</defs>
</svg>
