<svg width="24" height="24" viewBox="0 0 24 24" fill="none" xmlns="http://www.w3.org/2000/svg">
<path d="M18.1431 13.1927C18.0431 13.1927 17.8431 13.0927 17.7431 13.0927C13.7431 12.8927 9.64307 12.8927 5.64307 12.9927C5.24307 12.9927 4.94307 13.1927 4.64307 13.3927C4.44307 13.4927 4.24307 13.6927 4.14307 13.8927C5.04307 16.9927 6.34307 19.9927 7.64307 22.9927C9.24307 22.9927 10.9431 22.9927 12.5431 22.9927C13.8431 22.9927 16.6431 22.9927 16.6431 22.9927C17.4431 22.0927 18.2431 20.2927 18.6431 19.1927C19.1431 17.7927 19.7431 16.2927 20.3431 14.8927C20.8431 13.5927 19.1431 12.6927 18.1431 13.1927Z" fill="#C6896B"/>
<path d="M18.4433 7.09266C18.3433 5.99266 17.7433 4.99265 16.6433 4.39265C15.3433 3.69265 13.9433 3.89266 12.8433 4.59266C11.5433 3.29266 9.64333 2.79266 7.84333 3.59266C5.64333 4.49266 4.64333 6.49266 4.64333 8.69266C3.04333 9.09266 1.74332 10.5927 2.04332 12.4927C2.54332 15.8927 6.44333 16.5927 8.94333 14.8927L9.04332 14.7927C10.6433 16.6927 13.6433 17.0927 15.6433 15.2927C18.0433 16.5927 21.2433 15.4927 22.0433 12.5927C22.8433 9.79266 20.8433 7.49266 18.4433 7.09266Z" fill="#A0DFDA"/>
<path d="M15.5433 3.69268C15.5433 3.19268 15.4434 2.69268 15.1434 2.19268C14.3434 1.09268 12.7433 0.592679 11.5433 1.39268C11.2433 1.59268 11.0434 1.89268 10.9434 2.19268C10.7434 2.49268 10.5434 2.79269 10.4434 3.09269C10.1434 4.09269 10.5433 5.09269 11.3433 5.79269C12.1433 6.49269 13.2434 6.69269 14.2434 6.29269C15.2434 5.89269 15.7433 4.79268 15.5433 3.69268Z" fill="#F38059"/>
<path d="M9.14326 21.8927C8.94326 21.8927 8.64326 21.6927 8.64326 21.4927L7.84326 16.4927C7.84326 16.1927 7.94327 15.9927 8.24327 15.8927C8.54327 15.7927 8.74326 15.9927 8.84326 16.2927L9.64326 21.2927C9.64326 21.5927 9.44326 21.8927 9.14326 21.8927Z" fill="black"/>
<path d="M12.043 22.6927C11.743 22.6927 11.543 22.3927 11.543 22.0927C11.743 20.2927 12.043 18.5927 12.443 16.7927C12.543 16.4927 12.743 16.3927 13.043 16.3927C13.343 16.4927 13.443 16.6927 13.443 16.9927C13.043 18.6927 12.743 20.3927 12.543 22.1927C12.543 22.4927 12.243 22.6927 12.043 22.6927Z" fill="black"/>
<path d="M14.8432 22.7927C14.7432 22.7927 14.7432 22.7927 14.6432 22.7927C14.3432 22.6927 14.2432 22.3927 14.3432 22.0927L16.6432 16.4927C16.7432 16.1927 17.0432 16.0927 17.3432 16.1927C17.6432 16.2927 17.7432 16.5926 17.6432 16.8926L15.3432 22.4927C15.2432 22.6927 15.0432 22.7927 14.8432 22.7927Z" fill="black"/>
</svg>
