<svg width="24" height="24" viewBox="0 0 24 24" fill="none" xmlns="http://www.w3.org/2000/svg">
<path d="M21.4294 9.21948C21.1403 7.77399 19.1166 7.48489 17.9602 7.29215C16.1292 7.00305 14.3946 7.19577 12.5636 7.58124C12.3709 7.58124 12.2745 7.67762 12.1782 7.77399C10.9254 7.96672 9.67261 8.44855 9.47988 9.60494C9.19078 10.9541 10.3472 12.0141 11.6 12.785C12.0818 13.1705 12.5636 13.556 12.9491 13.7487C14.3946 14.4233 16.1292 13.4596 17.382 12.8814C17.8638 12.5923 18.6347 12.3032 19.3093 11.9177C20.5621 11.4359 21.7185 10.665 21.4294 9.21948Z" fill="#FCF3CF"/>
<path d="M2.63823 19.8199C2.25276 19.8199 1.77093 19.6272 1.48183 19.3381C1.19273 19.049 1 18.5671 1 18.0853V17.9889C1 17.5071 1.19273 17.1216 1.48183 16.8325C1.77093 16.5434 2.15639 16.3507 2.63823 16.3507C3.02369 16.3507 3.50553 16.5434 3.89099 16.8325C4.18009 17.1216 4.37283 17.6035 4.37283 18.0853V18.1817C4.37283 18.6635 4.18009 19.049 3.89099 19.3381C3.6019 19.6272 3.21643 19.8199 2.63823 19.8199ZM2.7346 17.218C2.4455 17.218 2.25276 17.3144 2.15639 17.4107C1.96366 17.6035 1.96366 17.7962 1.96366 17.9889V18.0853C1.96366 18.278 2.06003 18.4708 2.15639 18.5671C2.25276 18.6635 2.54186 18.7599 2.63823 18.7599C2.73459 18.7599 3.0237 18.7599 3.21643 18.5671C3.40917 18.3744 3.40916 18.1817 3.40916 17.9889V17.8926C3.40916 17.6998 3.3128 17.5071 3.21643 17.4107C3.12007 17.3144 2.83097 17.218 2.7346 17.218Z" fill="black"/>
<path d="M6.01093 21.9399C5.04726 21.9399 4.56543 21.169 4.56543 20.4944C4.56543 20.109 4.66179 19.7235 4.95089 19.5308C5.23999 19.2417 5.62546 19.049 6.01093 19.049C6.97459 19.049 7.45642 19.8199 7.45642 20.4944C7.45642 20.8799 7.36006 21.2654 7.07096 21.4581C6.78186 21.8436 6.39639 21.9399 6.01093 21.9399ZM6.01093 20.0126C5.81819 20.0126 5.72183 20.0126 5.62547 20.109C5.5291 20.2053 5.52909 20.3017 5.52909 20.4944C5.52909 20.5908 5.52909 20.9763 6.01093 20.9763C6.49276 20.9763 6.49276 20.5908 6.49276 20.4944C6.49276 20.3981 6.39639 20.0126 6.01093 20.0126Z" fill="black"/>
<path d="M2.7347 23C1.96377 23 1.48193 22.4218 1.48193 21.7473C1.48193 20.9763 2.06014 20.4945 2.7347 20.4945C3.40927 20.4945 3.98745 21.0727 3.98745 21.7473C3.98745 22.4218 3.50563 23 2.7347 23ZM2.7347 21.3618C2.4456 21.3618 2.4456 21.5545 2.4456 21.6509C2.4456 21.7473 2.4456 21.94 2.7347 21.94C3.0238 21.94 3.02379 21.7473 3.02379 21.6509C3.02379 21.5545 3.0238 21.3618 2.7347 21.3618Z" fill="black"/>
<path d="M13.0458 16.0616C12.9494 16.0616 12.7567 15.9653 12.6603 15.9653L7.45654 10.6651C7.26381 10.4724 7.26381 10.2796 7.36017 10.0869C8.03474 9.02686 8.70931 7.87047 9.38387 6.71407C10.0584 5.55767 10.733 4.40127 11.4076 3.34124C12.0821 2.37758 12.7567 1.41391 13.8167 1.12481C15.0695 0.739343 16.4186 1.31755 17.2859 1.89574C18.5387 2.66668 19.6951 3.53397 20.7551 4.49764C21.3333 5.07584 22.297 6.03951 22.6825 7.29227C23.1643 8.54504 23.0679 9.89417 22.4897 10.8578C22.0079 11.5324 21.3333 12.1106 20.7551 12.4961C18.8278 13.7488 15.5513 15.387 13.0458 16.2543C13.1422 16.0616 13.1422 16.0616 13.0458 16.0616ZM8.42021 10.2796L13.1422 15.0979C15.455 14.2307 18.4423 12.7852 20.2733 11.5324C20.7551 11.1469 21.4297 10.7615 21.7188 10.1833C22.2006 9.5087 22.2006 8.44867 21.8151 7.485C21.526 6.71407 20.9479 5.94314 20.0806 5.07584C19.1169 4.11218 18.0569 3.24487 16.8041 2.57031C15.6477 1.89574 14.7804 1.70301 14.1058 1.89574C13.3349 2.18484 12.7567 2.95577 12.2749 3.7267C11.6003 4.78673 10.9257 5.94313 10.2512 7.09953C9.67297 8.15956 9.09477 9.21959 8.42021 10.2796Z" fill="black"/>
<path d="M10.4438 17.8926C9.86561 17.8926 9.19103 17.6999 8.61284 17.218C8.22737 16.9289 7.84191 16.5435 7.45644 16.158C7.36007 16.0617 7.16735 15.8689 7.07098 15.7725L6.87824 15.5798C6.49277 15.1944 6.1073 14.8089 5.91457 14.3271C5.62547 13.6525 5.62548 12.6888 6.01094 11.9179C6.30004 11.3397 6.78188 10.7615 7.55281 10.1833C7.74555 9.99058 8.03464 10.0869 8.22738 10.2797C8.42011 10.4724 8.32374 10.7615 8.131 10.9542C7.5528 11.3397 7.16734 11.8215 6.97461 12.3034C6.68551 12.8816 6.6855 13.4598 6.87824 13.8452C7.07097 14.2307 7.36007 14.5198 7.64917 14.8089L7.8419 15.0016C7.93827 15.098 8.13101 15.2907 8.22738 15.3871C8.51648 15.7726 8.90194 16.0617 9.19104 16.3508C9.48014 16.5435 10.0584 16.929 10.6366 16.8326C11.3111 16.7362 11.793 16.0617 12.2748 15.3871C12.4675 15.1944 12.7566 15.098 12.9494 15.2907C13.1421 15.4835 13.2385 15.7726 13.0457 15.9653C12.4675 16.7362 11.793 17.6035 10.8293 17.6999C10.6366 17.8926 10.5402 17.8926 10.4438 17.8926Z" fill="black"/>
</svg>
