<svg width="24" height="24" viewBox="0 0 24 24" fill="none" xmlns="http://www.w3.org/2000/svg">
<path d="M23 8.89173C22.3007 11.6888 20.5026 15.3849 18.6046 17.1831C16.2071 19.3808 13.1104 20.08 9.51412 19.181C6.01778 18.3818 3.42051 16.3839 2.22177 13.6867C1.12292 11.0894 0.623447 7.99267 1.32272 5.0957L23 8.89173Z" fill="#FBB49B"/>
<path d="M14.1091 11.2892C13.7095 11.2892 13.31 11.0894 13.1102 10.8896C12.8105 10.5899 12.6107 9.99056 12.7106 9.59098C12.8105 9.2913 13.0103 9.19141 13.31 9.19141C13.6097 9.2913 13.7096 9.4911 13.7096 9.79078C13.7096 9.89068 13.7096 10.0905 13.8095 10.1904C13.9094 10.2903 14.1091 10.2903 14.209 10.2903C14.4088 10.2903 14.6086 10.0905 14.7085 9.89067C14.9083 9.69088 15.208 9.69089 15.4078 9.79078C15.6075 9.99058 15.6076 10.2903 15.5077 10.49C15.3079 10.7897 14.9083 11.0894 14.4088 11.1893C14.3089 11.2892 14.209 11.2892 14.1091 11.2892Z" fill="black"/>
<path d="M5.71846 9.19144C5.31888 9.19144 4.91929 8.99165 4.7195 8.79186C4.41982 8.49218 4.22003 7.8928 4.31993 7.49322C4.41982 7.19353 4.61959 7.09363 4.91928 7.09363C5.21896 7.19352 5.31888 7.39332 5.31888 7.69301C5.31888 7.7929 5.31886 7.99269 5.41875 8.09258C5.51865 8.19248 5.71846 8.19248 5.81836 8.19248C6.01815 8.19248 6.21794 7.9927 6.31784 7.79291C6.51763 7.59312 6.81729 7.59311 7.01708 7.69301C7.21688 7.8928 7.21688 8.19248 7.11699 8.39227C6.9172 8.69196 6.51761 8.99164 6.01813 9.09154C5.91824 9.19143 5.81835 9.19144 5.71846 9.19144Z" fill="black"/>
<path d="M14.2093 22.5774C13.2104 22.5774 11.7119 22.3776 10.4133 21.5784C6.71713 19.2808 6.11776 15.1851 5.91797 11.489C5.91797 10.5899 6.41745 10.1903 6.91692 10.0904C7.5163 9.99053 8.11569 10.2902 8.21558 10.7897C8.21558 10.8896 8.31548 11.0894 8.31548 11.6888C8.41538 13.0873 8.71505 16.2839 10.0137 17.8823C11.4122 19.5805 12.7109 20.3797 16.8066 20.1799C17.1063 20.1799 17.3061 20.3797 17.3061 20.6793C17.3061 20.979 17.1063 21.1788 16.8066 21.1788C12.8108 21.3786 10.9128 20.7792 9.21454 18.5815C7.816 16.7834 7.51632 13.4869 7.31653 11.8885C7.31653 11.5889 7.31652 11.3891 7.21663 11.2892C7.21663 11.1893 7.11672 11.1893 7.01682 11.1893C6.91693 11.1893 6.91692 11.3891 6.91692 11.489C7.01682 14.9853 7.61619 18.7813 10.9127 20.7792C12.611 21.8781 15.0085 21.5784 15.0085 21.5784C15.3081 21.5784 15.5079 21.7782 15.6078 21.978C15.6078 22.2777 15.4081 22.4775 15.2083 22.5774C15.2083 22.5774 14.8087 22.5774 14.2093 22.5774Z" fill="black"/>
<path d="M9.01454 13.7866C8.11549 13.7866 7.51611 13.0874 7.51611 11.8886C7.51611 10.6899 8.11549 9.9906 9.01454 9.9906C9.9136 9.9906 10.7128 10.7898 10.7128 11.8886C10.7128 12.9875 10.0135 13.7866 9.01454 13.7866ZM9.01454 11.0894C8.61496 11.0894 8.51507 11.6888 8.51507 11.9885C8.51507 12.2882 8.51507 12.8876 9.01454 12.8876C9.41413 12.8876 9.71382 12.488 9.71382 11.9885C9.71382 11.489 9.41413 11.0894 9.01454 11.0894Z" fill="black"/>
<path d="M4.49546 10.3025C4.72575 9.80112 4.38409 9.15202 3.73235 8.85265C3.08061 8.55329 2.36559 8.71701 2.13531 9.21835C1.90503 9.71969 2.24669 10.3688 2.89842 10.6682C3.55016 10.9675 4.26518 10.8038 4.49546 10.3025Z" fill="#F89879"/>
<path d="M16.7794 12.5758C16.8015 12.0245 16.2384 11.5544 15.5217 11.5257C14.8051 11.497 14.2062 11.9207 14.1842 12.4719C14.1621 13.0232 14.7252 13.4933 15.4418 13.522C16.1585 13.5507 16.7573 13.1271 16.7794 12.5758Z" fill="#F89879"/>
<path d="M14.2091 5.39545C14.2091 5.39545 14.1092 5.39545 14.2091 5.39545C13.6097 5.39545 12.9105 5.29555 12.3111 5.19566C12.1113 5.19566 12.0114 4.99587 11.9115 4.79608C11.8116 4.59629 11.9115 4.3965 12.0114 4.29661C12.2112 4.09682 12.5109 3.79712 12.8106 3.59733H12.7107C12.411 3.59733 12.2112 3.29765 12.3111 2.99796C12.3111 2.69828 12.6108 2.49848 12.9104 2.59837L14.309 2.79818C14.5088 2.79818 14.7086 2.99796 14.7086 3.19775C14.7086 3.39754 14.7086 3.59733 14.5088 3.69723C14.2091 3.89702 13.9094 4.09682 13.6097 4.29661C13.8095 4.29661 14.1092 4.2966 14.309 4.39649C14.6087 4.39649 14.8085 4.69618 14.8085 4.89597C14.6087 5.19566 14.4089 5.39545 14.2091 5.39545Z" fill="black"/>
<path d="M18.505 4.19665C17.6059 4.19665 16.7069 4.19664 15.9077 4.09675C15.7079 4.09675 15.608 3.99687 15.5081 3.79707C15.4082 3.59728 15.5081 3.39749 15.608 3.2976C16.0076 2.89802 16.3073 2.49842 16.7069 2.09884L15.7079 1.99895C15.4082 1.99895 15.2085 1.69927 15.2085 1.49948C15.2085 1.19979 15.5081 1 15.7079 1L18.0055 1.09989C18.2053 1.09989 18.4051 1.29969 18.505 1.49948C18.6049 1.69927 18.505 1.89906 18.3052 1.99895C17.8057 2.29864 17.4061 2.69821 17.0066 3.09779C17.506 3.09779 18.0055 3.09779 18.505 3.09779C18.8047 3.09779 19.0045 3.29759 19.0045 3.59727C19.0045 3.99685 18.8047 4.19665 18.505 4.19665Z" fill="black"/>
</svg>
