<svg width="24" height="24" viewBox="0 0 24 24" fill="none" xmlns="http://www.w3.org/2000/svg">
<path d="M15.7748 10.3936C12.8431 10.6868 9.91132 10.8822 6.97961 10.98C6.78416 10.98 6.58871 11.0777 6.49099 11.1754C6.19782 11.3709 6.1001 11.664 6.1001 11.9572C6.58872 14.9866 6.97962 18.0161 7.56596 20.9478C7.66368 21.2409 7.95686 21.5341 8.34775 21.5341C9.71588 21.4364 12.0613 21.5341 13.4294 21.4364C13.918 21.4364 14.6998 21.4364 15.1885 21.1432C15.5793 20.85 15.6771 20.3614 15.7748 19.8728C16.5566 17.1365 16.2634 14.2048 16.9475 11.5663C16.9475 11.0777 16.068 10.2959 15.7748 10.3936Z" fill="#F8CD3D"/>
<path d="M19.0976 1.1099C17.8272 1.98941 16.1659 2.77119 15.091 3.94388C14.6023 4.53022 14.4069 5.21429 14.3092 5.89835C14.1137 6.87559 13.9183 7.85283 13.7228 8.83007C12.941 12.5436 12.1592 16.3548 11.3775 20.0683C11.182 20.9478 12.5501 21.3387 12.7456 20.4592C13.4297 17.1366 14.2114 13.7163 14.8955 10.3937C15.1887 8.83007 15.4819 7.07104 15.9705 5.50747C16.2636 4.62795 17.0454 4.33478 17.7295 3.84616C18.4136 3.35755 19.1954 2.86893 19.8794 2.38031C20.6612 1.89169 19.8794 0.621278 19.0976 1.1099Z" fill="#F38059"/>
<path d="M8.54348 22.7069C8.34803 22.7069 8.15259 22.5115 8.05486 22.316L5.02542 6.68024C4.9277 6.38706 5.12315 6.19163 5.41632 6.0939C5.7095 5.99618 5.90493 6.19162 6.00266 6.48479L9.0321 22.1206C9.12982 22.4138 8.93437 22.6092 8.54348 22.7069C8.6412 22.7069 8.54348 22.7069 8.54348 22.7069Z" fill="black"/>
<path d="M8.54331 23C8.25014 23 8.05469 22.8046 8.05469 22.5114C8.05469 22.2182 8.25014 22.0228 8.54331 22.0228C9.03193 22.0228 9.52055 21.9251 10.0092 21.9251C11.3773 21.8273 12.8432 21.6319 14.2113 21.6319L16.5567 6.7779C16.5567 6.48473 16.8499 6.28927 17.143 6.38699C17.4362 6.38699 17.6317 6.68017 17.5339 6.97334L15.0908 22.2182C15.0908 22.4137 14.8954 22.6091 14.6022 22.6091C13.1364 22.6091 11.5728 22.8046 10.0092 22.9023C9.61827 22.9023 9.03193 22.9023 8.54331 23Z" fill="black"/>
<path d="M6.29575 6.87568C6.00258 6.87568 5.80713 6.68024 5.80713 6.38707C5.80713 6.09389 6.00258 5.89845 6.29575 5.89845C9.71608 5.703 13.1364 5.703 16.6545 5.703C16.9476 5.703 17.1431 5.89845 17.1431 6.19162C17.1431 6.48479 16.9476 6.68024 16.6545 6.68024C13.1364 6.68024 9.71608 6.68024 6.29575 6.87568Z" fill="black"/>
<path d="M12.8432 15.5729C11.9637 15.5729 11.4751 14.8889 11.4751 14.2048C11.4751 13.5207 11.9637 12.8367 12.8432 12.8367C13.7227 12.8367 14.2114 13.5207 14.2114 14.2048C14.2114 14.5957 14.1136 14.8889 13.9182 15.0843C13.625 15.4752 13.2341 15.5729 12.8432 15.5729ZM12.8432 13.8139C12.7455 13.8139 12.6478 13.8139 12.5501 13.9116C12.4523 14.0094 12.4523 14.1071 12.4523 14.2048C12.4523 14.3025 12.4523 14.5957 12.8432 14.5957C12.9409 14.5957 13.0387 14.5957 13.1364 14.498C13.2341 14.4002 13.2341 14.3025 13.2341 14.2048C13.2341 14.1071 13.2341 13.8139 12.8432 13.8139Z" fill="black"/>
<path d="M8.83689 12.3482C7.95737 12.3482 7.46875 11.6641 7.46875 10.9801C7.46875 10.5892 7.56647 10.296 7.76192 10.1006C8.05509 9.80739 8.34826 9.61194 8.73916 9.61194C9.61867 9.61194 10.1073 10.296 10.1073 10.9801C10.1073 11.371 10.0095 11.6641 9.81412 11.8596C9.61868 12.1528 9.22778 12.3482 8.83689 12.3482ZM8.83689 10.5892C8.54372 10.5892 8.44598 10.8824 8.44598 10.9801C8.44598 11.0778 8.44599 11.371 8.83689 11.371C9.22778 11.371 9.22778 11.0778 9.22778 10.9801C9.22778 10.8824 9.13006 10.5892 8.83689 10.5892Z" fill="black"/>
<path d="M9.61815 20.4592C8.73863 20.4592 8.25 19.7751 8.25 19.091C8.25 18.7001 8.34773 18.407 8.54318 18.2115C8.83635 17.9183 9.12952 17.7229 9.52042 17.7229C10.4 17.7229 10.8886 18.407 10.8886 19.091C10.9863 19.7751 10.4977 20.4592 9.61815 20.4592ZM9.61815 18.7001C9.52042 18.7001 9.42269 18.7001 9.32497 18.7979C9.22725 18.8956 9.22724 18.9933 9.22724 19.091C9.22724 19.1888 9.22725 19.4819 9.61815 19.4819C9.71587 19.4819 9.81358 19.4819 9.9113 19.3842C10.0091 19.2865 10.0091 19.1888 10.0091 19.091C10.0091 18.9933 10.0091 18.7001 9.61815 18.7001Z" fill="black"/>
</svg>
