<svg width="156" height="161" viewBox="0 0 156 161" fill="none" xmlns="http://www.w3.org/2000/svg">
<path fill-rule="evenodd" clip-rule="evenodd" d="M89.5313 0.682311C69.3768 4.77001 53.4064 21.3804 50.0944 41.7004L49.4421 45.702L46.4907 45.8306C44.8673 45.9016 43.0743 46.0652 42.5055 46.1937C41.2555 46.4774 40.3725 48.3021 40.7657 49.7892C40.9239 50.3865 45.4942 55.5071 50.9223 61.169C59.2158 69.8196 61.0167 71.4628 62.205 71.4628C63.366 71.4628 64.7602 70.2783 70.0058 64.835C83.5862 50.7426 83.7304 50.5751 83.7304 48.8839C83.7304 46.6374 82.5072 45.9521 78.4977 45.9521C76.6356 45.9521 75.1122 45.7355 75.1122 45.4709C75.1122 44.4725 77.3054 39.1213 78.5022 37.1985C80.7237 33.6305 85.2692 29.6224 89.3946 27.5945C93.2545 25.6967 93.2704 25.6937 99.4756 25.7152C104.752 25.7337 106.093 25.9063 108.358 26.8562C116.053 30.0845 121.738 36.6778 123.57 44.498C125.634 53.3032 123.053 61.8192 116.419 68.0969C112.99 71.3412 109.109 73.5706 105.385 74.434C101.708 75.2868 95.9325 75.0668 92.2884 73.9343C87.9999 72.6017 85.9733 72.7728 85.3667 74.519C84.5015 77.0101 85.2886 78.2941 88.3962 79.4636C102.324 84.7063 118.384 79.201 126.01 66.5707C133.419 54.3001 131.77 38.7196 121.992 28.6274C116.023 22.4674 109.494 19.4801 101.085 19.0625C95.2065 18.7708 90.7754 19.6262 85.8132 22.0107C76.1131 26.6721 68.6484 37.8643 68.6484 47.7469C68.6484 50.461 69.1382 51.2283 71.4935 52.2062C72.6704 52.6949 72.563 52.8535 67.4387 58.2087L62.1752 63.7095L56.959 58.2392C54.0905 55.23 51.7482 52.6414 51.7541 52.4869C51.7601 52.3318 52.4865 51.8671 53.3691 51.4544C55.2023 50.5971 55.3689 50.1449 56.4175 43.201C59.0831 25.5517 72.5883 11.0881 90.1161 7.11199C95.5401 5.88148 104.575 5.99952 109.917 7.37059C127.089 11.7774 139.992 25.9448 142.771 43.4431C143.355 47.1141 144.274 48.4532 146.214 48.4532C148.587 48.4532 149.383 46.9491 149.056 43.0809C148.177 32.6681 140.718 18.9539 131.891 11.5188C125.912 6.48322 116.806 2.15592 109.003 0.641293C104.507 -0.23157 93.9277 -0.20906 89.5313 0.682311ZM97.8124 30.3602C97.3599 30.8634 96.9895 31.9778 96.9895 32.8377C96.9895 34.2008 96.7131 34.5234 94.8306 35.3612C91.9533 36.6418 90.403 38.9147 90.1275 42.2566C90.0077 43.7137 90.0475 45.4589 90.216 46.1352C90.6496 47.8729 92.9149 49.8833 97.0557 52.2047C99.0181 53.3052 101.062 54.7988 101.596 55.5236C102.463 56.7001 102.495 56.9962 101.888 58.2748C101.325 59.4623 100.855 59.7339 99.1459 59.8594C98.0118 59.9425 96.2517 59.6613 95.2354 59.2342C92.6145 58.1327 91.1781 58.2543 90.2657 59.6548C88.6314 62.1649 90.13 64.0597 94.8764 65.4848C96.7802 66.056 96.9895 66.2746 96.9895 67.6902C96.9895 69.6025 97.7607 70.4623 99.4756 70.4623C101.246 70.4623 101.962 69.593 101.962 67.4411C101.962 65.7549 102.111 65.5708 103.986 64.9481C106.304 64.1787 107.515 62.8322 108.703 59.6999C110.582 54.7503 108.43 50.7181 102.252 47.6118C100.315 46.6379 98.338 45.4934 97.8596 45.0688C96.8607 44.1819 96.7076 41.934 97.5862 41.0501C98.3782 40.2533 100.942 40.2883 103.02 41.1246C105.256 42.025 107.053 41.5023 107.656 39.7766C108.32 37.8758 107.655 36.9479 104.552 35.4478C102.235 34.3278 101.965 34.0307 101.964 32.6001C101.962 31.5176 101.605 30.7513 100.856 30.2241C99.4249 29.2152 98.8178 29.2422 97.8124 30.3602ZM144.516 50.407C143.969 51.0147 143.716 51.9661 143.817 53.0301C144.163 56.6501 149.259 56.6501 149.605 53.0301C149.801 50.9737 148.571 49.4536 146.711 49.4536C145.975 49.4536 144.987 49.8828 144.516 50.407ZM145.716 57.3039C142.566 58.4363 143.581 63.4594 146.959 63.4594C148.462 63.4594 150.191 61.8417 150.191 60.4357C150.191 59.2807 148.088 56.9362 147.106 56.9962C146.752 57.0177 146.127 57.1563 145.716 57.3039ZM138.846 69.2093C136.928 70.1077 134.134 72.4882 128.653 77.8919C124.502 81.9866 120.111 86.2464 118.896 87.3584L116.688 89.3802L114.173 88.0497L111.657 86.7191L94.5035 86.4495L77.3496 86.1799L73.1213 84.3471C63.3471 80.1109 53.0295 80.6796 42.7715 86.0208C38.2986 88.3498 32.6801 93.3694 30.6117 96.8848C29.2881 99.1338 28.9798 99.3804 27.877 99.0717C25.6236 98.4415 21.2223 98.7661 19.4244 99.695C18.4673 100.19 13.8263 104.44 9.11072 109.141C0.326473 117.898 -0.813635 119.55 0.408513 121.747C0.667561 122.212 9.46722 131.235 19.9629 141.797C38.7605 160.712 39.0767 161 41.0497 161C42.9838 161 43.3527 160.696 51.8238 152.121C56.6477 147.238 60.9749 142.479 61.4393 141.545C61.9624 140.494 62.2806 138.684 62.2752 136.793C62.2667 134.049 62.4233 133.573 63.8155 132.112C64.6677 131.217 66.5601 130.035 68.0199 129.486C70.5314 128.54 71.9012 128.486 93.4374 128.486C119.124 128.486 119.78 128.411 122.94 125.125C123.939 124.085 131.49 114.906 139.719 104.727C152.521 88.8925 154.797 85.8287 155.477 83.5168C158.432 73.4756 148.317 64.7735 138.846 69.2093ZM147.228 76.2327C148.594 77.4763 149.327 80.0578 148.748 81.5885C148.332 82.6899 121.831 115.963 118.497 119.57L117.26 120.909L93.0785 121.101C71.0534 121.276 68.6753 121.376 66.411 122.22C63.5132 123.3 62.0758 124.145 59.7508 126.137L58.0628 127.583L46.4504 115.909C40.0637 109.488 34.838 103.976 34.838 103.66C34.838 102.389 39.4954 96.8363 42.3116 94.7504C46.6567 91.5326 50.3838 89.9269 55.5678 89.0391C61.2951 88.0582 65.2843 88.6344 71.5492 91.348L75.858 93.2143L93.0118 93.4684C109.16 93.707 110.246 93.7805 111.529 94.7224C112.278 95.2727 113.148 96.5502 113.461 97.5611C113.949 99.1388 113.893 99.635 113.065 101.062C111.419 103.898 111.03 103.961 95.2359 103.969C78.7796 103.977 78.5927 104.017 78.5927 107.495C78.5927 111.026 78.7398 111.054 96.5699 110.881C111.57 110.735 112.232 110.688 114.219 109.618C118.308 107.419 121.351 101.737 120.677 97.5606C120.393 95.8019 120.5 95.6713 128.951 87.4514C141.638 75.1118 142.023 74.8037 144.355 75.1183C145.419 75.2623 146.712 75.7636 147.228 76.2327ZM40.9288 120.382C54.7638 134.311 55.2237 134.837 55.2237 136.723C55.2237 138.562 54.8224 139.079 48.1384 145.843L41.0531 153.012L24.6501 136.5L8.24756 119.987L14.4572 113.68C17.8731 110.211 21.3387 106.938 22.1591 106.405C25.0598 104.524 25.5182 104.866 40.9288 120.382ZM23.0615 113.984C19.4055 115.466 20.8758 121.484 24.8937 121.484C25.8623 121.484 26.8816 121.03 27.6508 120.256C30.8648 117.023 27.3649 112.24 23.0615 113.984Z" fill="#F47B1B"/>
</svg>
