<svg width="48" height="48" viewBox="0 0 48 48" fill="none" xmlns="http://www.w3.org/2000/svg">
<path d="M43.99 28H3.98999V30H43.99V28Z" fill="#344650"/>
<path d="M4 45H6.45V42H20.45V33H4V45ZM6.45 35.38H18V39.92H6.45V35.38Z" fill="#344650"/>
<path d="M22.8501 42H32.1201V45H34.6801V42H44.0001V33H22.8501V42ZM34.6801 35.38H41.5501V39.92H34.6801V35.38ZM25.3001 35.38H32.1201V39.92H25.3001V35.38Z" fill="#344650"/>
<path d="M25.41 4H16V25H25.41V4ZM23 22.67H18.46V6.3H23V22.67Z" fill="#344650"/>
<path d="M30.0899 10.97L34.5899 6.29997V25H37.0499V10.97L41.5399 6.29997V25H43.9999V3.96997H40.5499L37.0499 7.58997V3.96997H33.5899L27.6299 10.09V25H30.0899V10.97Z" fill="#344650"/>
<path d="M11 25H13.46V4H10L4 10.09V25H11ZM6.46 11L11 6.31V22.67H6.46V11Z" fill="#344650"/>
</svg>
